<?xml version="1.0" encoding="UTF-8"?> <svg xmlns="http://www.w3.org/2000/svg" width="99" height="63" viewBox="0 0 99 63" fill="none"><path d="M48.6125 37.0985C56.7428 37.7871 64.0859 38.6744 71.7003 45.1046C72.3819 45.6801 70.9586 45.4011 70.6626 45.0885C62.1538 40.2246 49.6918 38.0492 40.0373 39.8775C36.3441 40.5773 33.7703 41.6618 30.7892 43.0926C37.1418 41.9865 43.2128 42.4466 49.4846 43.8325C53.4001 44.739 57.4349 46.032 60.9216 48.1449C63.1243 49.5412 61.8601 49.51 60.1384 48.7822C47.0531 44.8433 30.75 41.4021 18.8616 50.1216C23.0812 50.3099 26.6232 52.8469 30.518 54.2064C42.5247 58.6903 56.0988 59.5448 67.7111 53.5394C68.9576 53.2525 70.0097 52.584 71.0754 51.9227C77.2904 48.0672 83.6134 43.8966 90.2836 41.148C88.5755 40.4883 82.6349 39.0135 84.8207 36.3875C85.0103 36.1887 85.2216 36.0709 85.532 36.1591C86.9681 36.442 88.3675 36.8813 89.73 37.4207C92.7095 38.5998 95.993 39.1064 98.8997 40.5348C99.0285 40.5982 99.0349 40.7801 98.91 40.8506C95.1953 42.9411 90.9549 44.6372 87.2938 46.9057C84.8343 48.286 82.3909 49.7352 80.1395 51.4401C76.9984 53.6541 73.4252 55.1233 70.1433 57.1128C61.0345 61.6401 50.5663 63.0244 40.5317 61.4942C32.0941 60.9042 24.6134 55.7365 17.1159 53.2613C15.0405 52.576 12.2466 53.0745 14.5908 50.0013C21.4163 42.158 32.6318 37.5017 42.3791 34.3804C47.0419 32.8871 51.7616 31.9605 56.6004 31.603C59.1159 31.417 80.3923 30.5513 76.0063 35.8473C75.6654 36.1366 75.2526 36.1214 74.863 36.0477C66.1493 35.0537 57.1621 35.0425 48.6125 37.0985Z" fill="white"></path><path d="M48.6125 37.0985C56.7428 37.7871 64.0859 38.6744 71.7003 45.1046C72.3819 45.6801 70.9586 45.4011 70.6626 45.0885C62.1538 40.2246 49.6918 38.0492 40.0373 39.8775C36.3441 40.5773 33.7703 41.6618 30.7892 43.0926C37.1418 41.9865 43.2128 42.4466 49.4846 43.8325C53.4001 44.739 57.4349 46.032 60.9216 48.1449C63.1243 49.5412 61.8601 49.51 60.1384 48.7822C47.0531 44.8433 30.75 41.4021 18.8616 50.1216C23.0812 50.3099 26.6232 52.8469 30.518 54.2064C42.5247 58.6903 56.0988 59.5448 67.7111 53.5394C68.9576 53.2525 70.0097 52.584 71.0754 51.9227C77.2904 48.0672 83.6134 43.8966 90.2836 41.148C88.5755 40.4883 82.6349 39.0135 84.8207 36.3875C85.0103 36.1887 85.2216 36.0709 85.532 36.1591C86.9681 36.442 88.3675 36.8813 89.73 37.4207C92.7095 38.5998 95.993 39.1064 98.8997 40.5348C99.0285 40.5982 99.0349 40.7801 98.91 40.8506C95.1953 42.9411 90.9549 44.6372 87.2938 46.9057C84.8343 48.286 82.3909 49.7352 80.1395 51.4401C76.9984 53.6541 73.4252 55.1233 70.1433 57.1128C61.0345 61.6401 50.5663 63.0244 40.5317 61.4942C32.0941 60.9042 24.6134 55.7365 17.1159 53.2613C15.0405 52.576 12.2466 53.0745 14.5908 50.0013C21.4163 42.158 32.6318 37.5017 42.3791 34.3804C47.0419 32.8871 51.7616 31.9605 56.6004 31.603C59.1159 31.417 80.3923 30.5513 76.0063 35.8473C75.6654 36.1366 75.2526 36.1214 74.863 36.0477C66.1493 35.0537 57.1621 35.0425 48.6125 37.0985Z" fill="white"></path><path d="M44.5098 2.90597C48.6406 2.11322 54.1211 1.88958 59.3592 2.29277C68.1369 2.96929 73.3534 5.53671 77.1673 7.77308C78.9619 8.82554 79.7108 10.2419 78.3474 9.47721C77.1137 8.78546 75.8704 8.2436 74.5207 7.74583C70.5771 6.29018 66.5639 5.18803 62.3027 4.75518C55.7501 4.08988 51.5305 4.56361 48.4702 4.83855C46.678 4.99966 44.0074 5.29464 43.7697 6.65329C42.8 12.2025 42.3864 17.6796 42.5616 23.3275C42.5912 24.2749 42.676 30.556 44.0338 29.2094C45.6163 27.6399 45.4339 23.4549 45.4483 21.6145C45.4635 19.7333 45.4539 18.1935 45.5747 16.5831C45.6715 15.3006 45.5059 14.1744 46.6148 13.2919C49.5247 10.7068 48.5982 14.6826 48.5486 16.6689C48.5118 18.1269 47.8709 31.3247 51.3137 26.9265C52.1177 25.8989 52.9226 24.1731 52.8594 23.3483C52.7106 21.4117 51.8513 14.5688 51.2313 12.7196C50.7 11.0587 53.8755 12.556 54.1523 13.2374C55.5189 16.6039 55.7773 22.8073 56.1005 26.9089C56.1357 27.3546 56.4333 27.4972 56.5286 26.8576C56.7054 25.6665 56.9846 24.6509 57.1222 23.9527C57.2566 23.2706 58.3679 17.0472 59.424 13.6959C59.9273 12.2811 61.321 11.3256 62.8132 11.3393C63.2732 11.3433 63.3876 11.498 63.2532 11.9324C61.8003 15.2557 61.1666 18.8083 60.3337 22.3063C59.9545 23.8862 59.6081 25.4797 58.8688 26.9506C57.9895 28.9537 54.6772 30.4286 53.7243 27.4083C53.5059 26.7269 53.4187 26.4095 53.1962 25.7282C53.0058 26.2444 52.1977 27.8002 51.7561 28.3533C49.9047 30.6682 47.3005 30.7925 45.9795 27.9357C45.1147 31.4658 41.4679 34.3835 40.0718 29.5709C39.5813 30.5264 39.2861 31.4586 38.6469 32.2898C37.8252 33.3751 36.4634 33.3214 35.6578 32.3114C35.1569 31.6838 34.9969 31.1444 34.7217 30.354C33.2791 38.1188 27.3266 37.3645 26.9225 29.5957C26.6929 25.1895 26.7825 19.2243 30.9925 16.721C31.927 16.3138 32.9439 16.4188 33.5592 17.3462C33.7064 17.5682 33.8136 17.8344 34.02 18.0612C34.6153 16.9719 35.2961 15.7463 36.5226 15.3046C37.0075 15.1523 37.1683 15.283 37.0763 15.792C36.4266 19.403 36.6627 22.4842 36.8955 26.5843C36.9515 27.5702 37.3123 32.2193 38.6789 30.144C39.3989 29.0499 39.6597 27.7978 39.5725 26.4552C39.4725 24.9194 39.5053 21.5576 39.5653 20.0916C39.8454 15.2453 40.0398 12.1617 40.6446 7.34344C40.719 5.93108 35.0289 8.73416 34.0792 9.1622C33.1831 9.62951 30.6077 11.1381 29.77 11.704C29.6196 11.8058 29.4532 11.9404 29.2828 11.7312C30.5557 8.27647 37.754 5.37079 41.1431 4.01213C41.3999 3.90953 41.4255 3.78849 41.4695 3.5865C41.8472 1.87195 43.1449 0.958162 44.5714 0.196673C45.3787 -0.23457 45.4739 0.0828508 45.1939 0.764984C44.9314 1.40864 44.7514 2.18937 44.5098 2.90597ZM33.8912 26.0464C33.8248 24.5827 34.4817 17.8873 31.647 19.5553C29.3196 22.1901 29.1747 28.8864 30.7709 31.9259C32.2734 33.5451 33.624 30.7276 33.748 29.3937C33.9072 28.2804 33.8776 27.1614 33.8912 26.0464Z" fill="white"></path><path d="M44.5098 2.90597C48.6406 2.11322 54.1211 1.88958 59.3592 2.29277C68.1369 2.96929 73.3534 5.53671 77.1673 7.77308C78.9619 8.82554 79.7108 10.2419 78.3474 9.47721C77.1137 8.78546 75.8704 8.2436 74.5207 7.74583C70.5771 6.29018 66.5639 5.18803 62.3027 4.75518C55.7501 4.08988 51.5305 4.56361 48.4702 4.83855C46.678 4.99966 44.0074 5.29464 43.7697 6.65329C42.8 12.2025 42.3864 17.6796 42.5616 23.3275C42.5912 24.2749 42.676 30.556 44.0338 29.2094C45.6163 27.6399 45.4339 23.4549 45.4483 21.6145C45.4635 19.7333 45.4539 18.1935 45.5747 16.5831C45.6715 15.3006 45.5059 14.1744 46.6148 13.2919C49.5247 10.7068 48.5982 14.6826 48.5486 16.6689C48.5118 18.1269 47.8709 31.3247 51.3137 26.9265C52.1177 25.8989 52.9226 24.1731 52.8594 23.3483C52.7106 21.4117 51.8513 14.5688 51.2313 12.7196C50.7 11.0587 53.8755 12.556 54.1523 13.2374C55.5189 16.6039 55.7773 22.8073 56.1005 26.9089C56.1357 27.3546 56.4333 27.4972 56.5286 26.8576C56.7054 25.6665 56.9846 24.6509 57.1222 23.9527C57.2566 23.2706 58.3679 17.0472 59.424 13.6959C59.9273 12.2811 61.321 11.3256 62.8132 11.3393C63.2732 11.3433 63.3876 11.498 63.2532 11.9324C61.8003 15.2557 61.1666 18.8083 60.3337 22.3063C59.9545 23.8862 59.6081 25.4797 58.8688 26.9506C57.9895 28.9537 54.6772 30.4286 53.7243 27.4083C53.5059 26.7269 53.4187 26.4095 53.1962 25.7282C53.0058 26.2444 52.1977 27.8002 51.7561 28.3533C49.9047 30.6682 47.3005 30.7925 45.9795 27.9357C45.1147 31.4658 41.4679 34.3835 40.0718 29.5709C39.5813 30.5264 39.2861 31.4586 38.6469 32.2898C37.8252 33.3751 36.4634 33.3214 35.6578 32.3114C35.1569 31.6838 34.9969 31.1444 34.7217 30.354C33.2791 38.1188 27.3266 37.3645 26.9225 29.5957C26.6929 25.1895 26.7825 19.2243 30.9925 16.721C31.927 16.3138 32.9439 16.4188 33.5592 17.3462C33.7064 17.5682 33.8136 17.8344 34.02 18.0612C34.6153 16.9719 35.2961 15.7463 36.5226 15.3046C37.0075 15.1523 37.1683 15.283 37.0763 15.792C36.4266 19.403 36.6627 22.4842 36.8955 26.5843C36.9515 27.5702 37.3123 32.2193 38.6789 30.144C39.3989 29.0499 39.6597 27.7978 39.5725 26.4552C39.4725 24.9194 39.5053 21.5576 39.5653 20.0916C39.8454 15.2453 40.0398 12.1617 40.6446 7.34344C40.719 5.93108 35.0289 8.73416 34.0792 9.1622C33.1831 9.62951 30.6077 11.1381 29.77 11.704C29.6196 11.8058 29.4532 11.9404 29.2828 11.7312C30.5557 8.27647 37.754 5.37079 41.1431 4.01213C41.3999 3.90953 41.4255 3.78849 41.4695 3.5865C41.8472 1.87195 43.1449 0.958162 44.5714 0.196673C45.3787 -0.23457 45.4739 0.0828508 45.1939 0.764984C44.9314 1.40864 44.7514 2.18937 44.5098 2.90597ZM33.8912 26.0464C33.8248 24.5827 34.4817 17.8873 31.647 19.5553C29.3196 22.1901 29.1747 28.8864 30.7709 31.9259C32.2734 33.5451 33.624 30.7276 33.748 29.3937C33.9072 28.2804 33.8776 27.1614 33.8912 26.0464Z" fill="white"></path><path d="M16.3046 25.5348C14.1147 32.2431 18.3015 39.6136 14.6588 46.1319C12.9434 49.4095 11.0216 52.7384 8.411 55.2481C6.50922 57.0765 3.2145 56.8032 1.20231 55.1944C0.629458 54.6317 -0.167418 53.8798 0.0310011 53.0278C0.315028 51.8086 0.708666 50.4563 1.63115 49.5891C2.38002 48.8853 2.66645 49.0504 2.89607 49.961C4.16819 55.0052 9.39349 53.3171 10.896 49.5121C12.5714 45.2702 12.2546 40.5097 12.4922 35.9865C12.777 30.5558 13.4771 25.389 15.7789 20.602C16.5126 19.0766 17.2254 17.5304 18.2687 16.3176C18.6648 15.8575 18.7384 15.714 19.3064 15.7677C20.1905 15.8142 19.5161 17.2154 19.5441 17.7677C18.5792 23.6375 19.34 33.5762 22.3763 38.7198C22.4515 38.8473 22.6316 38.8657 22.7244 38.7511C23.1812 38.1868 23.1004 36.6614 23.018 35.9897C22.5595 32.2391 21.4426 28.5664 21.6099 24.7477C21.5683 20.2814 22.4699 15.4848 26.2983 12.6993C27.5048 11.917 28.2233 12.2729 27.24 13.6123C25.243 16.8771 25.0278 20.6533 24.9766 24.3662C24.5285 28.5159 27.5592 42.5272 20.1257 40.4865C17.5119 39.7691 16.3286 28.2586 16.3046 25.5348Z" fill="white"></path><path d="M16.3046 25.5348C14.1147 32.2431 18.3015 39.6136 14.6588 46.1319C12.9434 49.4095 11.0216 52.7384 8.411 55.2481C6.50922 57.0765 3.2145 56.8032 1.20231 55.1944C0.629458 54.6317 -0.167418 53.8798 0.0310011 53.0278C0.315028 51.8086 0.708666 50.4563 1.63115 49.5891C2.38002 48.8853 2.66645 49.0504 2.89607 49.961C4.16819 55.0052 9.39349 53.3171 10.896 49.5121C12.5714 45.2702 12.2546 40.5097 12.4922 35.9865C12.777 30.5558 13.4771 25.389 15.7789 20.602C16.5126 19.0766 17.2254 17.5304 18.2687 16.3176C18.6648 15.8575 18.7384 15.714 19.3064 15.7677C20.1905 15.8142 19.5161 17.2154 19.5441 17.7677C18.5792 23.6375 19.34 33.5762 22.3763 38.7198C22.4515 38.8473 22.6316 38.8657 22.7244 38.7511C23.1812 38.1868 23.1004 36.6614 23.018 35.9897C22.5595 32.2391 21.4426 28.5664 21.6099 24.7477C21.5683 20.2814 22.4699 15.4848 26.2983 12.6993C27.5048 11.917 28.2233 12.2729 27.24 13.6123C25.243 16.8771 25.0278 20.6533 24.9766 24.3662C24.5285 28.5159 27.5592 42.5272 20.1257 40.4865C17.5119 39.7691 16.3286 28.2586 16.3046 25.5348Z" fill="white"></path><path d="M74.7376 28.6819C73.5871 29.6718 71.9997 30.4477 70.6868 29.0137C69.8427 28.0919 69.7443 26.993 69.5043 25.8604C68.4722 27.8731 66.8728 29.8826 64.5238 29.0282C62.4964 28.2907 62.2972 25.6552 62.158 23.822C62.0748 20.2342 63.2149 13.1676 67.3377 12.2041C68.573 11.7576 70.1323 12.5079 70.5676 13.8553C70.8252 14.6537 70.8524 14.5607 71.3117 13.816C71.9341 12.8052 74.3239 11.5396 73.9311 12.8173C73.3422 14.729 70.8244 28.3228 73.3831 28.2025C74.0679 28.1705 74.4592 27.4451 74.4672 26.8463C74.4896 25.2103 74.6904 22.4665 74.9328 20.8554C75.3272 18.2359 75.2112 15.452 77.3994 14.4461C78.3931 13.99 78.6988 14.0004 78.5619 15.02C78.3771 16.3931 78.1771 17.6547 77.9659 19.1585C77.5554 22.0786 76.689 26.0664 77.8075 28.0535C78.8004 29.8169 80.2765 27.9741 80.4821 26.7533C80.8894 24.3374 80.9494 21.0357 81.431 18.6278C81.7214 17.4391 82.7359 16.5926 83.9409 16.5189C84.4721 16.486 84.5865 16.5742 84.5153 17.0856C84.0473 20.5476 83.4296 23.9855 82.9304 27.4427C81.9407 32.1054 82.6055 41.8516 76.7314 43.1638C75.9833 43.3305 75.0384 43.2744 74.2975 42.4905C73.8999 42.0689 75.068 41.8027 75.4616 41.5414C79.3748 38.9419 79.7053 33.4809 80.3837 29.1941C78.0587 31.5916 76.4313 31.8497 74.7376 28.6819ZM70.1844 17.4511C70.4796 12.0814 66.316 14.6008 65.5103 18.5397C65.1143 20.4738 64.9222 22.077 65.1623 24.3847C65.3047 25.7538 66.3376 27.4258 67.4201 26.6259C69.5939 25.0195 70.0147 20.5436 70.1844 17.4511Z" fill="white"></path><path d="M74.7376 28.6819C73.5871 29.6718 71.9997 30.4477 70.6868 29.0137C69.8427 28.0919 69.7443 26.993 69.5043 25.8604C68.4722 27.8731 66.8728 29.8826 64.5238 29.0282C62.4964 28.2907 62.2972 25.6552 62.158 23.822C62.0748 20.2342 63.2149 13.1676 67.3377 12.2041C68.573 11.7576 70.1323 12.5079 70.5676 13.8553C70.8252 14.6537 70.8524 14.5607 71.3117 13.816C71.9341 12.8052 74.3239 11.5396 73.9311 12.8173C73.3422 14.729 70.8244 28.3228 73.3831 28.2025C74.0679 28.1705 74.4592 27.4451 74.4672 26.8463C74.4896 25.2103 74.6904 22.4665 74.9328 20.8554C75.3272 18.2359 75.2112 15.452 77.3994 14.4461C78.3931 13.99 78.6988 14.0004 78.5619 15.02C78.3771 16.3931 78.1771 17.6547 77.9659 19.1585C77.5554 22.0786 76.689 26.0664 77.8075 28.0535C78.8004 29.8169 80.2765 27.9741 80.4821 26.7533C80.8894 24.3374 80.9494 21.0357 81.431 18.6278C81.7214 17.4391 82.7359 16.5926 83.9409 16.5189C84.4721 16.486 84.5865 16.5742 84.5153 17.0856C84.0473 20.5476 83.4296 23.9855 82.9304 27.4427C81.9407 32.1054 82.6055 41.8516 76.7314 43.1638C75.9833 43.3305 75.0384 43.2744 74.2975 42.4905C73.8999 42.0689 75.068 41.8027 75.4616 41.5414C79.3748 38.9419 79.7053 33.4809 80.3837 29.1941C78.0587 31.5916 76.4313 31.8497 74.7376 28.6819ZM70.1844 17.4511C70.4796 12.0814 66.316 14.6008 65.5103 18.5397C65.1143 20.4738 64.9222 22.077 65.1623 24.3847C65.3047 25.7538 66.3376 27.4258 67.4201 26.6259C69.5939 25.0195 70.0147 20.5436 70.1844 17.4511Z" fill="white"></path><path d="M91.6147 21.4919C92.114 20.9292 94.883 19.1946 94.4238 20.9605C94.2286 21.7131 94.0782 22.4706 93.999 23.2377C93.4453 28.1265 93.2621 33.4072 95.9631 37.7364C95.0423 38.0923 92.738 36.2327 92.2324 35.2989C91.5099 33.9651 91.3219 32.6128 91.0907 31.1355C88.8233 36.5854 83.9148 34.1559 83.9604 28.9505C83.9812 26.5233 84.5157 24.1371 85.5414 21.9295C86.5422 19.7749 90.1666 17.7141 91.3379 20.6631C91.4355 20.9092 91.5019 21.1256 91.6147 21.4919ZM91.1291 24.5932C91.1163 23.0894 91.0107 22.3496 90.2402 21.8037C89.7065 21.4254 88.9585 21.6907 88.4992 22.1436C86.9903 23.6337 86.4158 26.9987 86.7319 29.8755C86.8895 31.3127 88.18 32.3972 89.3585 31.4682C90.8435 30.3588 91.1419 26.0969 91.1291 24.5932Z" fill="white"></path><path d="M91.6147 21.4919C92.114 20.9292 94.883 19.1946 94.4238 20.9605C94.2286 21.7131 94.0782 22.4706 93.999 23.2377C93.4453 28.1265 93.2621 33.4072 95.9631 37.7364C95.0423 38.0923 92.738 36.2327 92.2324 35.2989C91.5099 33.9651 91.3219 32.6128 91.0907 31.1355C88.8233 36.5854 83.9148 34.1559 83.9604 28.9505C83.9812 26.5233 84.5157 24.1371 85.5414 21.9295C86.5422 19.7749 90.1666 17.7141 91.3379 20.6631C91.4355 20.9092 91.5019 21.1256 91.6147 21.4919ZM91.1291 24.5932C91.1163 23.0894 91.0107 22.3496 90.2402 21.8037C89.7065 21.4254 88.9585 21.6907 88.4992 22.1436C86.9903 23.6337 86.4158 26.9987 86.7319 29.8755C86.8895 31.3127 88.18 32.3972 89.3585 31.4682C90.8435 30.3588 91.1419 26.0969 91.1291 24.5932Z" fill="white"></path><path d="M49.15 8.56869C49.1188 8.78832 49.1732 9.43839 48.7755 9.4929C48.2571 9.59871 47.7522 9.79509 47.2178 9.79269C46.4585 9.86563 46.5377 9.09212 46.5737 8.53904C46.6145 7.73025 47.0098 7.32626 47.7914 7.21084C48.982 7.01926 49.2148 7.22927 49.15 8.56869Z" fill="white"></path><path d="M49.15 8.56869C49.1188 8.78832 49.1732 9.43839 48.7755 9.4929C48.2571 9.59871 47.7522 9.79509 47.2178 9.79269C46.4585 9.86563 46.5377 9.09212 46.5737 8.53904C46.6145 7.73025 47.0098 7.32626 47.7914 7.21084C48.982 7.01926 49.2148 7.22927 49.15 8.56869Z" fill="white"></path></svg> 