<svg width="24" height="24" viewBox="0 0 24 24" fill="none" xmlns="http://www.w3.org/2000/svg">
<path d="M13.4 11.2936C13.5874 11.4811 13.6928 11.7354 13.6928 12.0006C13.6928 12.2657 13.5874 12.52 13.4 12.7076L8.81497 17.2936C8.63281 17.4822 8.53202 17.7348 8.5343 17.997C8.53658 18.2592 8.64175 18.51 8.82715 18.6954C9.01256 18.8808 9.26337 18.986 9.52557 18.9882C9.78777 18.9905 10.0404 18.8897 10.229 18.7076L14.811 14.1216C15.3734 13.559 15.6893 12.7961 15.6893 12.0006C15.6893 11.2051 15.3734 10.4422 14.811 9.87957L10.225 5.29357C10.0364 5.11141 9.78377 5.01062 9.52157 5.01289C9.25937 5.01517 9.00856 5.12034 8.82315 5.30575C8.63775 5.49116 8.53258 5.74197 8.5303 6.00417C8.52802 6.26636 8.62881 6.51897 8.81097 6.70757L13.4 11.2936Z" fill="black"/>
</svg>
