<svg width="41" height="29" viewBox="0 0 41 29" fill="none" xmlns="http://www.w3.org/2000/svg">
<g clip-path="url(#clip0)">
<path d="M18.8927 9.9652C18.9157 9.90246 18.8339 9.85753 18.7938 9.91056C17.8524 11.1649 16.8383 13.8919 16.5735 15.0446C14.946 22.1273 10.8817 29.6377 2.63961 26.6275C2.63763 26.6267 2.63564 26.6259 2.63366 26.625C-2.67458 24.0208 1.46949 20.0876 2.75516 21.8508C2.7623 21.8605 2.76588 21.8723 2.76627 21.8844C2.82544 24.8392 7.33003 27.4253 9.50312 25.1266C9.50511 25.1246 9.50669 25.1225 9.50828 25.1205C13.8167 19.2927 13.4697 7.41921 22.3062 5.92035C22.5436 5.88028 22.7306 6.12355 22.6373 6.34981C20.627 11.2171 20.7041 16.4727 20.7029 20.6713C20.7029 21.1862 20.7926 21.8407 20.8955 22.1888C20.9514 22.3786 21.1186 22.4276 21.2687 22.1487C21.3354 22.0245 21.5534 21.3469 21.605 20.7154C22.2494 14.9386 24.139 8.24696 29.5171 5.35894C30.9684 4.57936 32.7039 4.61498 32.7984 4.77041C32.8929 4.92543 32.1413 4.99182 31.6477 5.2792C27.4786 7.70781 26.2315 12.9054 25.107 16.8297C24.2696 19.272 24.0211 22.3491 21.545 23.7528C21.5423 23.7544 21.5395 23.7556 21.5367 23.7569C16.7736 25.6309 17.6999 13.2373 18.8927 9.9652Z" fill="white"/>
<path d="M19.234 28.9693C16.725 29.1389 12.8926 28.6265 11.6038 26.8467C11.2254 26.3242 12.8624 27.0604 14.3486 27.1592C29.6996 28.178 29.6301 17.1784 34.6413 6.51523C34.8022 6.1728 35.2858 5.41629 35.4736 5.08842C36.3074 3.63126 37.4926 3.11599 35.4736 2.70029C31.7039 1.92435 27.7699 1.80737 23.932 2.17409C22.0694 2.35219 20.2437 2.76141 18.559 3.59038C10.5678 7.52148 9.34254 14.0229 7.83134 22.6562C7.80037 22.8339 7.54903 22.8391 7.50417 22.6643C5.73211 15.7379 8.8613 6.28492 15.2047 2.75615C24.1392 -2.2144 32.2066 0.89948 40.567 1.68473C40.7687 1.70375 41.0185 1.83166 40.9986 2.02393C40.9728 2.27529 40.6214 2.61489 40.4749 2.74967C32.2936 10.2966 35.2552 27.8874 19.234 28.9693Z" fill="white"/>
</g>
<defs>
<clipPath id="clip0">
<rect width="41" height="29" fill="white"/>
</clipPath>
</defs>
</svg>
