<svg width="20" height="20" viewBox="0 0 20 20" fill="none" xmlns="http://www.w3.org/2000/svg">
<g clip-path="url(#clip0)">
<path d="M19.9166 9.53015C19.5892 7.00967 18.3143 4.70843 16.3511 3.09419C14.3878 1.47994 11.8836 0.673826 9.34735 0.83969C6.8111 1.00555 4.43318 2.13095 2.69691 3.98713C0.960635 5.84332 -0.00368893 8.29099 -6.03587e-05 10.8327C-0.00486403 12.1931 0.270821 13.5399 0.809785 14.789C1.34875 16.0381 2.13942 17.1628 3.13244 18.0927C3.89189 18.7958 4.89257 19.1801 5.92744 19.166H14.0666C15.1599 19.1686 16.2103 18.7408 16.9908 17.9752C18.103 16.893 18.9469 15.5658 19.4549 14.0995C19.9629 12.6332 20.121 11.0684 19.9166 9.53015ZM15.8258 16.7802C15.3569 17.2421 14.7248 17.5005 14.0666 17.4993H5.92744C5.3185 17.5118 4.72785 17.2909 4.27661 16.8818C3.44934 16.1069 2.79062 15.1698 2.34157 14.1291C1.89251 13.0883 1.66275 11.9662 1.66661 10.8327C1.66743 9.65952 1.91558 8.49974 2.39489 7.42899C2.87419 6.35824 3.57387 5.40057 4.44827 4.61848C5.96756 3.24841 7.94247 2.49296 9.98827 2.49932C10.3152 2.49945 10.6418 2.51782 10.9666 2.55432C12.5296 2.73585 14.0092 3.35645 15.2341 4.34425C16.4589 5.33205 17.3788 6.64663 17.8873 8.13572C18.3958 9.62482 18.472 11.2275 18.1072 12.7581C17.7423 14.2888 16.9513 15.6847 15.8258 16.7843V16.7802ZM6.50577 14.4035C6.6638 14.5582 6.75389 14.7693 6.75624 14.9905C6.75858 15.2116 6.67298 15.4246 6.51827 15.5827C6.36356 15.7407 6.15241 15.8308 5.93128 15.8331C5.71014 15.8355 5.49713 15.7499 5.33911 15.5952C4.39324 14.6686 3.74469 13.4814 3.47611 12.1849C3.20754 10.8884 3.33112 9.54127 3.83109 8.31525C4.33107 7.08923 5.18479 6.03985 6.28344 5.30088C7.38208 4.56192 8.67589 4.16683 9.99994 4.16598C10.3186 4.16589 10.6369 4.18845 10.9524 4.23348C11.0608 4.24911 11.165 4.28592 11.2591 4.34183C11.3532 4.39774 11.4354 4.47165 11.501 4.55933C11.5665 4.64701 11.6142 4.74675 11.6411 4.85284C11.6681 4.95893 11.674 5.06931 11.6583 5.17765C11.6439 5.28659 11.6079 5.39156 11.5524 5.48639C11.4969 5.58122 11.423 5.66398 11.335 5.72983C11.247 5.79567 11.1468 5.84326 11.0402 5.86979C10.9335 5.89632 10.8227 5.90126 10.7141 5.88432C9.67118 5.73535 8.60784 5.91962 7.67585 6.41082C6.74386 6.90202 5.99083 7.67506 5.52424 8.61961C5.05764 9.56417 4.90132 10.632 5.07759 11.6706C5.25385 12.7093 5.75369 13.6657 6.50577 14.4035ZM16.5991 9.88015C16.6441 10.1957 16.6667 10.514 16.6666 10.8327C16.6693 11.7207 16.493 12.6002 16.1482 13.4186C15.8035 14.237 15.2973 14.9776 14.6599 15.596C14.5017 15.7507 14.2885 15.8362 14.0672 15.8337C13.8459 15.8312 13.6346 15.7409 13.4799 15.5827C13.3252 15.4244 13.2397 15.2112 13.2422 14.9899C13.2447 14.7686 13.335 14.5574 13.4933 14.4027C14.0563 13.8538 14.4815 13.1796 14.7341 12.435C14.9867 11.6904 15.0595 10.8966 14.9466 10.1185C14.915 9.89957 14.9717 9.67707 15.1041 9.49992C15.2365 9.32278 15.4339 9.20551 15.6529 9.1739C15.8718 9.1423 16.0943 9.19895 16.2714 9.3314C16.4486 9.46385 16.5658 9.66124 16.5974 9.88015H16.5991ZM11.6049 10.406C11.7052 10.7666 11.6833 11.1503 11.5425 11.4971C11.4017 11.8439 11.15 12.1344 10.8267 12.3231C10.5034 12.5117 10.1268 12.5881 9.75554 12.5401C9.38431 12.4921 9.03943 12.3225 8.77475 12.0578C8.51007 11.7932 8.3405 11.4483 8.29252 11.0771C8.24454 10.7058 8.32085 10.3292 8.50953 10.0059C8.69821 9.68261 8.98864 9.43092 9.33547 9.29013C9.68229 9.14934 10.066 9.12737 10.4266 9.22765L13.5774 6.07682C13.6543 5.99723 13.7463 5.93374 13.8479 5.89007C13.9496 5.84639 14.059 5.8234 14.1696 5.82244C14.2803 5.82148 14.39 5.84257 14.4924 5.88447C14.5948 5.92637 14.6879 5.98825 14.7661 6.06649C14.8443 6.14473 14.9062 6.23778 14.9481 6.34019C14.99 6.4426 15.0111 6.55234 15.0101 6.66299C15.0092 6.77364 14.9862 6.88299 14.9425 6.98466C14.8988 7.08633 14.8354 7.17828 14.7558 7.25515L11.6049 10.406Z" fill="#383A3E"/>
</g>
<defs>
<clipPath id="clip0">
<rect width="20" height="20" fill="white"/>
</clipPath>
</defs>
</svg>
