<svg width="20" height="20" viewBox="0 0 20 20" fill="none" xmlns="http://www.w3.org/2000/svg">
<g clip-path="url(#clip0)">
<path d="M19.1667 13.334C18.9457 13.334 18.7337 13.4218 18.5774 13.5781C18.4211 13.7343 18.3333 13.9463 18.3333 14.1673V17.5006C18.3333 17.7217 18.2455 17.9336 18.0893 18.0899C17.933 18.2462 17.721 18.334 17.5 18.334H2.5C2.27899 18.334 2.06702 18.2462 1.91074 18.0899C1.75446 17.9336 1.66667 17.7217 1.66667 17.5006V14.1673C1.66667 13.9463 1.57887 13.7343 1.42259 13.5781C1.26631 13.4218 1.05435 13.334 0.833333 13.334C0.61232 13.334 0.400358 13.4218 0.244078 13.5781C0.0877974 13.7343 0 13.9463 0 14.1673L0 17.5006C0 18.1637 0.263392 18.7996 0.732233 19.2684C1.20107 19.7373 1.83696 20.0006 2.5 20.0006H17.5C18.163 20.0006 18.7989 19.7373 19.2678 19.2684C19.7366 18.7996 20 18.1637 20 17.5006V14.1673C20 13.9463 19.9122 13.7343 19.7559 13.5781C19.5996 13.4218 19.3877 13.334 19.1667 13.334Z" fill="#383A3E"/>
<path d="M4.41078 11.2817L8.23245 15.1042C8.70202 15.5714 9.33751 15.8337 9.99995 15.8337C10.6624 15.8337 11.2979 15.5714 11.7674 15.1042L15.5891 11.2825C15.6687 11.2056 15.7322 11.1137 15.7759 11.012C15.8195 10.9103 15.8425 10.801 15.8435 10.6903C15.8444 10.5797 15.8234 10.47 15.7815 10.3675C15.7396 10.2651 15.6777 10.1721 15.5994 10.0938C15.5212 10.0156 15.4282 9.95372 15.3257 9.91181C15.2233 9.86991 15.1136 9.84883 15.0029 9.84979C14.8923 9.85075 14.7829 9.87374 14.6813 9.91741C14.5796 9.96109 14.4876 10.0246 14.4108 10.1042L10.8333 13.68V0.833333C10.8333 0.61232 10.7455 0.400358 10.5892 0.244078C10.4329 0.0877974 10.221 0 9.99995 0C9.77893 0 9.56697 0.0877974 9.41069 0.244078C9.25441 0.400358 9.16661 0.61232 9.16661 0.833333V13.6808L5.58911 10.1033C5.51224 10.0237 5.42029 9.96026 5.31862 9.91658C5.21695 9.87291 5.1076 9.84992 4.99695 9.84896C4.8863 9.848 4.77656 9.86908 4.67415 9.91098C4.57174 9.95288 4.47869 10.0148 4.40045 10.093C4.32221 10.1712 4.26033 10.2643 4.21843 10.3667C4.17653 10.4691 4.15544 10.5789 4.1564 10.6895C4.15737 10.8001 4.18035 10.9095 4.22403 11.0112C4.2677 11.1128 4.33119 11.2048 4.41078 11.2817Z" fill="#383A3E"/>
</g>
<defs>
<clipPath id="clip0">
<rect width="20" height="20" fill="white"/>
</clipPath>
</defs>
</svg>
