<svg width="63" height="51" viewBox="0 0 63 51" fill="none" xmlns="http://www.w3.org/2000/svg">
<g clip-path="url(#clip0)">
<path d="M27.2363 20.2485C26.2533 19.5517 25.513 18.1837 24.6149 17.2619C24.0405 16.0953 19.2734 12.0663 20.671 11.2373C22.2857 10.0391 24.5359 9.58504 26.5237 9.84363C29.2951 10.3944 33.0554 11.792 33.4542 14.9918C34.1825 18.8628 29.6543 18.9023 27.2363 20.2485Z" fill="#383A3E"/>
<path d="M44.6918 22.6684C47.3013 25.2484 46.4742 29.8656 42.4415 30.1558C41.3558 30.5802 40.1853 30.4716 39.0483 30.6098C37.558 30.7342 35.8367 31.052 34.8478 29.6287C33.01 27.335 31.1012 25.0945 29.222 22.8303C28.9753 22.248 30.5959 21.7505 31.0854 21.6597C33.0278 20.8188 35.2445 20.2029 37.3724 20.0371C39.978 20.2029 42.7909 20.7872 44.6918 22.6684Z" fill="#383A3E"/>
<path d="M62.323 25.3749C60.1497 15.88 52.3605 8.14987 42.8719 3.81104C29.7156 -2.20173 13.2945 -1.69442 4.04264 9.66984C3.08726 11.478 0.205322 14.1903 0.965285 15.7478C1.72525 17.3033 -0.224995 19.9918 0.0217462 21.4407C0.148078 22.181 1.28506 22.6883 1.78249 22.8877C3.25702 23.4779 1.46469 28.2431 2.26808 29.2301C3.0695 30.2191 5.20924 29.1788 6.05408 30.7935C6.9009 32.4063 5.63758 35.3061 6.95222 36.6503C8.26686 37.9946 11.7054 36.1647 12.5365 37.1182C14.5045 39.3764 11.6146 43.8751 16.5771 43.1388C22.9509 40.1601 20.5131 47.2803 23.403 47.8942C25.4855 48.3383 26.9442 46.1255 29.1826 46.3861C31.3184 46.6328 32.0922 50.3301 33.4838 50.5689C34.8755 50.8098 36.1565 49.9748 38.1364 48.7272C40.0373 47.531 42.2165 51.5421 43.9161 50.9401C45.6136 50.338 47.6389 48.7548 48.4186 48.2337C49.9326 47.2211 50.8998 48.3048 52.1928 47.8685C53.1402 47.5487 54.4944 45.7346 55.203 45.0852C56.8789 43.5475 58.4501 45.099 60.7142 39.4909C63.6494 35.4245 63.2389 29.996 62.323 25.3749ZM41.4546 33.5058C38.8115 33.7565 36.0657 34.2579 33.926 35.9101C32.8936 36.7944 32.8324 38.3164 32.6864 39.5837C32.7081 40.0772 32.2284 40.4068 31.8968 39.9193C30.4519 38.7882 28.8964 37.7222 27.9489 36.1075C26.2059 34.1217 28.5687 32.6333 30.3571 31.9937C31.2691 31.5673 31.7724 31.6028 30.8131 30.6494C26.3264 25.4933 22.1791 20.0017 17.6154 14.9562C17.339 14.7114 17.1693 14.745 17.0469 15.0865C16.5909 15.7912 16.1152 16.4564 16.0145 17.3191C15.8112 19.599 14.9881 18.0297 14.159 17.1256C13.8491 16.2195 12.9786 15.4023 13.4149 14.3877C13.8393 13.2704 14.3525 12.1689 15.3079 11.4109C18.097 8.7322 21.9126 7.74915 25.6118 7.18656C28.4957 7.17867 31.7112 7.8518 34.0958 9.53166C36.4368 11.1622 39.3602 14.0047 37.8442 17.0999C41.2157 16.6913 46.1407 17.781 48.6732 20.0886C50.7597 21.6539 52.856 23.9517 52.8698 26.7074C52.4948 32.7616 46.3104 33.5117 41.4546 33.5058Z" fill="#383A3E"/>
</g>
<defs>
<clipPath id="clip0">
<rect width="63" height="51" fill="white"/>
</clipPath>
</defs>
</svg>
