<svg width="27" height="22" viewBox="0 0 27 22" fill="none" xmlns="http://www.w3.org/2000/svg">
<g clip-path="url(#clip0)">
<path d="M11.6727 8.73546C11.2514 8.43488 10.9342 7.84477 10.5493 7.44711C10.3031 6.94386 8.26008 5.20589 8.85903 4.84825C9.55103 4.33138 10.5154 4.13553 11.3673 4.24708C12.5551 4.48465 14.1666 5.08753 14.3375 6.46785C14.6497 8.13769 12.709 8.15472 11.6727 8.73546Z" fill="#626468"/>
<path d="M19.1536 9.77961C20.272 10.8926 19.9175 12.8843 18.1892 13.0094C17.7239 13.1925 17.2223 13.1457 16.735 13.2053C16.0963 13.2589 15.3586 13.396 14.9348 12.7821C14.1472 11.7926 13.3291 10.8261 12.5238 9.84944C12.418 9.59824 13.1126 9.38366 13.3224 9.34448C14.1548 8.98174 15.1048 8.71606 16.0168 8.64453C17.1335 8.71606 18.339 8.96811 19.1536 9.77961Z" fill="#626468"/>
<path d="M26.7098 10.9472C25.7784 6.85131 22.4402 3.51674 18.3737 1.64509C12.7353 -0.948657 5.69763 -0.729815 1.73256 4.17242C1.32311 4.95241 0.0879951 6.12241 0.413694 6.79426C0.739392 7.46526 -0.0964265 8.62504 0.0093198 9.25006C0.0634619 9.56938 0.550741 9.78822 0.763926 9.87423C1.39587 10.1288 0.627724 12.1844 0.972034 12.6102C1.3155 13.0368 2.23253 12.588 2.59461 13.2846C2.95753 13.9803 2.41611 15.2312 2.97952 15.8111C3.54294 16.391 5.01662 15.6016 5.37277 16.0129C6.21621 16.987 4.97771 18.9276 7.10448 18.61C9.83612 17.3251 8.79134 20.3965 10.0298 20.6614C10.9223 20.8529 11.5475 19.8984 12.5068 20.0108C13.4222 20.1172 13.7538 21.7121 14.3502 21.8152C14.9466 21.9191 15.4957 21.5589 16.3442 21.0207C17.1588 20.5047 18.0928 22.235 18.8212 21.9753C19.5487 21.7155 20.4167 21.0326 20.7508 20.8078C21.3997 20.371 21.8142 20.8385 22.3683 20.6503C22.7744 20.5123 23.3547 19.7298 23.6584 19.4496C24.3767 18.7863 25.05 19.4556 26.0204 17.0364C27.2783 15.2823 27.1024 12.9406 26.7098 10.9472ZM17.7662 14.4546C16.6335 14.5627 15.4567 14.779 14.5397 15.4917C14.0973 15.8732 14.071 16.5298 14.0084 17.0764C14.0177 17.2893 13.8122 17.4315 13.6701 17.2212C13.0508 16.7333 12.3842 16.2734 11.9781 15.5769C11.2311 14.7203 12.2437 14.0782 13.0102 13.8023C13.401 13.6184 13.6168 13.6337 13.2056 13.2224C11.2827 10.9982 9.50534 8.6293 7.54946 6.4528C7.43102 6.34721 7.35827 6.36169 7.30582 6.509C7.1104 6.81299 6.90652 7.09996 6.86337 7.47208C6.77624 8.45559 6.42347 7.77862 6.06816 7.38863C5.93534 6.99778 5.56227 6.64524 5.74923 6.20756C5.93111 5.7256 6.15107 5.25045 6.56052 4.92346C7.75587 3.76794 9.39113 3.34388 10.9765 3.1012C12.2124 3.09779 13.5905 3.38816 14.6125 4.11281C15.6158 4.81617 16.8687 6.04236 16.219 7.37756C17.6639 7.20129 19.7746 7.67133 20.86 8.66677C21.7542 9.34202 22.6526 10.3332 22.6585 11.5219C22.4978 14.1336 19.8473 14.4571 17.7662 14.4546Z" fill="#626468"/>
</g>
<defs>
<clipPath id="clip0">
<rect width="27" height="22" fill="white"/>
</clipPath>
</defs>
</svg>
