<svg width="20" height="20" viewBox="0 0 20 20" fill="none" xmlns="http://www.w3.org/2000/svg">
<g clip-path="url(#clip0)">
<path d="M19.2675 7.55922L12.9467 1.23755C12.1644 0.457544 11.1047 0.0195312 10 0.0195312C8.89529 0.0195312 7.83564 0.457544 7.05334 1.23755L0.73251 7.55922C0.499531 7.79071 0.314818 8.06613 0.189079 8.36954C0.0633394 8.67295 -0.000925334 8.99829 1.00662e-05 9.32672V17.5076C1.00662e-05 18.1706 0.263402 18.8065 0.732243 19.2753C1.20108 19.7442 1.83697 20.0075 2.50001 20.0075H17.5C18.163 20.0075 18.7989 19.7442 19.2678 19.2753C19.7366 18.8065 20 18.1706 20 17.5076V9.32672C20.0009 8.99829 19.9367 8.67295 19.8109 8.36954C19.6852 8.06613 19.5005 7.79071 19.2675 7.55922V7.55922ZM12.5 18.3409H7.50001V15.0626C7.50001 14.3995 7.7634 13.7636 8.23224 13.2948C8.70108 12.8259 9.33697 12.5626 10 12.5626C10.6631 12.5626 11.2989 12.8259 11.7678 13.2948C12.2366 13.7636 12.5 14.3995 12.5 15.0626V18.3409ZM18.3333 17.5076C18.3333 17.7286 18.2455 17.9405 18.0893 18.0968C17.933 18.2531 17.721 18.3409 17.5 18.3409H14.1667V15.0626C14.1667 13.9575 13.7277 12.8977 12.9463 12.1163C12.1649 11.3349 11.1051 10.8959 10 10.8959C8.89494 10.8959 7.83513 11.3349 7.05373 12.1163C6.27233 12.8977 5.83334 13.9575 5.83334 15.0626V18.3409H2.50001C2.279 18.3409 2.06703 18.2531 1.91075 18.0968C1.75447 17.9405 1.66668 17.7286 1.66668 17.5076V9.32672C1.66745 9.10587 1.75517 8.89421 1.91084 8.73755L8.23168 2.41839C8.70143 1.95083 9.33723 1.68834 10 1.68834C10.6628 1.68834 11.2986 1.95083 11.7683 2.41839L18.0892 8.74005C18.2442 8.89609 18.3319 9.10673 18.3333 9.32672V17.5076Z" fill="#CFCFCF"/>
</g>
<defs>
<clipPath id="clip0">
<rect width="20" height="20" fill="white"/>
</clipPath>
</defs>
</svg>
