<svg width="23" height="27" viewBox="0 0 23 27" fill="none" xmlns="http://www.w3.org/2000/svg">
<g clip-path="url(#clip0)">
<path d="M11.5051 7.43501C8.2399 7.43501 5.60619 10.1403 5.60619 13.4942C5.60619 16.8481 8.2399 19.5534 11.5051 19.5534C14.7703 19.5534 17.404 16.8481 17.404 13.4942C17.404 10.1403 14.7703 7.43501 11.5051 7.43501ZM11.5051 17.4334C9.39503 17.4334 7.67003 15.6668 7.67003 13.4942C7.67003 11.3215 9.3899 9.55493 11.5051 9.55493C13.6203 9.55493 15.3401 11.3215 15.3401 13.4942C15.3401 15.6668 13.6151 17.4334 11.5051 17.4334ZM19.0212 7.18716C19.0212 7.9729 18.4051 8.60044 17.6453 8.60044C16.8803 8.60044 16.2694 7.96763 16.2694 7.18716C16.2694 6.40669 16.8854 5.77388 17.6453 5.77388C18.4051 5.77388 19.0212 6.40669 19.0212 7.18716ZM22.9281 8.62153C22.8408 6.72837 22.4198 5.05142 21.0696 3.66978C19.7245 2.28813 18.0919 1.85571 16.2488 1.76079C14.3493 1.65005 8.65575 1.65005 6.7562 1.76079C4.91825 1.85044 3.28566 2.28286 1.93544 3.6645C0.585212 5.04614 0.169364 6.7231 0.0769531 8.61626C-0.0308594 10.5674 -0.0308594 16.4157 0.0769531 18.3668C0.16423 20.26 0.585212 21.937 1.93544 23.3186C3.28566 24.7002 4.91311 25.1327 6.7562 25.2276C8.65575 25.3383 14.3493 25.3383 16.2488 25.2276C18.0919 25.1379 19.7245 24.7055 21.0696 23.3186C22.4147 21.937 22.8357 20.26 22.9281 18.3668C23.0359 16.4157 23.0359 10.5727 22.9281 8.62153ZM20.4741 20.4604C20.0736 21.494 19.2984 22.2903 18.287 22.7069C16.7725 23.3239 13.1787 23.1815 11.5051 23.1815C9.83142 23.1815 6.23253 23.3186 4.72316 22.7069C3.71691 22.2956 2.94169 21.4993 2.53611 20.4604C1.93544 18.9047 2.07405 15.2133 2.07405 13.4942C2.07405 11.775 1.94057 8.07837 2.53611 6.52798C2.93655 5.49438 3.71177 4.6981 4.72316 4.28149C6.23767 3.6645 9.83142 3.80688 11.5051 3.80688C13.1787 3.80688 16.7776 3.66978 18.287 4.28149C19.2933 4.69282 20.0685 5.48911 20.4741 6.52798C21.0747 8.08364 20.9361 11.775 20.9361 13.4942C20.9361 15.2133 21.0747 18.91 20.4741 20.4604Z" fill="#AF9D8B"/>
</g>
<defs>
<clipPath id="clip0">
<rect width="23" height="27" fill="white"/>
</clipPath>
</defs>
</svg>
