<svg width="20" height="20" viewBox="0 0 20 20" fill="none" xmlns="http://www.w3.org/2000/svg">
<g clip-path="url(#clip0)">
<path d="M15.8333 7.02V5.83333C15.8333 4.28624 15.2187 2.80251 14.1247 1.70854C13.0308 0.614582 11.5471 0 9.99996 0C8.45286 0 6.96913 0.614582 5.87517 1.70854C4.78121 2.80251 4.16663 4.28624 4.16663 5.83333V7.02C3.42443 7.34392 2.7927 7.8771 2.34871 8.55434C1.90471 9.23158 1.66769 10.0235 1.66663 10.8333V15.8333C1.66795 16.938 2.10736 17.997 2.88848 18.7782C3.66959 19.5593 4.72863 19.9987 5.83329 20H14.1666C15.2713 19.9987 16.3303 19.5593 17.1114 18.7782C17.8926 17.997 18.332 16.938 18.3333 15.8333V10.8333C18.3322 10.0235 18.0952 9.23158 17.6512 8.55434C17.2072 7.8771 16.5755 7.34392 15.8333 7.02ZM5.83329 5.83333C5.83329 4.72826 6.27228 3.66846 7.05368 2.88705C7.83508 2.10565 8.89489 1.66667 9.99996 1.66667C11.105 1.66667 12.1648 2.10565 12.9462 2.88705C13.7276 3.66846 14.1666 4.72826 14.1666 5.83333V6.66667H5.83329V5.83333ZM16.6666 15.8333C16.6666 16.4964 16.4032 17.1323 15.9344 17.6011C15.4656 18.0699 14.8297 18.3333 14.1666 18.3333H5.83329C5.17025 18.3333 4.53437 18.0699 4.06553 17.6011C3.59668 17.1323 3.33329 16.4964 3.33329 15.8333V10.8333C3.33329 10.1703 3.59668 9.53441 4.06553 9.06557C4.53437 8.59672 5.17025 8.33333 5.83329 8.33333H14.1666C14.8297 8.33333 15.4656 8.59672 15.9344 9.06557C16.4032 9.53441 16.6666 10.1703 16.6666 10.8333V15.8333Z" fill="#383A3E"/>
<path d="M9.99996 11.666C9.77895 11.666 9.56698 11.7538 9.4107 11.9101C9.25442 12.0664 9.16663 12.2783 9.16663 12.4993V14.166C9.16663 14.387 9.25442 14.599 9.4107 14.7553C9.56698 14.9116 9.77895 14.9994 9.99996 14.9994C10.221 14.9994 10.4329 14.9116 10.5892 14.7553C10.7455 14.599 10.8333 14.387 10.8333 14.166V12.4993C10.8333 12.2783 10.7455 12.0664 10.5892 11.9101C10.4329 11.7538 10.221 11.666 9.99996 11.666Z" fill="#383A3E"/>
</g>
<defs>
<clipPath id="clip0">
<rect width="20" height="20" fill="white"/>
</clipPath>
</defs>
</svg>
