<svg width="99" height="63" viewBox="0 0 99 63" fill="none" xmlns="http://www.w3.org/2000/svg">
<path d="M48.6122 37.0985C56.7426 37.7871 64.0857 38.6744 71.7 45.1046C72.3817 45.6801 70.9584 45.4011 70.6623 45.0885C62.1535 40.2246 49.6915 38.0492 40.037 39.8775C36.3439 40.5773 33.77 41.6618 30.7889 43.0926C37.1415 41.9865 43.2125 42.4466 49.4843 43.8325C53.3999 44.739 57.4347 46.032 60.9214 48.1449C63.124 49.5412 61.8599 49.51 60.1381 48.7822C47.0529 44.8433 30.7497 41.4021 18.8614 50.1216C23.081 50.3099 26.6229 52.8469 30.5177 54.2064C42.5244 58.6903 56.0985 59.5448 67.7108 53.5394C68.9574 53.2525 70.0095 52.584 71.0752 51.9227C77.2902 48.0672 83.6132 43.8966 90.2834 41.148C88.5752 40.4883 82.6347 39.0135 84.8205 36.3875C85.0101 36.1887 85.2213 36.0709 85.5317 36.1591C86.9679 36.442 88.3672 36.8813 89.7297 37.4207C92.7092 38.5998 95.9927 39.1064 98.8994 40.5348C99.0282 40.5982 99.0346 40.7801 98.9098 40.8506C95.1951 42.9411 90.9547 44.6372 87.2935 46.9057C84.8341 48.286 82.3906 49.7352 80.1392 51.4401C76.9981 53.6541 73.425 55.1233 70.1431 57.1128C61.0342 61.6401 50.566 63.0244 40.5315 61.4942C32.0939 60.9042 24.6131 55.7365 17.1156 53.2613C15.0402 52.576 12.2464 53.0745 14.5906 50.0013C21.416 42.158 32.6315 37.5017 42.3788 34.3804C47.0417 32.8871 51.7613 31.9605 56.6002 31.603C59.1156 31.417 80.392 30.5513 76.006 35.8473C75.6652 36.1366 75.2524 36.1214 74.8627 36.0477C66.1491 35.0537 57.1618 35.0425 48.6122 37.0985Z" fill="white"/>
<path d="M48.6122 37.0985C56.7426 37.7871 64.0857 38.6744 71.7 45.1046C72.3817 45.6801 70.9584 45.4011 70.6623 45.0885C62.1535 40.2246 49.6915 38.0492 40.037 39.8775C36.3439 40.5773 33.77 41.6618 30.7889 43.0926C37.1415 41.9865 43.2125 42.4466 49.4843 43.8325C53.3999 44.739 57.4347 46.032 60.9214 48.1449C63.124 49.5412 61.8599 49.51 60.1381 48.7822C47.0529 44.8433 30.7497 41.4021 18.8614 50.1216C23.081 50.3099 26.6229 52.8469 30.5177 54.2064C42.5244 58.6903 56.0985 59.5448 67.7108 53.5394C68.9574 53.2525 70.0095 52.584 71.0752 51.9227C77.2902 48.0672 83.6132 43.8966 90.2834 41.148C88.5752 40.4883 82.6347 39.0135 84.8205 36.3875C85.0101 36.1887 85.2213 36.0709 85.5317 36.1591C86.9679 36.442 88.3672 36.8813 89.7297 37.4207C92.7092 38.5998 95.9927 39.1064 98.8994 40.5348C99.0282 40.5982 99.0346 40.7801 98.9098 40.8506C95.1951 42.9411 90.9547 44.6372 87.2935 46.9057C84.8341 48.286 82.3906 49.7352 80.1392 51.4401C76.9981 53.6541 73.425 55.1233 70.1431 57.1128C61.0342 61.6401 50.566 63.0244 40.5315 61.4942C32.0939 60.9042 24.6131 55.7365 17.1156 53.2613C15.0402 52.576 12.2464 53.0745 14.5906 50.0013C21.416 42.158 32.6315 37.5017 42.3788 34.3804C47.0417 32.8871 51.7613 31.9605 56.6002 31.603C59.1156 31.417 80.392 30.5513 76.006 35.8473C75.6652 36.1366 75.2524 36.1214 74.8627 36.0477C66.1491 35.0537 57.1618 35.0425 48.6122 37.0985Z" fill="white"/>
<path d="M44.5097 2.90597C48.6405 2.11322 54.121 1.88958 59.3591 2.29277C68.1367 2.96929 73.3532 5.53671 77.1672 7.77308C78.9618 8.82554 79.7106 10.2419 78.3473 9.47721C77.1136 8.78546 75.8703 8.2436 74.5205 7.74583C70.577 6.29018 66.5638 5.18803 62.3026 4.75518C55.75 4.08988 51.5304 4.56361 48.4701 4.83855C46.6779 4.99966 44.0072 5.29464 43.7696 6.65329C42.7999 12.2025 42.3863 17.6796 42.5615 23.3275C42.5911 24.2749 42.6759 30.556 44.0336 29.2094C45.6162 27.6399 45.4338 23.4549 45.4482 21.6145C45.4634 19.7333 45.4538 18.1935 45.5746 16.5831C45.6714 15.3006 45.5058 14.1744 46.6147 13.2919C49.5246 10.7068 48.5981 14.6826 48.5485 16.6689C48.5117 18.1269 47.8708 31.3247 51.3135 26.9265C52.1176 25.8989 52.9225 24.1731 52.8593 23.3483C52.7105 21.4117 51.8512 14.5688 51.2311 12.7196C50.6999 11.0587 53.8754 12.556 54.1522 13.2374C55.5187 16.6039 55.7772 22.8073 56.1004 26.9089C56.1356 27.3546 56.4332 27.4972 56.5284 26.8576C56.7053 25.6665 56.9845 24.6509 57.1221 23.9527C57.2565 23.2706 58.3678 17.0472 59.4239 13.6959C59.9272 12.2811 61.3209 11.3256 62.813 11.3393C63.2731 11.3433 63.3875 11.498 63.2531 11.9324C61.8001 15.2557 61.1665 18.8083 60.3336 22.3063C59.9544 23.8862 59.6079 25.4797 58.8687 26.9506C57.9894 28.9537 54.6771 30.4286 53.7242 27.4083C53.5057 26.7269 53.4185 26.4095 53.1961 25.7282C53.0057 26.2444 52.1976 27.8002 51.756 28.3533C49.9046 30.6682 47.3004 30.7925 45.9794 27.9357C45.1145 31.4658 41.4678 34.3835 40.0717 29.5709C39.5812 30.5264 39.286 31.4586 38.6467 32.2898C37.8251 33.3751 36.4633 33.3214 35.6576 32.3114C35.1568 31.6838 34.9968 31.1444 34.7216 30.354C33.279 38.1188 27.3265 37.3645 26.9224 29.5957C26.6928 25.1895 26.7824 19.2243 30.9924 16.721C31.9269 16.3138 32.9438 16.4188 33.559 17.3462C33.7063 17.5682 33.8135 17.8344 34.0199 18.0612C34.6151 16.9719 35.296 15.7463 36.5225 15.3046C37.0074 15.1523 37.1682 15.283 37.0762 15.792C36.4265 19.403 36.6625 22.4842 36.8954 26.5843C36.9514 27.5702 37.3122 32.2193 38.6787 30.144C39.3988 29.0499 39.6596 27.7978 39.5724 26.4552C39.4724 24.9194 39.5052 21.5576 39.5652 20.0916C39.8452 15.2453 40.0397 12.1617 40.6445 7.34344C40.7189 5.93108 35.0288 8.73416 34.0791 9.1622C33.183 9.62951 30.6076 11.1381 29.7699 11.704C29.6195 11.8058 29.4531 11.9404 29.2826 11.7312C30.5556 8.27647 37.7538 5.37079 41.143 4.01213C41.3998 3.90953 41.4254 3.78849 41.4694 3.5865C41.847 1.87195 43.1448 0.958162 44.5713 0.196673C45.3786 -0.23457 45.4738 0.0828508 45.1938 0.764984C44.9313 1.40864 44.7513 2.18937 44.5097 2.90597ZM33.8911 26.0464C33.8247 24.5827 34.4815 17.8873 31.6469 19.5553C29.3194 22.1901 29.1746 28.8864 30.7708 31.9259C32.2733 33.5451 33.6239 30.7276 33.7479 29.3937C33.9071 28.2804 33.8775 27.1614 33.8911 26.0464Z" fill="white"/>
<path d="M44.5097 2.90597C48.6405 2.11322 54.121 1.88958 59.3591 2.29277C68.1367 2.96929 73.3532 5.53671 77.1672 7.77308C78.9618 8.82554 79.7106 10.2419 78.3473 9.47721C77.1136 8.78546 75.8703 8.2436 74.5205 7.74583C70.577 6.29018 66.5638 5.18803 62.3026 4.75518C55.75 4.08988 51.5304 4.56361 48.4701 4.83855C46.6779 4.99966 44.0072 5.29464 43.7696 6.65329C42.7999 12.2025 42.3863 17.6796 42.5615 23.3275C42.5911 24.2749 42.6759 30.556 44.0336 29.2094C45.6162 27.6399 45.4338 23.4549 45.4482 21.6145C45.4634 19.7333 45.4538 18.1935 45.5746 16.5831C45.6714 15.3006 45.5058 14.1744 46.6147 13.2919C49.5246 10.7068 48.5981 14.6826 48.5485 16.6689C48.5117 18.1269 47.8708 31.3247 51.3135 26.9265C52.1176 25.8989 52.9225 24.1731 52.8593 23.3483C52.7105 21.4117 51.8512 14.5688 51.2311 12.7196C50.6999 11.0587 53.8754 12.556 54.1522 13.2374C55.5187 16.6039 55.7772 22.8073 56.1004 26.9089C56.1356 27.3546 56.4332 27.4972 56.5284 26.8576C56.7053 25.6665 56.9845 24.6509 57.1221 23.9527C57.2565 23.2706 58.3678 17.0472 59.4239 13.6959C59.9272 12.2811 61.3209 11.3256 62.813 11.3393C63.2731 11.3433 63.3875 11.498 63.2531 11.9324C61.8001 15.2557 61.1665 18.8083 60.3336 22.3063C59.9544 23.8862 59.6079 25.4797 58.8687 26.9506C57.9894 28.9537 54.6771 30.4286 53.7242 27.4083C53.5057 26.7269 53.4185 26.4095 53.1961 25.7282C53.0057 26.2444 52.1976 27.8002 51.756 28.3533C49.9046 30.6682 47.3004 30.7925 45.9794 27.9357C45.1145 31.4658 41.4678 34.3835 40.0717 29.5709C39.5812 30.5264 39.286 31.4586 38.6467 32.2898C37.8251 33.3751 36.4633 33.3214 35.6576 32.3114C35.1568 31.6838 34.9968 31.1444 34.7216 30.354C33.279 38.1188 27.3265 37.3645 26.9224 29.5957C26.6928 25.1895 26.7824 19.2243 30.9924 16.721C31.9269 16.3138 32.9438 16.4188 33.559 17.3462C33.7063 17.5682 33.8135 17.8344 34.0199 18.0612C34.6151 16.9719 35.296 15.7463 36.5225 15.3046C37.0074 15.1523 37.1682 15.283 37.0762 15.792C36.4265 19.403 36.6625 22.4842 36.8954 26.5843C36.9514 27.5702 37.3122 32.2193 38.6787 30.144C39.3988 29.0499 39.6596 27.7978 39.5724 26.4552C39.4724 24.9194 39.5052 21.5576 39.5652 20.0916C39.8452 15.2453 40.0397 12.1617 40.6445 7.34344C40.7189 5.93108 35.0288 8.73416 34.0791 9.1622C33.183 9.62951 30.6076 11.1381 29.7699 11.704C29.6195 11.8058 29.4531 11.9404 29.2826 11.7312C30.5556 8.27647 37.7538 5.37079 41.143 4.01213C41.3998 3.90953 41.4254 3.78849 41.4694 3.5865C41.847 1.87195 43.1448 0.958162 44.5713 0.196673C45.3786 -0.23457 45.4738 0.0828508 45.1938 0.764984C44.9313 1.40864 44.7513 2.18937 44.5097 2.90597ZM33.8911 26.0464C33.8247 24.5827 34.4815 17.8873 31.6469 19.5553C29.3194 22.1901 29.1746 28.8864 30.7708 31.9259C32.2733 33.5451 33.6239 30.7276 33.7479 29.3937C33.9071 28.2804 33.8775 27.1614 33.8911 26.0464Z" fill="white"/>
<path d="M16.3046 25.5353C14.1147 32.2436 18.3015 39.614 14.6588 46.1324C12.9434 49.41 11.0216 52.7389 8.411 55.2486C6.50922 57.077 3.2145 56.8036 1.20231 55.1949C0.629458 54.6322 -0.167418 53.8803 0.0310011 53.0283C0.315028 51.8091 0.708666 50.4568 1.63115 49.5895C2.38002 48.8858 2.66645 49.0509 2.89607 49.9615C4.16819 55.0057 9.39349 53.3176 10.896 49.5126C12.5714 45.2707 12.2546 40.5102 12.4922 35.987C12.777 30.5563 13.4771 25.3894 15.7789 20.6025C16.5126 19.0771 17.2254 17.5309 18.2687 16.3181C18.6648 15.858 18.7384 15.7145 19.3064 15.7682C20.1905 15.8147 19.5161 17.2159 19.5441 17.7681C18.5792 23.638 19.34 33.5766 22.3763 38.7203C22.4515 38.8477 22.6316 38.8662 22.7244 38.7516C23.1812 38.1873 23.1004 36.6619 23.018 35.9902C22.5595 32.2396 21.4426 28.5668 21.6099 24.7482C21.5683 20.2819 22.4699 15.4853 26.2983 12.6998C27.5048 11.9175 28.2233 12.2734 27.24 13.6128C25.243 16.8776 25.0278 20.6538 24.9766 24.3666C24.5285 28.5163 27.5592 42.5277 20.1257 40.4869C17.5119 39.7695 16.3286 28.259 16.3046 25.5353Z" fill="white"/>
<path d="M16.3046 25.5353C14.1147 32.2436 18.3015 39.614 14.6588 46.1324C12.9434 49.41 11.0216 52.7389 8.411 55.2486C6.50922 57.077 3.2145 56.8036 1.20231 55.1949C0.629458 54.6322 -0.167418 53.8803 0.0310011 53.0283C0.315028 51.8091 0.708666 50.4568 1.63115 49.5895C2.38002 48.8858 2.66645 49.0509 2.89607 49.9615C4.16819 55.0057 9.39349 53.3176 10.896 49.5126C12.5714 45.2707 12.2546 40.5102 12.4922 35.987C12.777 30.5563 13.4771 25.3894 15.7789 20.6025C16.5126 19.0771 17.2254 17.5309 18.2687 16.3181C18.6648 15.858 18.7384 15.7145 19.3064 15.7682C20.1905 15.8147 19.5161 17.2159 19.5441 17.7681C18.5792 23.638 19.34 33.5766 22.3763 38.7203C22.4515 38.8477 22.6316 38.8662 22.7244 38.7516C23.1812 38.1873 23.1004 36.6619 23.018 35.9902C22.5595 32.2396 21.4426 28.5668 21.6099 24.7482C21.5683 20.2819 22.4699 15.4853 26.2983 12.6998C27.5048 11.9175 28.2233 12.2734 27.24 13.6128C25.243 16.8776 25.0278 20.6538 24.9766 24.3666C24.5285 28.5163 27.5592 42.5277 20.1257 40.4869C17.5119 39.7695 16.3286 28.259 16.3046 25.5353Z" fill="white"/>
<path d="M74.7376 28.6821C73.5871 29.6721 71.9997 30.448 70.6868 29.014C69.8427 28.0922 69.7443 26.9932 69.5043 25.8606C68.4722 27.8733 66.8728 29.8829 64.5238 29.0284C62.4964 28.291 62.2972 25.6554 62.158 23.8222C62.0748 20.2344 63.2149 13.1678 67.3377 12.2043C68.573 11.7578 70.1323 12.5081 70.5676 13.8555C70.8252 14.6539 70.8524 14.5609 71.3117 13.8163C71.9341 12.8055 74.3239 11.5398 73.9311 12.8175C73.3422 14.7293 70.8244 28.323 73.3831 28.2028C74.0679 28.1707 74.4592 27.4453 74.4672 26.8465C74.4896 25.2105 74.6904 22.4668 74.9328 20.8556C75.3272 18.2361 75.2112 15.4523 77.3994 14.4463C78.3931 13.9902 78.6988 14.0006 78.5619 15.0202C78.3771 16.3933 78.1771 17.655 77.9659 19.1587C77.5554 22.0788 76.689 26.0666 77.8075 28.0537C78.8004 29.8171 80.2765 27.9743 80.4821 26.7536C80.8894 24.3376 80.9494 21.036 81.431 18.6281C81.7214 17.4393 82.7359 16.5929 83.9409 16.5192C84.4721 16.4863 84.5865 16.5745 84.5153 17.0859C84.0473 20.5478 83.4296 23.9857 82.9304 27.4429C81.9407 32.1056 82.6055 41.8519 76.7314 43.164C75.9833 43.3308 75.0384 43.2747 74.2975 42.4907C73.8999 42.0691 75.068 41.803 75.4616 41.5417C79.3748 38.9422 79.7053 33.4811 80.3837 29.1943C78.0587 31.5918 76.4313 31.8499 74.7376 28.6821ZM70.1844 17.4514C70.4796 12.0817 66.316 14.601 65.5103 18.5399C65.1143 20.4741 64.9222 22.0772 65.1623 24.3849C65.3047 25.754 66.3376 27.4261 67.4201 26.6261C69.5939 25.0198 70.0147 20.5438 70.1844 17.4514Z" fill="white"/>
<path d="M74.7376 28.6821C73.5871 29.6721 71.9997 30.448 70.6868 29.014C69.8427 28.0922 69.7443 26.9932 69.5043 25.8606C68.4722 27.8733 66.8728 29.8829 64.5238 29.0284C62.4964 28.291 62.2972 25.6554 62.158 23.8222C62.0748 20.2344 63.2149 13.1678 67.3377 12.2043C68.573 11.7578 70.1323 12.5081 70.5676 13.8555C70.8252 14.6539 70.8524 14.5609 71.3117 13.8163C71.9341 12.8055 74.3239 11.5398 73.9311 12.8175C73.3422 14.7293 70.8244 28.323 73.3831 28.2028C74.0679 28.1707 74.4592 27.4453 74.4672 26.8465C74.4896 25.2105 74.6904 22.4668 74.9328 20.8556C75.3272 18.2361 75.2112 15.4523 77.3994 14.4463C78.3931 13.9902 78.6988 14.0006 78.5619 15.0202C78.3771 16.3933 78.1771 17.655 77.9659 19.1587C77.5554 22.0788 76.689 26.0666 77.8075 28.0537C78.8004 29.8171 80.2765 27.9743 80.4821 26.7536C80.8894 24.3376 80.9494 21.036 81.431 18.6281C81.7214 17.4393 82.7359 16.5929 83.9409 16.5192C84.4721 16.4863 84.5865 16.5745 84.5153 17.0859C84.0473 20.5478 83.4296 23.9857 82.9304 27.4429C81.9407 32.1056 82.6055 41.8519 76.7314 43.164C75.9833 43.3308 75.0384 43.2747 74.2975 42.4907C73.8999 42.0691 75.068 41.803 75.4616 41.5417C79.3748 38.9422 79.7053 33.4811 80.3837 29.1943C78.0587 31.5918 76.4313 31.8499 74.7376 28.6821ZM70.1844 17.4514C70.4796 12.0817 66.316 14.601 65.5103 18.5399C65.1143 20.4741 64.9222 22.0772 65.1623 24.3849C65.3047 25.754 66.3376 27.4261 67.4201 26.6261C69.5939 25.0198 70.0147 20.5438 70.1844 17.4514Z" fill="white"/>
<path d="M91.6146 21.4916C92.1139 20.9289 94.8829 19.1944 94.4237 20.9602C94.2285 21.7129 94.078 22.4704 93.9988 23.2375C93.4452 28.1262 93.262 33.4069 95.963 37.7362C95.0421 38.0921 92.7379 36.2325 92.2323 35.2986C91.5098 33.9648 91.3218 32.6126 91.0906 31.1353C88.8231 36.5852 83.9147 34.1556 83.9603 28.9502C83.9811 26.5231 84.5155 24.1368 85.5412 21.9293C86.5421 19.7747 90.1665 17.7139 91.3378 20.6628C91.4354 20.9089 91.5018 21.1253 91.6146 21.4916ZM91.129 24.5929C91.1162 23.0892 91.0105 22.3493 90.2401 21.8035C89.7064 21.4251 88.9584 21.6904 88.4991 22.1433C86.9902 23.6334 86.4157 26.9984 86.7317 29.8752C86.8894 31.3124 88.1799 32.397 89.3584 31.468C90.8433 30.3586 91.1418 26.0966 91.129 24.5929Z" fill="white"/>
<path d="M91.6146 21.4916C92.1139 20.9289 94.8829 19.1944 94.4237 20.9602C94.2285 21.7129 94.078 22.4704 93.9988 23.2375C93.4452 28.1262 93.262 33.4069 95.963 37.7362C95.0421 38.0921 92.7379 36.2325 92.2323 35.2986C91.5098 33.9648 91.3218 32.6126 91.0906 31.1353C88.8231 36.5852 83.9147 34.1556 83.9603 28.9502C83.9811 26.5231 84.5155 24.1368 85.5412 21.9293C86.5421 19.7747 90.1665 17.7139 91.3378 20.6628C91.4354 20.9089 91.5018 21.1253 91.6146 21.4916ZM91.129 24.5929C91.1162 23.0892 91.0105 22.3493 90.2401 21.8035C89.7064 21.4251 88.9584 21.6904 88.4991 22.1433C86.9902 23.6334 86.4157 26.9984 86.7317 29.8752C86.8894 31.3124 88.1799 32.397 89.3584 31.468C90.8433 30.3586 91.1418 26.0966 91.129 24.5929Z" fill="white"/>
<path d="M49.1498 8.5682C49.1186 8.78783 49.173 9.43791 48.7754 9.49241C48.257 9.59822 47.7521 9.7946 47.2177 9.7922C46.4584 9.86514 46.5376 9.09163 46.5736 8.53855C46.6144 7.72977 47.0096 7.32578 47.7913 7.21035C48.9818 7.01878 49.2146 7.22879 49.1498 8.5682Z" fill="white"/>
<path d="M49.1498 8.5682C49.1186 8.78783 49.173 9.43791 48.7754 9.49241C48.257 9.59822 47.7521 9.7946 47.2177 9.7922C46.4584 9.86514 46.5376 9.09163 46.5736 8.53855C46.6144 7.72977 47.0096 7.32578 47.7913 7.21035C48.9818 7.01878 49.2146 7.22879 49.1498 8.5682Z" fill="white"/>
</svg>
