<svg width="36" height="36" viewBox="0 0 36 36" fill="none" xmlns="http://www.w3.org/2000/svg">
<path fill-rule="evenodd" clip-rule="evenodd" d="M18.8428 21.7283C19.6819 21.1108 20.7586 20.9235 21.7951 20.8298C23.6994 20.832 26.1246 20.5517 26.2717 18.2892C26.2663 17.2594 25.4442 16.4007 24.626 15.8157C23.6328 14.9534 21.7015 14.5462 20.3793 14.6989C20.9738 13.5422 19.8274 12.4799 18.9093 11.8706C17.9742 11.2428 16.7132 10.9913 15.5823 10.9942C14.1316 11.2045 12.6353 11.5718 11.5415 12.5729C11.1669 12.8561 10.9656 13.2678 10.7992 13.6853C10.6796 13.9503 10.8104 14.1793 10.9415 14.4088C10.9979 14.5077 11.0544 14.6066 11.091 14.7085C11.1492 14.769 11.2074 14.8374 11.2641 14.9042C11.5239 15.2102 11.7532 15.4802 11.8187 14.7808C11.8549 14.4851 12.0148 14.2515 12.179 14.0116L12.2235 13.9464C12.2715 13.8188 12.3381 13.8063 12.4465 13.8978C13.4486 14.9536 14.3996 16.0617 15.3514 17.1708C16.0993 18.0423 16.8478 18.9145 17.622 19.7624C17.9404 20.0639 17.848 20.1007 17.5953 20.2015C17.5494 20.2198 17.4982 20.2402 17.4432 20.2647C16.7419 20.5037 15.8153 21.0599 16.4988 21.8021C16.8225 22.3278 17.3273 22.6979 17.8266 23.064C17.9003 23.118 17.9741 23.1722 18.047 23.2265C18.177 23.4087 18.3652 23.2855 18.3566 23.1011C18.3622 23.055 18.3675 23.008 18.3728 22.9604C18.4222 22.5191 18.4773 22.0266 18.8428 21.7283ZM16.2194 15.875C15.9872 15.7181 15.7895 15.4702 15.592 15.2226C15.4617 15.0592 15.3314 14.8958 15.1914 14.7588C15.1181 14.6169 14.8706 14.3618 14.589 14.0714C14.0054 13.4695 13.2751 12.7164 13.6447 12.5074C14.278 12.0596 15.1604 11.89 15.9399 11.9866C17.0267 12.1924 18.5014 12.7147 18.6578 13.9105C18.8678 14.9741 17.9634 15.2637 17.093 15.5424C16.7795 15.6428 16.4704 15.7417 16.2194 15.875ZM23.0647 16.7793C24.088 17.7435 23.7637 19.4689 22.1822 19.5774C21.8911 19.6858 21.5844 19.7011 21.277 19.7165C21.1348 19.7236 20.9925 19.7307 20.8515 19.747C20.7974 19.7513 20.7424 19.7563 20.687 19.7613C20.1446 19.8099 19.556 19.8627 19.2043 19.3804C18.6995 18.78 18.181 18.1894 17.6624 17.5986C17.4408 17.3461 17.2188 17.0932 16.9981 16.8398C16.9014 16.6222 17.5369 16.4363 17.7289 16.4024C18.4906 16.0881 19.3599 15.858 20.1943 15.796C21.2161 15.858 22.3192 16.0763 23.0647 16.7793Z" fill="white"/>
<path fill-rule="evenodd" clip-rule="evenodd" d="M18 36C27.9411 36 36 27.9411 36 18C36 8.05887 27.9411 0 18 0C8.05887 0 0 8.05887 0 18C0 27.9411 8.05887 36 18 36ZM22.3509 9.73279C26.072 11.3542 29.1266 14.243 29.9788 17.7913C30.338 19.5182 30.499 21.5468 29.3479 23.0664C28.7321 24.5202 28.2469 24.6866 27.7881 24.8438C27.5855 24.9133 27.388 24.981 27.1867 25.157C27.103 25.2301 26.9964 25.3427 26.8781 25.4675C26.6035 25.7574 26.2659 26.1137 26.0062 26.1972C25.794 26.2654 25.6043 26.2342 25.4118 26.2025C25.1442 26.1585 24.8714 26.1136 24.5261 26.3337C24.4679 26.3707 24.392 26.4222 24.3025 26.4828C23.9225 26.7405 23.2994 27.1629 22.7604 27.345C22.4544 27.4483 22.1087 27.1882 21.7522 26.9198C21.3322 26.6037 20.8971 26.2763 20.4939 26.5181L20.4388 26.5512C19.6935 26.999 19.2021 27.2942 18.6694 27.2063C18.4282 27.1669 18.2344 26.8752 18.0209 26.5538C17.7512 26.1479 17.4501 25.6947 16.9826 25.6432C16.5515 25.5954 16.1941 25.7705 15.8452 25.9415C15.4838 26.1186 15.1316 26.2912 14.7161 26.2068C14.2849 26.1195 14.1561 25.6801 14.0245 25.2307C13.81 24.4988 13.5877 23.7401 12.0393 24.4297C10.8334 24.6002 10.8099 24.0196 10.7828 23.3524C10.7662 22.9429 10.7483 22.5007 10.4547 22.1798C10.3063 22.0175 9.94587 22.0709 9.5486 22.1298C9.07345 22.2003 8.54559 22.2785 8.26481 22.0049C7.98128 21.7286 8.00353 21.2765 8.02573 20.8253C8.04391 20.4561 8.06205 20.0874 7.9126 19.8162C7.72582 19.476 7.37765 19.4512 7.05311 19.428C6.80198 19.4101 6.565 19.3932 6.4279 19.232C6.29047 19.0711 6.34672 18.6416 6.40584 18.1901C6.48226 17.6065 6.5635 16.9861 6.23747 16.8618C6.0424 16.7873 5.59652 16.5977 5.54698 16.3211C5.50515 16.087 5.62431 15.7664 5.74902 15.4308C5.91282 14.9901 6.0862 14.5236 5.917 14.1936C5.71155 13.7923 6.1848 13.186 6.62139 12.6267C6.81812 12.3747 7.00742 12.1321 7.1238 11.9222C10.752 7.67539 17.1916 7.4858 22.3509 9.73279Z" fill="white"/>
</svg>
