<?xml version="1.0" encoding="UTF-8"?> <svg xmlns="http://www.w3.org/2000/svg" width="99" height="63" viewBox="0 0 99 63" fill="none"><path d="M48.6132 37.0985C56.7436 37.7871 64.0867 38.6744 71.701 45.1046C72.3827 45.6801 70.9593 45.4011 70.6633 45.0885C62.1545 40.2246 49.6925 38.0492 40.038 39.8775C36.3448 40.5773 33.771 41.6618 30.7899 43.0926C37.1425 41.9865 43.2135 42.4466 49.4853 43.8325C53.4009 44.739 57.4356 46.032 60.9224 48.1449C63.125 49.5412 61.8609 49.51 60.1391 48.7822C47.0539 44.8433 30.7507 41.4021 18.8624 50.1216C23.082 50.3099 26.6239 52.8469 30.5187 54.2064C42.5254 58.6903 56.0995 59.5448 67.7118 53.5394C68.9583 53.2525 70.0104 52.584 71.0761 51.9227C77.2911 48.0672 83.6141 43.8966 90.2844 41.148C88.5762 40.4883 82.6356 39.0135 84.8214 36.3875C85.0111 36.1887 85.2223 36.0709 85.5327 36.1591C86.9689 36.442 88.3682 36.8813 89.7307 37.4207C92.7102 38.5998 95.9937 39.1064 98.9004 40.5348C99.0292 40.5982 99.0356 40.7801 98.9108 40.8506C95.196 42.9411 90.9556 44.6372 87.2945 46.9057C84.8351 48.286 82.3916 49.7352 80.1402 51.4401C76.9991 53.6541 73.426 55.1233 70.1441 57.1128C61.0352 61.6401 50.567 63.0244 40.5324 61.4942C32.0948 60.9042 24.6141 55.7365 17.1166 53.2613C15.0412 52.576 12.2473 53.0745 14.5916 50.0013C21.417 42.158 32.6325 37.5017 42.3798 34.3804C47.0427 32.8871 51.7623 31.9605 56.6012 31.603C59.1166 31.417 80.393 30.5513 76.007 35.8473C75.6662 36.1366 75.2533 36.1214 74.8637 36.0477C66.1501 35.0537 57.1628 35.0425 48.6132 37.0985Z" fill="#192624"></path><path d="M44.5097 2.90597C48.6405 2.11322 54.121 1.88958 59.3591 2.29277C68.1367 2.96929 73.3532 5.53671 77.1672 7.77308C78.9618 8.82554 79.7106 10.2419 78.3473 9.47721C77.1136 8.78546 75.8703 8.2436 74.5205 7.74583C70.577 6.29018 66.5638 5.18803 62.3026 4.75518C55.75 4.08988 51.5304 4.56361 48.4701 4.83855C46.6779 4.99966 44.0072 5.29464 43.7696 6.65329C42.7999 12.2025 42.3863 17.6796 42.5615 23.3275C42.5911 24.2749 42.6759 30.556 44.0336 29.2094C45.6162 27.6399 45.4338 23.4549 45.4482 21.6145C45.4634 19.7333 45.4538 18.1935 45.5746 16.5831C45.6714 15.3006 45.5058 14.1744 46.6147 13.2919C49.5246 10.7068 48.5981 14.6826 48.5485 16.6689C48.5117 18.1269 47.8708 31.3247 51.3135 26.9265C52.1176 25.8989 52.9225 24.1731 52.8593 23.3483C52.7105 21.4117 51.8512 14.5688 51.2311 12.7196C50.6999 11.0587 53.8754 12.556 54.1522 13.2374C55.5187 16.6039 55.7772 22.8073 56.1004 26.9089C56.1356 27.3546 56.4332 27.4972 56.5284 26.8576C56.7053 25.6665 56.9845 24.6509 57.1221 23.9527C57.2565 23.2706 58.3678 17.0472 59.4239 13.6959C59.9272 12.2811 61.3209 11.3256 62.813 11.3393C63.2731 11.3433 63.3875 11.498 63.2531 11.9324C61.8001 15.2557 61.1665 18.8083 60.3336 22.3063C59.9544 23.8862 59.6079 25.4797 58.8687 26.9506C57.9894 28.9537 54.6771 30.4286 53.7242 27.4083C53.5057 26.7269 53.4185 26.4095 53.1961 25.7282C53.0057 26.2444 52.1976 27.8002 51.756 28.3533C49.9046 30.6682 47.3004 30.7925 45.9794 27.9357C45.1145 31.4658 41.4678 34.3835 40.0717 29.5709C39.5812 30.5264 39.286 31.4586 38.6467 32.2898C37.8251 33.3751 36.4633 33.3214 35.6576 32.3114C35.1568 31.6838 34.9968 31.1444 34.7216 30.354C33.279 38.1188 27.3265 37.3645 26.9224 29.5957C26.6928 25.1895 26.7824 19.2243 30.9924 16.721C31.9269 16.3138 32.9438 16.4188 33.559 17.3462C33.7063 17.5682 33.8135 17.8344 34.0199 18.0612C34.6151 16.9719 35.296 15.7463 36.5225 15.3046C37.0074 15.1523 37.1682 15.283 37.0762 15.792C36.4265 19.403 36.6625 22.4842 36.8954 26.5843C36.9514 27.5702 37.3122 32.2193 38.6787 30.144C39.3988 29.0499 39.6596 27.7978 39.5724 26.4552C39.4724 24.9194 39.5052 21.5576 39.5652 20.0916C39.8452 15.2453 40.0397 12.1617 40.6445 7.34344C40.7189 5.93108 35.0288 8.73416 34.0791 9.1622C33.183 9.62951 30.6076 11.1381 29.7699 11.704C29.6195 11.8058 29.4531 11.9404 29.2826 11.7312C30.5556 8.27647 37.7538 5.37079 41.143 4.01213C41.3998 3.90953 41.4254 3.78849 41.4694 3.5865C41.847 1.87195 43.1448 0.958162 44.5713 0.196673C45.3786 -0.23457 45.4738 0.0828508 45.1938 0.764984C44.9313 1.40864 44.7513 2.18937 44.5097 2.90597ZM33.8911 26.0464C33.8247 24.5827 34.4815 17.8873 31.6469 19.5553C29.3194 22.1901 29.1746 28.8864 30.7708 31.9259C32.2733 33.5451 33.6239 30.7276 33.7479 29.3937C33.9071 28.2804 33.8775 27.1614 33.8911 26.0464Z" fill="#192624"></path><path d="M16.3046 25.5348C14.1147 32.2431 18.3015 39.6136 14.6588 46.1319C12.9434 49.4095 11.0216 52.7384 8.411 55.2481C6.50922 57.0765 3.2145 56.8032 1.20231 55.1944C0.629458 54.6317 -0.167418 53.8798 0.0310011 53.0278C0.315028 51.8086 0.708666 50.4563 1.63115 49.5891C2.38002 48.8853 2.66645 49.0504 2.89607 49.961C4.16819 55.0052 9.39349 53.3171 10.896 49.5121C12.5714 45.2702 12.2546 40.5097 12.4922 35.9865C12.777 30.5558 13.4771 25.389 15.7789 20.602C16.5126 19.0766 17.2254 17.5304 18.2687 16.3176C18.6648 15.8575 18.7384 15.714 19.3064 15.7677C20.1905 15.8142 19.5161 17.2154 19.5441 17.7677C18.5792 23.6375 19.34 33.5762 22.3763 38.7198C22.4515 38.8473 22.6316 38.8657 22.7244 38.7511C23.1812 38.1868 23.1004 36.6614 23.018 35.9897C22.5595 32.2391 21.4426 28.5664 21.6099 24.7477C21.5683 20.2814 22.4699 15.4848 26.2983 12.6993C27.5048 11.917 28.2233 12.2729 27.24 13.6123C25.243 16.8771 25.0278 20.6533 24.9766 24.3662C24.5285 28.5159 27.5592 42.5272 20.1257 40.4865C17.5119 39.7691 16.3286 28.2586 16.3046 25.5348Z" fill="#192624"></path><path d="M74.7381 28.6819C73.5876 29.6718 72.0002 30.4477 70.6873 29.0137C69.8432 28.0919 69.7448 26.993 69.5048 25.8604C68.4727 27.8731 66.8733 29.8826 64.5243 29.0282C62.4969 28.2907 62.2977 25.6552 62.1585 23.822C62.0753 20.2342 63.2154 13.1676 67.3382 12.2041C68.5735 11.7576 70.1328 12.5079 70.5681 13.8553C70.8257 14.6537 70.8529 14.5607 71.3121 13.816C71.9346 12.8052 74.3244 11.5396 73.9316 12.8173C73.3427 14.729 70.8249 28.3228 73.3835 28.2025C74.0684 28.1705 74.4596 27.4451 74.4676 26.8463C74.49 25.2103 74.6909 22.4665 74.9333 20.8554C75.3277 18.2359 75.2117 15.452 77.3999 14.4461C78.3936 13.99 78.6992 14.0004 78.5624 15.02C78.3776 16.3931 78.1776 17.6547 77.9664 19.1585C77.5559 22.0786 76.6895 26.0664 77.808 28.0535C78.8009 29.8169 80.277 27.9741 80.4826 26.7533C80.8899 24.3374 80.9499 21.0357 81.4315 18.6278C81.7219 17.4391 82.7364 16.5926 83.9413 16.5189C84.4726 16.486 84.587 16.5742 84.5158 17.0856C84.0477 20.5476 83.4301 23.9855 82.9308 27.4427C81.9412 32.1054 82.606 41.8516 76.7319 43.1638C75.9838 43.3305 75.0389 43.2744 74.298 42.4905C73.9004 42.0689 75.0685 41.8027 75.4621 41.5414C79.3753 38.9419 79.7057 33.4809 80.3842 29.1941C78.0592 31.5916 76.4318 31.8497 74.7381 28.6819ZM70.1848 17.4511C70.4801 12.0814 66.3165 14.6008 65.5108 18.5397C65.1148 20.4738 64.9227 22.077 65.1628 24.3847C65.3052 25.7538 66.3381 27.4258 67.4206 26.6259C69.5944 25.0195 70.0152 20.5436 70.1848 17.4511Z" fill="#192624"></path><path d="M91.6156 21.4919C92.1148 20.9292 94.8839 19.1946 94.4247 20.9605C94.2294 21.7131 94.079 22.4706 93.9998 23.2377C93.4462 28.1265 93.2629 33.4072 95.964 37.7364C95.0431 38.0923 92.7389 36.2327 92.2332 35.2989C91.5108 33.9651 91.3228 32.6128 91.0915 31.1355C88.8241 36.5854 83.9156 34.1559 83.9613 28.9505C83.9821 26.5233 84.5165 24.1371 85.5422 21.9295C86.5431 19.7749 90.1674 17.7141 91.3388 20.6631C91.4364 20.9092 91.5028 21.1256 91.6156 21.4919ZM91.1299 24.5932C91.1171 23.0894 91.0115 22.3496 90.2411 21.8037C89.7074 21.4254 88.9593 21.6907 88.5001 22.1436C86.9911 23.6337 86.4167 26.9987 86.7327 29.8755C86.8903 31.3127 88.1809 32.3972 89.3594 31.4682C90.8443 30.3588 91.1427 26.0969 91.1299 24.5932Z" fill="#192624"></path><path d="M49.1503 8.56869C49.1191 8.78832 49.1735 9.43839 48.7759 9.4929C48.2574 9.59871 47.7526 9.79509 47.2182 9.79269C46.4589 9.86563 46.5381 9.09212 46.5741 8.53904C46.6149 7.73025 47.0101 7.32626 47.7918 7.21084C48.9823 7.01926 49.2151 7.22927 49.1503 8.56869Z" fill="#192624"></path></svg> 