<?xml version="1.0" encoding="UTF-8"?> <svg xmlns="http://www.w3.org/2000/svg" width="152" height="33" viewBox="0 0 152 33" fill="none"><g clip-path="url(#clip0_114_1368)"><path fill-rule="evenodd" clip-rule="evenodd" d="M146.084 7.00784V11.6981H142.203V26.3295H137.222V11.6981H133.789V7.00784H137.222V0.972168H142.203V7.00784H146.084Z" fill="white"></path><path fill-rule="evenodd" clip-rule="evenodd" d="M132.707 11.7363C131.924 10.2227 130.823 8.98943 129.368 8.11117C127.912 7.17686 126.196 6.74707 124.274 6.74707C122.371 6.74707 120.673 7.19554 119.181 8.11117C117.726 8.98943 116.606 10.204 115.841 11.7363C115.076 13.2312 114.703 14.8943 114.703 16.6882C114.703 18.4634 115.076 20.1078 115.841 21.6214C116.625 23.1536 117.726 24.3682 119.181 25.2839C120.655 26.1808 122.371 26.6106 124.256 26.6106C126.177 26.6106 127.875 26.1808 129.349 25.2839C130.786 24.3869 131.905 23.1536 132.689 21.6214C133.454 20.1078 133.827 18.4634 133.827 16.6882C133.845 14.8756 133.472 13.2312 132.707 11.7363ZM126.756 21.1729C126.14 21.6027 125.338 21.8456 124.274 21.8456C123.248 21.8456 122.427 21.6027 121.793 21.1729C121.103 20.7244 120.599 20.1265 120.244 19.3603C119.871 18.5381 119.685 17.6412 119.685 16.6695C119.685 15.6604 119.871 14.7822 120.244 13.9974C120.599 13.2312 121.103 12.6333 121.793 12.1848C122.427 11.755 123.229 11.5121 124.274 11.5121C125.338 11.5121 126.14 11.755 126.737 12.1661C127.427 12.6146 127.931 13.2312 128.286 13.9787C128.659 14.7635 128.845 15.6604 128.845 16.6508C128.845 17.6225 128.659 18.5194 128.286 19.3416C127.95 20.1265 127.427 20.7244 126.756 21.1729Z" fill="white"></path><path fill-rule="evenodd" clip-rule="evenodd" d="M113.063 11.7362C112.298 10.2226 111.197 9.00804 109.76 8.12978C108.324 7.19546 106.943 6.89648 105.115 6.89648C104.369 6.89648 103.007 7.13941 102.036 7.66262C100.992 8.22321 100.133 8.97066 100.04 9.04541V7.0086H95.0586V33.0012H100.04V24.8166C100.152 24.8914 101.197 25.5454 102.316 26.0313C103.044 26.3489 104.145 26.5358 104.835 26.5358C106.663 26.5358 108.324 26.1621 109.76 25.2464C111.178 24.3308 112.298 23.1162 113.063 21.6026C113.828 20.089 114.201 18.4446 114.201 16.6694C114.201 14.8755 113.828 13.2311 113.063 11.7362ZM107.018 21.1728C106.365 21.6026 105.563 21.8455 104.499 21.8455C103.473 21.8455 102.652 21.6026 102.018 21.1728C101.327 20.7243 100.824 20.1264 100.469 19.3602C100.096 18.538 99.9095 17.6411 99.9095 16.6694C99.9095 15.6604 100.096 14.7821 100.469 13.9973C100.824 13.2311 101.346 12.6332 102.018 12.1847C102.652 11.7549 103.454 11.512 104.499 11.512C105.563 11.512 106.384 11.7549 107.018 12.1847C107.727 12.6519 108.268 13.2498 108.641 14.016C109.033 14.8008 109.219 15.679 109.219 16.6694C109.219 17.6411 109.014 18.5194 108.641 19.3416C108.268 20.1077 107.727 20.7057 107.018 21.1728Z" fill="white"></path><path fill-rule="evenodd" clip-rule="evenodd" d="M93.5856 20.3124C93.6602 22.2184 93.3431 23.8254 91.6266 25.2643C89.9475 26.6657 88.4176 27.189 85.0779 27.189C82.3353 27.189 79.1636 26.1612 77.3912 23.5451C76.0852 21.6204 76.2531 18.9857 76.2531 18.9857H81.2905C81.2905 18.9857 81.2346 20.4993 81.9249 21.3775C82.8018 22.4987 84.5742 22.6482 85.7496 22.6482C86.925 22.6482 88.5482 22.3866 88.6415 21.1159C88.7161 19.9387 87.9325 19.4528 86.328 19.0791C85.0593 18.7801 83.4734 18.5746 82.0928 18.1822C80.3017 17.6776 78.9771 17.2479 78.0255 16.2014C77.0367 15.1176 76.7942 13.4358 76.7942 12.7818C76.7942 10.3152 77.6711 8.93245 79.1263 7.84864C80.5443 6.76484 82.951 6.39111 85.2459 6.39111C86.8317 6.39111 88.2497 6.63404 89.3877 7.232C90.4885 7.75521 91.44 8.46529 92.0557 9.39961C92.6527 10.2779 93.0259 11.2495 93.1378 12.2773L93.2871 13.6414H88.2497C88.2497 13.249 88.287 12.3147 87.634 11.642C86.925 10.9132 85.4697 10.745 84.6302 10.745C83.3801 10.745 81.8316 10.9879 81.7197 12.296C81.6077 13.5667 83.2309 13.9591 85.0406 14.202C87.2049 14.501 89.425 15.0242 89.9101 15.211C90.9363 15.6221 91.7945 16.2014 92.4662 17.0049C93.2684 17.9019 93.5296 19.0604 93.5856 20.3124Z" fill="white"></path><path fill-rule="evenodd" clip-rule="evenodd" d="M59.4818 7.00736H63.4371V11.6976H59.4818V26.329H54.4817V11.6976H51.5898V7.00736H54.4817V6.76444C54.4817 4.67157 55.1161 2.89638 56.5713 1.68177C57.9893 0.50453 59.8177 0 61.9446 0H63.3812V4.85844H61.814C60.8251 4.85844 60.2654 5.08267 59.9669 5.36297H59.9483C59.7244 5.54983 59.4818 5.97961 59.4818 6.9513V7.00736Z" fill="white"></path><path fill-rule="evenodd" clip-rule="evenodd" d="M75.7493 7.00784V11.6981H71.8873V26.3295H66.9058V11.6981H64.1445V7.00784H66.9058V0.972168H71.8873V7.00784H75.7493Z" fill="white"></path><path d="M39.6863 26.7578C42.5222 26.7578 44.0521 25.9917 45.4327 24.6276V25.6553V26.4028H50.4702V13.2476C50.4702 8.61343 46.6081 6.65137 42.3356 6.65137C37.746 6.65137 34.7235 8.87504 33.9772 12.4254L38.9027 12.8365C39.2572 11.5472 40.3953 10.5942 42.317 10.5942C43.1565 10.5942 45.2088 10.9866 45.2088 12.7992C45.2088 14.5183 41.8132 14.6678 40.5259 14.7799C36.4213 15.1723 33.3242 16.5738 33.3242 20.9277C33.3242 24.7958 36.0295 26.7578 39.6863 26.7578ZM41.5893 22.3665C39.8542 22.7029 38.4923 21.9928 38.399 20.7595C38.287 19.2459 39.6303 18.4985 41.5147 18.2182C42.6715 18.05 44.7051 17.7697 45.3394 17.3399V18.4237C45.3394 20.2363 43.7163 21.9554 41.5893 22.3665Z" fill="white"></path><path fill-rule="evenodd" clip-rule="evenodd" d="M33.0827 6.74707V11.7363H31.5528C30.5453 11.7363 29.7244 12.0166 29.0341 12.5398C28.3251 13.0817 27.7468 13.7918 27.3363 14.7074C26.9445 15.6231 26.7393 16.6134 26.7393 17.6786V26.3303H21.7578V7.00868H26.7393V9.26972C27.0751 8.50358 27.8401 7.70007 28.4931 7.40109C29.4446 6.95262 30.5267 6.74707 31.7021 6.74707H33.0827Z" fill="white"></path><path fill-rule="evenodd" clip-rule="evenodd" d="M14.1608 0.281006V8.7459C14.0489 8.67115 13.3026 7.97976 12.1831 7.45654C11.2876 7.04544 10.0562 6.80252 9.38456 6.80252C7.5375 6.80252 5.87701 7.19493 4.42175 8.12925C3.02246 9.02619 1.92169 10.2221 1.15674 11.7357C0.373143 13.2306 0 14.875 0 16.6689C0 18.4441 0.373143 20.0885 1.13809 21.6021C1.90303 23.1157 3.00381 24.349 4.38444 25.2459H4.40309H4.42175C5.87701 26.1428 7.5375 26.5726 9.38456 26.5726C10.3361 26.5726 11.3622 26.3484 12.2951 25.9186C13.3399 25.4328 14.0675 24.6292 14.1795 24.5545V26.2923H19.1609V0.281006H14.1608ZM12.2018 21.1723C11.5861 21.6021 10.7838 21.845 9.72039 21.845C8.69424 21.845 7.87333 21.6021 7.20167 21.1723C6.4927 20.7051 5.95164 20.1072 5.5785 19.341C5.18669 18.5188 5.00012 17.6406 5.00012 16.6689C5.00012 15.6785 5.20535 14.7816 5.5785 14.0154C5.95164 13.2493 6.4927 12.6513 7.20167 12.1842C7.87333 11.7544 8.69424 11.5115 9.72039 11.5115C10.7838 11.5115 11.5861 11.7544 12.1831 12.1655C12.8735 12.614 13.3772 13.2306 13.7317 13.9781C14.1048 14.7629 14.2914 15.6598 14.2914 16.6502C14.2914 17.6219 14.1048 18.5188 13.7317 19.341C13.3959 20.1259 12.8735 20.7238 12.2018 21.1723Z" fill="white"></path><path d="M149.016 26.4034C150.665 26.4034 152.002 25.0649 152.002 23.4136C152.002 21.7624 150.665 20.4238 149.016 20.4238C147.368 20.4238 146.031 21.7624 146.031 23.4136C146.031 25.0649 147.368 26.4034 149.016 26.4034Z" fill="#71D15A"></path></g><defs><clipPath id="clip0_114_1368"><rect width="152" height="33" fill="white"></rect></clipPath></defs></svg> 