<svg width="20" height="20" viewBox="0 0 20 20" fill="none" xmlns="http://www.w3.org/2000/svg">
<g clip-path="url(#clip0)">
<path d="M5.83333 18.3333H4.16667C3.50363 18.3333 2.86774 18.0699 2.3989 17.6011C1.93006 17.1323 1.66667 16.4964 1.66667 15.8333V4.16667C1.66667 3.50363 1.93006 2.86774 2.3989 2.3989C2.86774 1.93006 3.50363 1.66667 4.16667 1.66667H5.83333C6.05435 1.66667 6.26631 1.57887 6.42259 1.42259C6.57887 1.26631 6.66667 1.05435 6.66667 0.833333C6.66667 0.61232 6.57887 0.400358 6.42259 0.244078C6.26631 0.0877974 6.05435 0 5.83333 0L4.16667 0C3.062 0.00132321 2.00296 0.440735 1.22185 1.22185C0.440735 2.00296 0.00132321 3.062 0 4.16667L0 15.8333C0.00132321 16.938 0.440735 17.997 1.22185 18.7782C2.00296 19.5593 3.062 19.9987 4.16667 20H5.83333C6.05435 20 6.26631 19.9122 6.42259 19.7559C6.57887 19.5996 6.66667 19.3877 6.66667 19.1667C6.66667 18.9457 6.57887 18.7337 6.42259 18.5774C6.26631 18.4211 6.05435 18.3333 5.83333 18.3333Z" fill="white"/>
<path d="M15.4484 15.589L19.2709 11.7674C19.7382 11.2978 20.0005 10.6623 20.0005 9.99985C20.0005 9.33741 19.7382 8.70192 19.2709 8.23235L15.4484 4.41068C15.2912 4.25889 15.0807 4.17489 14.8622 4.17679C14.6437 4.17869 14.4347 4.26633 14.2802 4.42084C14.1257 4.57534 14.0381 4.78435 14.0362 5.00285C14.0343 5.22135 14.1183 5.43185 14.2701 5.58902L17.8467 9.16652H5.00008C4.77907 9.16652 4.56711 9.25431 4.41083 9.41059C4.25455 9.56688 4.16675 9.77884 4.16675 9.99985C4.16675 10.2209 4.25455 10.4328 4.41083 10.5891C4.56711 10.7454 4.77907 10.8332 5.00008 10.8332H17.8476L14.2701 14.4107C14.1905 14.4876 14.127 14.5795 14.0833 14.6812C14.0397 14.7828 14.0167 14.8922 14.0157 15.0028C14.0147 15.1135 14.0358 15.2232 14.0777 15.3256C14.1196 15.4281 14.1815 15.5211 14.2598 15.5993C14.338 15.6776 14.431 15.7395 14.5335 15.7814C14.6359 15.8233 14.7456 15.8444 14.8562 15.8434C14.9669 15.8424 15.0762 15.8194 15.1779 15.7758C15.2796 15.7321 15.3715 15.6686 15.4484 15.589Z" fill="white"/>
</g>
<defs>
<clipPath id="clip0">
<rect width="20" height="20" fill="white"/>
</clipPath>
</defs>
</svg>
