<svg width="51" height="51" viewBox="0 0 51 51" fill="none" xmlns="http://www.w3.org/2000/svg">
<path d="M23.2501 1.59519C24.5978 0.639626 26.4022 0.639627 27.75 1.59519L30.0657 3.23704C30.8246 3.77509 31.7512 4.02337 32.6775 3.93685L35.5039 3.67285C37.1489 3.5192 38.7115 4.42137 39.4009 5.9228L40.5855 8.50257C40.9737 9.34798 41.652 10.0263 42.4974 10.4145L45.0772 11.5991C46.5786 12.2885 47.4808 13.8511 47.3272 15.4961L47.0631 18.3225C46.9766 19.2488 47.2249 20.1754 47.763 20.9343L49.4048 23.25C50.3604 24.5978 50.3604 26.4022 49.4048 27.75L47.763 30.0657C47.2249 30.8246 46.9766 31.7512 47.0631 32.6775L47.3272 35.5039C47.4808 37.1489 46.5786 38.7115 45.0772 39.4009L42.4974 40.5855C41.652 40.9737 40.9737 41.652 40.5855 42.4974L39.4009 45.0772C38.7115 46.5786 37.1489 47.4808 35.5039 47.3272L32.6775 47.0631C31.7512 46.9766 30.8246 47.2249 30.0657 47.763L27.75 49.4048C26.4022 50.3604 24.5978 50.3604 23.25 49.4048L20.9343 47.763C20.1754 47.2249 19.2488 46.9766 18.3225 47.0631L15.4961 47.3272C13.8511 47.4808 12.2885 46.5786 11.5991 45.0772L10.4145 42.4974C10.0263 41.652 9.34798 40.9737 8.50257 40.5855L5.9228 39.4009C4.42137 38.7115 3.5192 37.1489 3.67285 35.5039L3.93685 32.6775C4.02337 31.7512 3.77509 30.8246 3.23704 30.0657L1.59519 27.7499C0.639626 26.4022 0.639627 24.5978 1.59519 23.25L3.23704 20.9343C3.77509 20.1754 4.02337 19.2488 3.93685 18.3225L3.67285 15.4961C3.5192 13.8511 4.42137 12.2885 5.9228 11.5991L8.50257 10.4145C9.34798 10.0263 10.0263 9.34798 10.4145 8.50257L11.5991 5.9228C12.2885 4.42137 13.8511 3.5192 15.4961 3.67285L18.3225 3.93685C19.2488 4.02337 20.1754 3.77509 20.9343 3.23704L23.2501 1.59519Z" fill="white"/>
</svg>
