<svg width="20" height="20" viewBox="0 0 20 20" fill="none" xmlns="http://www.w3.org/2000/svg">
<g clip-path="url(#clip0)">
<path d="M9.99984 5C9.77882 5 9.56686 5.0878 9.41058 5.24408C9.2543 5.40036 9.1665 5.61232 9.1665 5.83333V10C9.16655 10.221 9.25438 10.4329 9.41067 10.5892L11.9107 13.0892C12.0678 13.241 12.2783 13.325 12.4968 13.3231C12.7153 13.3212 12.9243 13.2335 13.0789 13.079C13.2334 12.9245 13.321 12.7155 13.3229 12.497C13.3248 12.2785 13.2408 12.068 13.089 11.9108L10.8332 9.655V5.83333C10.8332 5.61232 10.7454 5.40036 10.5891 5.24408C10.4328 5.0878 10.2209 5 9.99984 5Z" fill="#383A3E"/>
<path d="M19.8433 8.44333C19.5572 6.63153 18.7783 4.93331 17.5919 3.53447C16.4054 2.13563 14.857 1.09006 13.1162 0.512166C11.3754 -0.0657305 9.50914 -0.153693 7.72167 0.257902C5.9342 0.669496 4.29437 1.56479 2.98159 2.84583V0.833333C2.98159 0.61232 2.89379 0.400358 2.73751 0.244078C2.58123 0.0877974 2.36927 0 2.14826 0C1.92724 0 1.71528 0.0877974 1.559 0.244078C1.40272 0.400358 1.31492 0.61232 1.31492 0.833333V4.16667C1.31492 4.60869 1.49052 5.03262 1.80308 5.34518C2.11564 5.65774 2.53956 5.83333 2.98159 5.83333H6.31492C6.53594 5.83333 6.7479 5.74554 6.90418 5.58926C7.06046 5.43298 7.14826 5.22101 7.14826 5C7.14826 4.77899 7.06046 4.56703 6.90418 4.41074C6.7479 4.25446 6.53594 4.16667 6.31492 4.16667H4.02242C5.35409 2.81469 7.10769 1.95825 8.99269 1.73924C10.8777 1.52024 12.7809 1.9518 14.3871 2.96245C15.9933 3.97309 17.2059 5.50214 17.8242 7.29628C18.4425 9.09041 18.4293 11.0419 17.7867 12.8275C17.1441 14.6131 15.9108 16.1255 14.2911 17.1143C12.6713 18.1031 10.7624 18.5088 8.88057 18.2642C6.99872 18.0196 5.2569 17.1395 3.9437 15.7696C2.6305 14.3996 1.82474 12.6222 1.65992 10.7317C1.63832 10.5285 1.54152 10.3408 1.38855 10.2054C1.23558 10.0701 1.03751 9.99677 0.833258 10C0.716712 10.0003 0.601509 10.0249 0.49499 10.0722C0.38847 10.1195 0.292969 10.1884 0.214572 10.2747C0.136174 10.3609 0.0765997 10.4625 0.0396437 10.5731C0.00268775 10.6836 -0.0108392 10.8006 -7.53908e-05 10.9167C0.131704 12.2445 0.527905 13.5326 1.16519 14.7049C1.80247 15.8773 2.66794 16.9103 3.71061 17.743C4.75328 18.5757 5.95206 19.1913 7.23634 19.5536C8.52061 19.9158 9.86439 20.0174 11.1885 19.8522C12.5126 19.6871 13.7903 19.2586 14.9463 18.5921C16.1023 17.9255 17.1131 17.0344 17.9194 15.9711C18.7256 14.9078 19.3109 13.6939 19.6407 12.4009C19.9706 11.108 20.0383 9.76205 19.8399 8.4425L19.8433 8.44333Z" fill="#383A3E"/>
</g>
<defs>
<clipPath id="clip0">
<rect width="20" height="20" fill="white"/>
</clipPath>
</defs>
</svg>
