<svg width="15" height="14" viewBox="0 0 15 14" fill="none" xmlns="http://www.w3.org/2000/svg">
<path d="M7.66667 2.33398C7.3445 2.33398 7.08333 2.59515 7.08333 2.91732V6.41732H3.58333C3.26117 6.41732 3 6.67848 3 7.00065C3 7.32282 3.26117 7.58398 3.58333 7.58398H7.08333V11.084C7.08333 11.4062 7.3445 11.6673 7.66667 11.6673C7.98883 11.6673 8.25 11.4062 8.25 11.084V7.58398H11.75C12.0722 7.58398 12.3333 7.32282 12.3333 7.00065C12.3333 6.67848 12.0722 6.41732 11.75 6.41732H8.25V2.91732C8.25 2.59515 7.98883 2.33398 7.66667 2.33398Z" fill="black"/>
</svg>
