<svg width="69" height="58" viewBox="0 0 69 58" fill="none" xmlns="http://www.w3.org/2000/svg">
<path d="M46.7958 58L41.782 51.8947C44.3287 47.8246 46.6367 43.5978 48.7059 39.2146C50.6159 34.9879 51.7301 30.7611 52.0484 26.5344L39.6332 24.1862L39.6332 8.87677e-06L69 1.14441e-05L69 17.3765C69 27.552 66.8512 35.7706 62.5536 42.0324C58.0969 48.2942 52.8443 53.6167 46.7958 58ZM7.16262 58L2.14879 51.8947C4.6955 47.8246 7.00346 43.5978 9.07267 39.2146C10.9827 34.9879 12.0969 30.7611 12.4152 26.5344L-4.6733e-06 24.1862L-2.55887e-06 5.41192e-06L29.3668 7.97925e-06L29.3668 17.3765C29.3668 27.552 27.218 35.7706 22.9204 42.0324C18.4637 48.2942 13.2111 53.6167 7.16262 58Z" fill="#F15B3D"/>
</svg>
