<svg width="660" height="414" viewBox="0 0 660 414" fill="none" xmlns="http://www.w3.org/2000/svg">
<path d="M0 278.851C3.82645 276.784 -2.31092 265.766 10.8559 259.031C22.1848 253.913 34.0833 267.158 31.9014 278.198C31.8799 280.072 28.4619 284.001 27.3978 281.089C21.5291 272.823 15.0586 287.225 18.3583 292.493C23.3349 301.273 27.4838 301.027 35.8138 296.765C46.2828 290.865 37.9528 278.284 43.3485 269.514C47.0567 262.8 55.6554 255.765 63.5878 259.973C86.2455 267.522 95.4784 304.571 72.0898 316.393C58.3963 323.106 49.7868 304.518 60.546 296.401C61.868 295.63 66.7586 293.713 66.3072 296.465C63.8135 301.776 71.5846 305.995 74.347 301.262C77.3243 294.956 73.0679 286.197 66.6834 283.969C63.1256 282.61 57.7621 281.549 54.3334 284.344C49.3676 289.259 44.2943 295.02 44.0149 302.333C43.3807 312.73 50.4102 324.766 41.8974 333.578C36.7059 338.729 25.0116 336.534 19.9921 331.694C13.7365 326.651 9.96381 323.235 12.7906 314.744C13.0056 313.009 15.4348 313.459 14.4997 315.118C14.5319 328.878 34.3628 323.631 36.7274 313.202C37.8453 310.096 36.8779 306.734 37.899 303.586C17.2513 320.483 14.1879 288.167 0 295.095C0 289.687 0 284.269 0 278.851Z" fill="#FBD600"/>
<path d="M542.409 171.227C541.227 175.403 553.437 178.69 549.117 192.793C544.903 204.453 527.082 203.736 520.655 194.484C519.322 193.157 518.87 187.985 521.708 189.248C531.747 190.812 525.878 176.153 519.795 174.846C510.003 172.287 507.294 175.425 504.553 184.344C501.512 195.941 516.377 198.746 518.935 208.715C521.181 216.039 520.257 227.09 511.712 229.831C490.484 240.763 457.379 221.554 465.16 196.605C469.868 182.138 489.248 188.938 487.603 202.29C487.238 203.779 485.217 208.608 483.54 206.37C481.444 200.888 473.007 203.5 474.49 208.769C476.962 215.29 486.238 218.352 492.279 215.343C495.74 213.748 500.233 210.653 500.62 206.252C500.534 199.282 499.932 191.636 494.858 186.347C487.818 178.648 474.254 175.285 473.834 163.057C473.738 155.754 483.476 148.923 490.452 148.709C498.448 147.756 503.532 147.434 507.671 155.369C508.767 156.729 506.746 158.153 506.209 156.333C496.277 146.771 486.238 164.599 492.107 173.551C493.558 176.517 496.664 178.166 498.223 181.089C500.426 154.566 525.835 174.889 530.726 159.92C534.617 163.678 538.508 167.458 542.409 171.227Z" fill="#FBD600"/>
<path d="M608.964 0.384557C612.264 10.2678 604.159 17.0244 597.474 17.8061C591.272 18.5771 584.737 17.956 578.965 20.7293C575.117 22.4533 576.579 27.4003 580.255 27.6787C586.328 29.5311 592.605 30.9124 598.688 32.8291C602.913 34.2747 605.299 43.6868 604.02 47.638C599.817 63.5712 580.814 57.9817 569.109 56.761C570.334 52.842 575.848 53.1846 579.073 51.7176C584.124 50.1543 588.219 41.738 582.834 38.7184C576.235 35.8701 571.527 30.2486 571.366 22.903C570.485 19.7228 564.713 29.9809 565.658 31.7691C565.433 38.8469 570.764 42.7017 566.981 50.422C557.877 61.8365 551.051 45.1217 542.399 51.9318C535.154 56.0543 540.335 62.3184 544.119 58.0352C544.882 56.4933 545.914 54.1269 547.569 56.3969C551.213 61.451 550.31 68.7216 546.763 73.5936C542.474 79.0011 530.35 77.7268 526.287 72.6406C519.053 64.7811 519.333 51.9532 527.437 44.8433C535.058 38.6649 546.322 43.3227 554.802 45.4429C562.047 47.0705 561.886 37.9367 560.091 33.3217C551.309 1.83011 588.66 21.2754 587.102 0.395265C594.389 0.384557 601.676 0.384557 608.964 0.384557Z" fill="#FBD600"/>
<path d="M149.382 413.705C151.897 410.91 155.369 408.522 157.4 405.481C157.346 403.575 158.679 402.558 159.872 401.509C162.86 397.29 166.214 392.996 167.536 387.92C168.02 384.804 161.022 390.704 160.657 391.989C158.497 395.716 154.444 397.236 151.628 400.288C147.049 403.65 142.094 407.248 136.473 408.576C125.617 409.925 108.71 404.518 109.666 391.304C109.774 387.085 110.741 383.07 111.902 379.054C113.17 375.414 107.603 376.57 106.152 378.134C99.982 381.742 103.217 367.276 121.5 370.52C127.262 373.101 132.894 377.17 133.958 383.777C136 391.518 146.147 390.019 151.327 386.454C158.593 381.978 167.16 383.316 175.135 382.288C175.608 382.149 176.199 382.395 176.737 382.492C177.199 382.577 177.898 382.395 178.027 382.952C178.177 383.605 177.532 384.001 177.048 384.301C173.018 386.057 171.47 390.073 170.083 393.82C167.095 401.509 161.592 407.43 156.239 413.705C153.95 413.705 151.671 413.705 149.382 413.705Z" fill="#FBD600"/>
<path d="M531.328 413.705C537.895 411.724 544.645 408.222 546.301 400.973C549.052 379.033 557.35 371.463 578.686 381.635C586.07 384.066 595.861 379.397 599.204 372.587C599.602 371.559 600.107 369.889 601.204 370.188C602.558 370.553 601.805 372.201 601.515 373.154C599.699 381.86 603.934 390.715 600.268 399.303C593.013 417.067 576.955 410.696 562.455 407.28C560.209 406.584 558.038 406.83 555.996 407.955C548.45 412.184 539.991 414.304 531.328 413.705ZM561.488 399.003C570.366 398.403 586.403 409.764 589.273 395.834C589.305 395.159 588.918 395.063 588.456 395.223C578.46 398.425 564.627 388.178 557.748 398.061C556.361 400.288 560.392 398.842 561.488 399.003Z" fill="#FBD600"/>
<path d="M239.411 413.705C233.359 412.334 226.76 409.175 227.351 402.076C226.609 396.294 228.587 393.092 233.585 391.882C234.553 391.315 235.412 392.3 234.574 393.124C234.101 394.677 233.617 397.365 234.972 398.446C239.669 401.273 245.215 399.592 248.106 395.052C251.772 384.772 233.381 382.995 226.943 386.657C221.257 388.477 218.258 392.857 216.108 397.889C215.958 401.958 212.368 402.847 209.412 404.325C200.265 411.413 180.23 402.012 186.883 389.323C188.281 387.642 188.775 383.016 191.58 383.841C196.439 386.122 188.044 394.431 204.908 390.458C219.451 380.918 231.973 377.898 249.396 381.207C257.318 383.091 262.498 389.826 260.843 397.793C259.328 403.233 258.726 410.086 252.793 412.559C248.923 414.915 243.818 413.223 239.411 413.705Z" fill="#FBD600"/>
<path d="M366.393 132.347C370.52 134.446 374.712 137.937 372.971 142.969C372.434 147.285 370.424 149.244 366.576 149.201C365.77 149.437 365.329 148.559 366.092 148.12C366.726 147.081 367.565 145.229 366.791 144.201C363.921 141.288 359.589 141.492 356.655 144.254C352.108 151.022 365.082 155.679 370.424 154.202C374.874 153.923 377.851 151.311 380.334 148.056C381.194 145.132 383.956 145.154 386.364 144.618C394.296 141.16 407.054 151.632 399.896 159.598C398.574 160.562 397.359 163.817 395.478 162.704C392.383 160.166 399.993 155.69 387.062 155.476C374.777 159.716 365.157 159.609 353.162 154.03C347.777 151.214 345.272 145.4 347.938 139.928C350.045 136.266 351.743 131.416 356.483 130.72C359.74 129.735 363.115 131.887 366.393 132.347Z" fill="#FBD600"/>
<path d="M285.919 83.3056C292.046 82.2776 299.344 82.7059 301.515 89.4947C304.407 94.5595 303.805 98.2751 299.645 101.284C298.968 102.173 297.796 101.584 298.248 100.513C298.097 98.8961 297.506 96.2299 295.851 95.7373C290.434 94.9021 285.941 98.5535 284.995 103.854C285.532 114.754 303.214 109.433 307.771 103.597C312.328 99.7527 313.435 94.5809 313.5 89.0985C312.081 85.2758 315.069 83.0914 317.23 80.6072C322.98 70.5847 345.1 71.6876 343.8 85.9504C343.155 88.0277 344.466 92.5036 341.543 92.8034C336.179 92.5357 340.769 81.6673 326.699 91.7326C316.886 106.07 306.46 113.598 289.09 117.142C281.04 118.406 273.688 114.133 272.172 106.135C271.495 100.524 269.442 93.9598 273.978 89.4304C276.654 85.7898 282.028 85.415 285.919 83.3056Z" fill="#FBD600"/>
<path d="M196.084 273.219C191.161 276.988 184.519 280.029 179.402 275.06C174.458 271.945 173.243 268.379 175.501 263.774C175.683 262.672 176.984 262.639 177.091 263.807C177.983 265.156 179.757 267.244 181.455 266.901C186.636 265.102 188.872 259.78 187.206 254.651C181.595 245.282 168.493 258.26 167.224 265.541C165.01 271.066 166.472 276.153 168.998 281.025C172.05 283.734 170.449 287.064 169.707 290.266C169.353 301.809 149.317 311.178 143.739 297.986C143.331 295.844 140.063 292.514 142.492 290.887C147.35 288.606 148.425 300.352 156.11 284.88C158.013 267.629 163.656 256.108 177.328 244.843C183.831 239.96 192.343 240.292 197.449 246.642C200.684 251.279 205.607 256.108 203.737 262.233C203.081 266.687 198.513 269.535 196.084 273.219Z" fill="#FBD600"/>
<path d="M659.847 16.307C652.538 32.9041 635.599 20.6223 623.786 27.1968C617.165 31.7048 626.043 36.7589 630.805 37.1979C635.341 37.3478 636.093 30.195 638.974 34.0498C647.766 49.7581 617.917 62.8002 613.124 44.2543C610.716 29.5847 613.833 20.3224 630.009 19.166C636.168 18.909 637.458 11.9061 634.868 7.40886C633.32 3.55406 629.623 2.63319 626.914 0.384557C635.717 0.384557 644.531 0.384557 653.334 0.384557C657.096 3.25424 657.622 7.7301 659.858 11.435C659.847 13.0519 659.847 14.6794 659.847 16.307Z" fill="#FBD600"/>
<path d="M515.151 238.611C533.456 238.172 529.35 258.699 540.324 266.623C547.214 270.713 548.085 260.562 546.483 256.076C544.71 251.91 537.874 254.234 540.185 250.026C550.793 235.474 575.225 256.964 560.349 269.107C548.01 277.448 538.25 278.53 530.404 264.385C527.577 258.924 520.665 260.701 517.656 264.942C514.797 267.961 515.517 271.688 514.603 275.082L508.466 261.89C505.349 255.187 505.897 247.21 510.347 241.299C510.379 241.256 510.411 241.224 510.433 241.181C511.884 240.389 513.711 239.393 515.151 238.611Z" fill="#FBD600"/>
<path d="M659.847 88.7666C653 108.844 653.753 118.202 634.642 131.416C633.18 132.69 628.763 136.652 629.418 132.112C633.535 119.98 637.437 107.762 640.898 95.4054C641.22 94.3667 640.951 93.9277 639.876 93.5208C625.388 89.409 611.21 84.1087 596.388 81.2069C591.455 79.6971 586.586 78.0052 581.545 76.9131C580.771 76.7096 580.19 77.1486 579.524 77.3199C577.697 78.0802 575.762 75.6602 577.192 74.129C577.976 73.2938 579.008 73.4009 579.728 73.9577C582.458 76.1314 585.93 75.9279 588.993 77.0308C605.019 80.2325 621.045 85.8326 636.845 88.97C640.618 81.3568 642.746 72.0624 645.444 63.7639C646.379 61.6759 647.519 53.6665 650.184 54.2982C651.098 54.7586 651.324 55.3797 650.851 56.2792C646.938 65.1666 645.143 74.7608 641.467 83.7446C641.639 85.3936 638.812 90.0729 640.371 90.5012C642.091 91.3793 642.778 89.409 642.993 87.9956C646.755 77.3199 648.991 65.5307 653.022 55.2619C655.956 56.7182 657.224 60.937 659.847 63.1C659.847 71.6555 659.847 80.211 659.847 88.7666ZM646.153 110.835C646.39 105.535 639.737 107.794 639.683 111.339C640.36 114.294 646.39 115.472 646.153 110.835ZM652.603 76.7953C647.959 76.3241 647.97 82.8345 652.398 82.8666C655.999 83.1021 657.063 76.5383 652.603 76.7953ZM644.96 95.1484C645.025 98.9818 651.109 98.9818 651.001 94.9449C650.668 90.7689 644.982 91.0901 644.96 95.1484Z" fill="#FBD600"/>
<path d="M44.3588 413.705C39.8122 395.876 68.9835 371.238 86.3423 377.095C88.277 377.909 87.6858 380.596 85.4824 380.157C75.755 379.547 71.6491 384.965 66.4791 392.107C65.5763 393.189 66.3287 394.056 66.2642 395.02C65.1786 405.096 81.5377 402.108 83.2575 394.517C83.6766 393.435 84.4398 393.039 85.4394 393.521C88.2985 394.602 89.8678 396.754 90.4374 399.785C93.5222 404.378 92.7053 409.026 90.6739 413.705C75.2391 413.705 59.7936 413.705 44.3588 413.705Z" fill="#FBD600"/>
<path d="M450.446 0.384548C454.982 11.1994 438.966 23.3206 429.39 17.2493C426.724 15.611 423.564 16.4462 420.984 17.6776C412.966 22.0999 425.692 30.4092 431.314 28.1605C432.045 28.032 433.119 27.3039 433.517 28.1498C433.936 29.0279 432.829 29.6061 432.173 30.1201C428.992 32.3687 426.047 35.9344 421.758 35.3347C411.741 36.534 406.786 31.2872 402.121 23.2885C398.284 15.6431 401.153 2.5261 410.644 0.37384C419.103 -0.825431 426.208 3.57547 433.84 6.5094C438.451 8.13698 444.233 6.11321 441.31 0.37384C444.351 0.384548 447.393 0.384548 450.446 0.384548Z" fill="#FBD600"/>
<path d="M316.391 0.384559C307.449 3.57548 306.804 12.313 299.054 16.9923C270.517 37.6369 263.036 -6.74682 236.81 6.0811C229.984 5.70633 240.722 -0.268616 243.216 0.630838C254.781 -0.0223368 266.594 0.598714 278.234 0.384559C281.169 2.77239 283.684 5.82411 288.005 5.82411C300.978 7.58019 301.365 -2.00328 316.391 0.384559Z" fill="#FBD600"/>
<path d="M0 376.013C1.53703 374.643 3.13855 373.358 4.8583 372.212C5.63219 371.698 6.86826 371.463 6.55655 370.006C6.47056 369.61 7.09397 369.589 7.44867 369.492C11.6621 368.903 18.7023 361.515 11.4471 360.08C8.55576 359.695 5.81491 359.887 3.55774 362.05C3.23528 362.361 2.83759 362.896 2.33241 362.671C0.924366 356.343 4.61108 349.469 8.68474 344.543C24.0335 335.249 41.8222 355.369 27.5375 368.432C18.5088 377.181 5.57844 377.93 0 390.308C0 385.543 0 380.778 0 376.013Z" fill="#FBD600"/>
<path d="M214.947 0.384557C211.164 5.07456 215.334 12.3559 220.752 13.3624C223.191 13.8121 225.685 14.3154 227.964 12.7092C228.426 12.3773 228.996 12.2381 229.479 12.6343C229.974 13.0197 229.684 13.5337 229.512 13.9727C228.232 15.8787 229.436 18.213 228.297 20.0547C223.503 28.4818 212.894 31.3729 204.747 25.58C196.901 19.7549 190.484 6.64861 200.921 0.395265C205.596 0.384557 210.272 0.384557 214.947 0.384557Z" fill="#FBD600"/>
<path d="M659.847 343.194C649.152 353.259 631.966 346.867 629.053 333.054C628.3 330.302 631.826 330.291 632.062 327.839C632.621 325.89 633.46 325.259 635.491 325.376C638.404 325.548 642.306 326.222 641.822 329.927C641.8 330.441 641.607 330.912 641.091 330.73C639.758 330.259 638.662 331.362 637.351 331.116C635.384 330.741 634.341 333.771 635.792 334.928C640.091 338.386 649.195 336.973 650.517 330.805C650.775 329.67 650.539 328.075 652.517 327.946C653.065 327.914 652.721 327.186 652.474 326.886C651.066 322.175 651.13 316.949 648.916 312.334C648.163 307.965 641.972 309.807 643.348 307.965C644.939 306.734 641.94 306.199 642.284 304.678C642.316 303.093 639.318 303.018 639.952 301.38C641.435 299.592 653.215 310.728 654.785 312.581C662.104 321.083 659.331 332.872 659.847 343.194Z" fill="#FBD600"/>
<path d="M179.392 0.384557C181.305 1.03773 181.369 3.00796 179.295 3.55406C171.706 6.53082 165.483 11.6491 158.991 16.3606C146.534 27.9999 131.658 35.9772 118.19 46.3852C114.191 48.9657 105.27 57.8639 100.96 56.3969C100.713 54.0198 104.518 52.7884 105.904 51.0645C114.181 44.3079 122.371 37.4656 130.766 30.8696C137.408 26.019 143.202 20.2903 148.941 14.4332C154.057 9.18635 161.27 6.2203 165.687 0.384557C170.266 0.384557 174.823 0.384557 179.392 0.384557Z" fill="#FBD600"/>
<path d="M0 185.276C4.51435 179.237 10.8882 174.632 14.3384 167.801C16.4344 163.239 20.6693 168.336 23.6681 169.3C30.4826 172.898 16.6278 184.858 15.0263 189.966C11.0709 199.132 5.75042 207.655 0 215.814C0 205.631 0 195.448 0 185.276Z" fill="#FBD600"/>
<path d="M496.105 0.384545C504.478 5.5564 497.148 20.3438 488.732 21.2968C477.177 23.5133 461.936 12.9876 467.729 0.384545C474.662 -0.654109 468.729 6.75567 473.168 9.77527C480.488 17.699 493.504 10.5891 487.582 7.73008C485.959 7.08761 484.454 6.5201 482.831 8.10485C478.231 11.5099 478.661 2.74026 479.8 0.384545C485.239 0.384545 490.666 0.384545 496.105 0.384545Z" fill="#FBD600"/>
<path d="M659.847 156.675C655.021 154.844 647.863 154.609 649.561 161.976C650.012 163.56 651.281 165.531 649.453 166.676C627.451 158.303 636.19 129.842 659.847 141.727C659.847 146.717 659.847 151.696 659.847 156.675Z" fill="#FBD600"/>
<path d="M0 145.304C15.4133 131.159 30.1064 116.243 44.9607 101.487C46.6697 99.9669 50.8939 94.6344 53.0006 95.3625C54.6343 98.35 42.0372 107.623 39.9842 111.36C26.3014 126.672 14.5964 143.847 0 158.314C0 153.966 0 149.64 0 145.304Z" fill="#FBD600"/>
<path d="M47.6264 0.384557C47.4759 9.37909 59.052 25.505 45.8421 29.0707C44.4018 29.3919 43.4882 27.8286 42.8218 26.7471C37.5766 18.0738 32.0734 9.529 27.7202 0.384557C34.352 0.384557 40.9838 0.384557 47.6264 0.384557Z" fill="#FBD600"/>
<path d="M0 7.52663C12.9949 18.4486 26.2262 29.0814 39.2103 40.0783C41.7685 43.5048 55.9242 50.8075 51.0014 55.0585C50.1845 55.4439 49.6686 54.8015 49.1634 54.3625C33.9221 41.0741 16.6601 30.3235 0 18.8983C0 15.1077 0 11.3172 0 7.52663Z" fill="#FBD600"/>
<path d="M0 229.788C4.27788 231.201 7.79262 228.739 11.4901 227.422C15.8647 225.537 13.6398 219.337 15.1553 216.168C19.5944 221.843 19.7341 230.655 19.1752 237.819C17.0148 245.143 7.24445 249.64 0.0107484 249.608C0 243.001 0 236.395 0 229.788Z" fill="#FBD600"/>
<path d="M135.688 0.384557C128.53 9.70033 118.082 16.0607 110.827 25.3765C108.925 26.9184 106.216 23.8667 104.174 23.3527C102.164 22.3141 102.153 21.7894 103.422 19.5729C107.076 13.2232 111.569 7.3232 114.159 0.384557C121.339 0.384557 128.508 0.384557 135.688 0.384557Z" fill="#FBD600"/>
<path d="M319.648 413.705C321.916 409.165 322.41 402.89 319.562 398.66C319.078 398.018 318.96 397.472 319.53 396.776C322.12 395.212 326.914 380.661 329.311 385.501C335.599 393.21 339.092 404.025 335.631 413.705C330.3 413.705 324.979 413.705 319.648 413.705Z" fill="#FBD600"/>
<path d="M659.847 392.578C656.214 391.829 649.486 389.195 648.475 394.666C648.335 396.787 651.624 396.369 651.345 398.564C651.238 399.71 650.496 400.267 649.41 400.406C646.626 401.391 651.356 404.85 649.582 406.295C648.884 406.691 648.454 406.145 648.142 405.62C647.422 404.4 646.003 403.8 645.39 402.472C645.197 402.044 644.778 401.819 644.402 402.43C640.038 406.199 640.865 395.587 641.994 393.499C643.81 387.856 644.907 380.404 651.764 378.744C653.258 378.476 653.978 377.609 654.193 376.131C662.599 349.415 659.202 385.276 659.847 392.578Z" fill="#FBD600"/>
<path d="M348.68 413.705C350.614 411.456 347.207 411.156 348.68 408.929C359.127 391.529 371.273 401.937 380.323 413.705C364.791 415.675 357.031 406.884 356.515 413.705C353.893 413.705 351.291 413.705 348.68 413.705Z" fill="#FBD600"/>
<path d="M273.989 413.705C273.677 406.916 274.01 400.159 276.418 393.692C278.46 390.565 286.618 398.543 289.402 399.688C289.961 400.063 290.186 400.577 289.993 401.23C288.649 405.471 289.617 409.561 290.627 413.694C285.07 413.705 279.524 413.705 273.989 413.705Z" fill="#FBD600"/>
<path d="M0 42.948C6.53506 45.8284 12.5434 49.8224 19.2397 52.4244C22.604 53.8271 22.9264 54.7908 21.0992 57.9068C19.2827 61.0013 19.272 61.0655 15.725 60.5195C10.469 59.7057 5.23449 58.7741 0 57.896C0 52.9169 0 47.9271 0 42.948Z" fill="#FBD600"/>
<path d="M0 103.715C3.82645 101.295 30.2676 89.6339 20.6263 102.58C13.1239 107.034 6.9435 113.127 0 118.331C0 113.459 0 108.587 0 103.715Z" fill="#FBD600"/>
<path d="M82.1934 0.384557C81.3335 14.0477 78.5174 27.5288 78.3024 41.224C78.9151 43.312 75.7443 44.9289 75.1531 42.5839C73.9816 28.5996 75.4003 14.4332 74.046 0.384557C76.7547 0.384557 79.474 0.384557 82.1934 0.384557Z" fill="#FBD600"/>
<path d="M0 73.4973C7.54541 72.7049 15.0156 74.3325 22.5717 74.2361C25.2481 74.5573 49.2601 72.3837 43.241 77.8768C28.7198 77.8125 14.3814 79.5365 0 81.2925C0 78.6905 0 76.0886 0 73.4973Z" fill="#FBD600"/>
<path d="M659.847 219.07C648.68 214.658 652.108 199.624 659.847 193.403C659.847 201.948 659.847 210.503 659.847 219.07Z" fill="#FBD600"/>
<path d="M562.649 0.384557C562.219 2.11922 560.381 3.02938 560.37 4.92466C558.758 13.4588 542.625 8.87583 547.977 0.384557C552.857 0.384557 557.758 0.384557 562.649 0.384557Z" fill="#FBD600"/>
<path d="M659.847 295.095C657.321 294.045 657.515 291.476 656.902 289.495C655.677 285.533 657.31 282.181 659.847 279.172C659.847 284.483 659.847 289.794 659.847 295.095Z" fill="#FBD600"/>
<path d="M620.282 266.248C604.751 266.109 600 243.944 608.018 232.883C609.007 231.544 609.458 231.63 610.254 233.097C612.242 236.748 615.015 239.746 618.648 241.727C635.556 249.394 646.938 228.76 638.554 214.904C636.093 210.064 628.365 209.347 624.485 213.116C621.733 216.243 622.636 221.04 626.419 222.71C630.622 225.558 636.19 221.479 635.62 224.338C635.308 227.068 632.449 229.981 629.773 230.398C617.487 232.925 610.404 218.598 614.499 208.383C618.745 198.029 631.6 197.365 637.996 188.831C645.036 182.224 634.814 172.405 626.946 174.846C626.409 174.964 625.635 175.339 625.463 174.461C625.302 173.636 626.108 173.604 626.677 173.497C637.372 170.06 646.917 178.616 646.465 189.409C646.283 194.699 643.036 199.282 641.865 204.282C641.467 214.155 649.948 220.954 649.314 231.148C653.581 249.116 639.554 267.394 620.282 266.248Z" fill="#FBD600"/>
<path d="M217.14 146.332C229.06 136.405 247.096 150.218 248.192 163.807C248.311 165.466 247.913 165.691 246.354 165.092C242.463 163.593 238.39 163.1 234.348 163.935C216.484 169.011 221.257 192.075 236.649 197.215C241.668 199.314 248.031 194.87 248.526 189.495C248.59 185.34 244.774 182.267 240.808 183.434C235.756 183.98 234.166 190.683 232.747 188.135C231.21 185.854 231.479 181.785 233.252 179.74C240.959 169.878 255.673 176.206 259.21 186.636C262.714 197.258 253.352 206.07 254.05 216.703C252.997 226.287 267.163 227.154 271.559 220.215C271.893 219.776 272.237 218.995 272.935 219.551C273.591 220.076 273 220.622 272.634 221.072C266.733 230.602 253.9 230.248 247.214 221.746C243.914 217.603 243.399 212.013 241.045 207.452C234.918 199.678 224.041 199.978 217.892 191.808C202.941 180.886 201.727 157.907 217.14 146.332Z" fill="#FBD600"/>
<path d="M124.94 287.856C124.843 291.208 126.799 294.581 124.585 297.686C123.736 298.96 122.758 298.939 121.952 297.632C120.727 295.641 119.351 295.02 117.266 295.502C109.011 300.32 120.641 312.002 123.801 316.971C134.001 333.011 129.153 351.204 113.783 357.907C104.883 362.832 92.5764 351.353 93.4147 342.241C93.576 336.041 97.0907 327.496 104.367 328.631C106.334 329.242 110.623 329.949 110.387 332.54C110.064 333.3 109.355 333.439 108.592 333.279C102.056 334.125 110.655 345.539 116.9 340.935C132.045 327.689 96.2631 315.814 94.0811 303.715C93.0815 296.712 89.2658 286.668 96.5855 281.967C104.711 273.24 124.059 273.786 124.94 287.856Z" fill="#FBD600"/>
<path d="M569.453 360.787C567.4 360.348 556.533 361.29 558.188 356.857C561.542 350.176 565.411 343.794 569.216 337.369C570.065 335.934 570.732 334.66 572.71 334.478C576.6 333.439 572.763 328.3 576.396 325.751C582.308 315.943 588.091 306.006 594.421 296.465C596.378 293.949 599.269 299.506 600.645 300.759C607.653 311.456 609.792 326.469 606.051 338.75C599.011 352.317 585.156 361.387 569.453 360.787ZM593.755 336.834C591.379 336.919 591.616 340.753 594.056 340.528C596.872 340.635 596.732 336.759 593.755 336.834ZM594.013 315.921C591.423 315.718 592.089 319.712 594.368 319.434C596.969 319.562 596.367 315.793 594.013 315.921ZM578.46 348.602C579.459 348.398 580.405 348.066 580.459 346.856C579.965 343.087 573.698 348.077 578.46 348.602Z" fill="#FBD600"/>
<path d="M95.5644 244.233C95.027 246.717 97.4024 249.886 94.3069 250.604C87.6106 251.214 85.8801 258.046 86.697 263.732C87.2451 265.102 85.5469 266.259 84.472 265.188C72.2188 256.782 69.9831 239.532 74.4115 226.169C81.2367 207.345 105.464 194.677 124.768 200.909C126.67 201.38 128.637 203.179 126.133 204.496C105.485 213.726 123.693 218.191 116.513 221.2C100.767 226.426 112.472 234.639 106.539 235.228C101.551 233.257 94.9948 239.275 95.5644 244.233ZM89.3948 244.565C86.568 239.714 83.1177 235.217 83.0855 229.103C83.0317 228.546 83.0425 227.711 82.2578 227.732C78.6464 231.523 83.8701 243.622 89.3948 244.565ZM87.933 219.733C85.8371 219.455 84.0958 220.301 87.2451 220.965C92.2002 221.639 95.6074 226.276 100.369 226.94C99.7456 223.503 91.652 219.252 87.933 219.733ZM97.7034 211.499C95.8439 211.863 92.2432 211.724 91.609 213.641C92.0282 214.604 93.361 213.844 94.1241 213.748C97.9721 212.281 101.465 214.529 105.163 215.204C106.377 215.739 106.818 214.754 105.689 214.08C103.389 212.077 100.509 211.906 97.7034 211.499Z" fill="#FBD600"/>
<path d="M410.3 364.899C408.269 349.394 425.778 345.293 432.087 358.71C436.43 369.193 437.247 380.843 442.041 391.133C444.674 396.712 450.801 397.033 456.207 396.765C457.991 396.808 458.604 397.857 457.905 399.496C454.939 404.293 447.469 400.684 443.234 399.528C437.591 398.35 424.886 391.218 420.791 396.422C413.589 408.554 396.876 412.602 385.783 403.318C376.808 397.707 379.721 382.085 367.113 381.86C361.03 380.832 387.17 372.972 391.544 384.044C400.67 400.063 410.515 390.972 423.843 388.948C430.303 387.524 434.452 394.024 436.806 392.76C434.441 386.753 429.368 381.249 428.283 374.332C427.82 372.244 426.455 370.563 425.488 368.711C424.263 366.419 420.221 364.781 418.405 367.351C417.018 369.075 414.417 371.559 416.588 373.743C418.953 379.236 409.269 373.968 410.3 364.899Z" fill="#FBD600"/>
<path d="M75.5293 94.9342C68.1021 95.7909 61.5778 89.8909 57.9234 84.0551C47.7768 68.4967 64.8239 51.2893 81.1615 53.3345C105.442 58.0138 106.506 96.519 75.5293 94.9342Z" fill="#FBD600"/>
<path d="M428.917 332.765C445.426 332.219 454.369 318.513 470.459 332.529C489.721 353.27 459.636 381.014 444.824 356.943C444.04 354.651 443.556 347.456 445.792 346.085C446.738 345.689 446.985 346.567 447.404 347.081C449.64 349.844 452.585 350.732 455.992 350.229C461.861 347.381 457.239 339.061 452.295 337.68C441.987 331.769 429.916 339.918 419.867 333.45C417.76 332.122 417.362 329.649 416.524 327.486C415.395 324.541 417.459 322.86 419.028 321.018C424.392 317.378 427.917 308.244 419.136 306.831C417.599 306.702 416.094 306.895 414.643 307.419C411.193 307.334 413.568 299.56 414.568 297.654C419.781 290.469 429.895 291.679 433.925 301.262C435.119 303.436 435.495 305.685 434.441 308.115C433.528 314.904 429.809 320.279 423.822 323.663C417.179 326.126 423.951 334.06 428.917 332.765Z" fill="#FBD600"/>
<path d="M556.436 130.099C543.259 137.112 541.507 151.793 522.837 146.824C498.9 137.669 512.174 103.19 533.843 116.821C535.391 118.363 538.669 124.017 537.411 126.008C536.799 126.704 536.251 126.094 535.702 125.848C532.779 124.498 530.038 124.948 527.469 126.704C523.847 131.351 530.93 136.256 535.498 135.41C546.236 136.106 552.75 124.691 563.498 125.933C565.744 126.169 567.056 128.021 568.593 129.435C570.689 131.373 569.689 133.557 569.152 135.677C566.26 140.764 567.056 149.576 574.752 147.22C576.052 146.717 577.192 145.957 578.159 144.95C580.986 143.644 582.19 150.904 582.147 152.842C580.792 160.744 572.108 163.785 564.992 157.628C563.143 156.343 561.95 154.662 561.821 152.274C559.833 146.407 560.693 140.56 564.197 135.442C568.625 130.805 559.951 127.068 556.436 130.099Z" fill="#FBD600"/>
<path d="M259.768 69.5889C246.87 68.5181 231.21 50.6683 227.061 60.9584C226.276 64.9739 229.587 66.4729 232.973 67.2118C231.93 69 228.813 69.4283 226.738 69.4925C190.473 72.0731 220.59 16.7781 244.506 57.6604C256.264 70.1457 263.444 43.8795 275.386 44.4149C284.071 43.1942 292.282 44.1686 298.173 51.3107C302.934 59.4593 305.342 63.2713 315.23 65.8091C315.897 66.0339 316.929 66.3123 316.724 67.2118C316.531 67.9934 315.822 67.8435 315.23 67.7472C311.533 66.9655 307.889 66.6014 304.138 67.4152C287.65 71.4414 284.952 54.9514 271.377 53.9127C266.454 52.8526 260.155 66.1731 267.303 66.3659C268.561 66.6764 270.356 69.9637 270.528 71.7198C269.528 74.2361 262.993 70.6597 259.768 69.5889Z" fill="#FBD600"/>
<path d="M323.313 227.828C332.331 233.461 337.007 252.392 343.939 246.428C346.035 243.794 344.176 241.449 341.994 239.628C343.434 238.718 345.874 239.575 347.422 240.314C374.895 252.071 331.933 281.142 329.956 242.273C326.097 228.728 310.899 245.218 302.375 240.335C295.571 237.958 289.939 234.167 288.338 226.726C287.951 218.984 287.628 215.29 281.373 209.711C280.975 209.293 280.319 208.704 280.814 208.126C281.255 207.623 281.717 208.008 282.104 208.297C284.511 210.257 287.037 211.895 290.09 212.709C303.665 215.964 299.387 229.028 308.91 234.896C312.103 237.519 321.755 230.163 316.606 227.336C315.811 226.64 315.134 217.613 315.671 216.275C317.326 214.829 321.357 225.837 323.313 227.828Z" fill="#FBD600"/>
<path d="M387.524 22.6139C389.309 33.8999 374.465 35.3026 366.221 36.1378C356.902 36.609 350.883 28.4282 344.832 22.6674C339.21 18.4593 331.45 17.6455 328.236 25.0767C327.129 27.4324 331.611 29.7881 328.741 31.2015C320.959 36.5019 310.888 30.3556 310.211 21.511C308.373 10.3856 320.787 3.45767 329.558 6.1132C345.777 9.10067 349.668 30.5162 366.586 30.6233C379.27 27.9357 370.316 12.6021 360.32 19.2838C359.729 19.6478 359.202 20.5152 358.332 19.8513C357.225 18.6413 358.751 16.8959 358.278 15.3861C361.857 -2.59223 389.696 4.56057 387.524 22.6139Z" fill="#FBD600"/>
<path d="M355.043 354.898C356.655 364.428 344.122 365.745 337.168 366.537C329.289 367.019 324.119 360.166 318.96 355.347C314.177 351.846 307.599 351.225 304.955 357.543C304.041 359.545 307.857 361.494 305.439 362.714C298.904 367.265 290.337 362.168 289.681 354.705C288.026 345.325 298.452 339.339 305.89 341.513C319.626 343.879 323.13 361.943 337.426 361.879C348.121 359.491 340.403 346.61 332.019 352.36C331.514 352.67 331.084 353.409 330.343 352.863C329.397 351.846 330.665 350.358 330.257 349.083C333.105 333.836 356.698 339.618 355.043 354.898Z" fill="#FBD600"/>
<path d="M81.054 333.354C74.5512 359.695 54.0754 382.899 29.8484 394.538C25.9038 395.394 38.6729 371.645 39.8015 369.278C47.4866 354.63 58.5145 342.402 69.2415 329.97C70.4023 328.664 72.1651 327.111 73.9386 327.111C74.6802 328.096 73.6268 329.67 74.4437 330.827C76.9696 337.144 81.269 327.357 81.054 333.354Z" fill="#FBD600"/>
<path d="M73.8418 107.677C72.8637 121.168 68.9728 133.493 65.8342 146.503C63.8458 151.568 64.7916 157.243 62.2335 162.179C60.6105 165.338 59.5894 168.7 58.7188 172.116C52.4632 195.866 46.0141 220.28 40.7151 243.73C39.1673 248.291 37.5013 252.82 35.9643 257.382C34.8357 260.669 31.235 256.59 29.139 256.279C28.3866 255.947 28.0319 255.487 28.2469 254.63C29.9667 247.863 30.6868 240.881 32.7398 234.178C37.77 223.192 39.823 211.349 43.1765 199.838C48.3358 186.132 52.2374 171.977 56.7303 157.971C56.3433 155.112 72.1221 96.5083 73.8418 107.677Z" fill="#FBD600"/>
<path d="M525.663 37.4977C517.075 36.5768 517.323 31.8547 511.153 28.4068C503.758 26.6507 501.136 36.3091 495.321 38.697C488.409 44.447 474.587 40.5815 469.363 33.5786C466.278 30.195 460.076 31.5549 456.895 29.1135C461.42 27.3681 467.332 29.0707 472.222 29.5097C478.456 33.0432 480.918 36.7803 489.108 35.9879C496.89 34.7137 497.126 23.4812 503.737 19.7549C511.282 16.6818 516.678 26.0725 524.04 25.43C527.426 24.9696 527.244 20.2367 526.964 17.6883C526.652 15.6003 522.772 13.7585 520.762 14.5723C519.139 15.1077 515.947 16.8959 515.678 14.0584C516.291 1.69087 533.488 1.62662 540.797 8.53314C551.299 19.0161 540.593 39.1253 525.663 37.4977Z" fill="#FBD600"/>
<path d="M269.195 258.463C320.132 266.537 310.609 288.959 300.172 293.339C294.669 295.694 288.488 296.851 283.92 300.941C280.835 303.554 283.501 307.719 286.973 306.991C293.056 307.087 299.204 306.691 305.31 306.841C309.587 307.055 314.295 315.075 314.177 319.059C314.575 334.842 295.582 334.746 284.479 336.727C284.565 332.797 289.735 331.651 292.304 329.435C296.539 326.651 298.054 317.827 292.293 316.467C285.457 315.589 279.61 311.67 277.514 304.957C275.848 302.269 273.279 313.234 274.634 314.626C276.31 321.2 282.254 323.331 280.846 331.437C275.515 344.361 264.766 330.784 258.629 339.35C253.072 345.068 259.51 349.458 261.843 344.511C262.133 342.884 262.456 340.431 264.573 342.091C269.281 345.775 270.399 352.703 268.432 358.131C265.927 364.246 254.437 366.301 249.332 362.693C240.572 357.382 237.401 345.496 242.958 336.802C248.321 329.092 259.93 330.388 268.303 330.088C275.407 329.659 272.817 321.297 269.926 317.528C249.095 283.905 317.541 305.385 269.077 258.699C269.141 258.592 269.141 258.592 269.195 258.463Z" fill="#FBD600"/>
<path d="M241.324 311.135C234.305 310.685 234.327 306.831 229.189 304.239C223.105 303.072 221.31 311.028 216.656 313.17C211.228 318.095 199.835 315.429 195.331 309.914C192.698 307.27 187.7 308.587 185.013 306.713C188.635 305.128 193.515 306.306 197.513 306.499C202.716 309.165 204.855 312.12 211.497 311.178C217.785 309.861 217.592 300.716 222.837 297.451C228.877 294.688 233.596 302.14 239.572 301.359C242.313 300.866 242.001 297.011 241.679 294.945C241.356 293.253 238.121 291.893 236.52 292.621C235.219 293.114 232.682 294.688 232.36 292.375C232.424 282.278 246.419 281.635 252.621 287C261.553 295.202 253.534 311.949 241.324 311.135Z" fill="#FBD600"/>
<path d="M550.363 339.725C545.795 339.125 539.464 337.722 537.927 332.84C537.583 331.897 538.562 331.319 539.755 331.662C546.172 333.782 550.643 323.642 543.517 321.65C530.909 318.727 522.364 336.662 509.143 330.57C504.156 328.792 499.33 326.458 495.6 322.442C494.805 321.468 490.323 316.703 493.601 317.41C498.524 320.044 503.156 324.391 509.154 324.016C520.021 325.944 525.201 313.844 534.66 310.803C543.044 306.22 555.05 304.935 561.133 313.823C563.616 316.896 566.293 319.947 564.713 324.081C565.056 332.615 559.435 339.939 550.363 339.725Z" fill="#FBD600"/>
<path d="M340.317 208.458C335.738 207.923 329.386 206.616 327.785 201.755C327.43 200.823 328.397 200.224 329.601 200.545C336.05 202.569 340.36 192.354 333.213 190.48C320.562 187.749 312.296 205.813 298.979 199.913C293.97 198.211 289.101 195.951 285.318 191.99C284.511 191.026 279.954 186.336 283.243 186.989C288.209 189.548 292.895 193.831 298.893 193.36C309.792 195.116 314.779 182.941 324.195 179.772C332.514 175.061 344.498 173.594 350.711 182.385C353.237 185.426 355.956 188.435 354.441 192.589C354.892 201.123 349.389 208.533 340.317 208.458Z" fill="#FBD600"/>
<path d="M190.957 36.1913C194.558 35.6667 194.117 53.1096 196.267 56.6111C197.718 61.1619 197.567 66.0232 198.943 70.5954C199.298 72.662 203.425 83.1235 198.599 80.7892C184.97 75.0177 172.265 67.3296 159.851 59.3951C158.97 58.8811 158.927 58.41 159.442 57.5855C166.311 46.2995 177.973 38.5578 190.957 36.1913ZM174.34 50.09C170.836 49.8545 172.437 54.3624 175.264 54.2554C178.274 54.1697 177.199 49.7581 174.34 50.09ZM193.515 69.4604C193.483 67.8971 191.978 66.0446 190.914 66.1624C186.872 67.2011 192.784 74.2361 193.515 69.4604ZM181.573 61.5474C178.446 61.4831 179.316 65.2737 181.638 65.5949C184.83 65.4129 184.648 61.7829 181.573 61.5474ZM185.626 50.1971C185.4 53.1203 188.904 53.8913 189.14 51.0966C189.517 48.4732 185.744 47.488 185.626 50.1971Z" fill="#FBD600"/>
<path d="M579.298 113.148C577.514 108.126 585.908 98.5106 587.166 104.389C587.392 106.124 588.725 107.869 590.047 108.158C600.247 106.477 592.809 94.174 580.416 97.5684C575.225 102.258 570.592 109.058 562.595 108.555C555.695 109.186 550.073 107.055 546.515 101.466C543.377 98.1894 541.754 90.18 546.505 86.7749C548.74 89.3234 546.591 94.7629 550.019 97.0437C567.711 110.161 572.817 86.8606 589.445 90.2121C603.751 89.9765 610.49 114.262 598.989 122.046C592.024 127.347 577.707 123.288 579.298 113.148Z" fill="#FBD600"/>
<path d="M361.03 213.469C365.748 210.974 376.54 217.849 370.875 219.948C369.188 220.419 367.651 221.993 367.554 223.331C370.714 233.14 381.839 224.006 376.658 212.291C371.241 207.858 363.813 204.282 363.147 196.337C361.502 189.623 362.814 183.777 367.833 179.451C370.628 175.874 378.345 173.112 382.419 177.288C380.216 179.868 374.497 178.541 372.735 182.245C362.298 201.594 386.17 203.233 385.278 220.108C387.61 234.167 364.48 244.361 355.064 234.167C348.787 228.085 350.722 213.384 361.03 213.469Z" fill="#FBD600"/>
<path d="M387.976 127.068C386.192 122.046 394.586 112.431 395.844 118.309C396.069 120.044 397.402 121.789 398.724 122.078C408.925 120.397 401.487 108.094 389.094 111.488C383.902 116.178 379.27 122.978 371.273 122.475C364.372 123.106 358.751 120.976 355.193 115.386C352.055 112.11 350.432 104.1 355.182 100.695C357.418 103.243 355.268 108.683 358.697 110.964C376.389 124.081 381.495 100.781 398.122 104.132C412.429 103.897 419.168 128.182 407.667 135.966C400.702 141.267 386.385 137.209 387.976 127.068Z" fill="#FBD600"/>
<path d="M515.495 348.023C533.789 350.283 532.037 376.195 513.883 377.609C505.768 378.819 497.04 375.564 492.881 368.282C486.905 360.98 491.215 351.546 488.151 343.312C486.604 339.082 484.959 334.189 480.746 331.972C480.198 331.598 479.531 331.233 479.789 330.463C481.853 328.364 488.356 332.765 489.925 334.96C492.945 338.932 494.858 343.344 496.019 348.12C495.697 355.454 499.179 370.146 509.154 363.721C510.691 362.286 509.745 359.47 507.509 358.645C506.617 358.313 505.112 358.849 504.897 357.789C503.543 352.017 510.368 347.638 515.495 348.023Z" fill="#FBD600"/>
<path d="M448.683 47.5309C452.402 48.4732 487.969 66.5158 484.346 69.3212C478.456 75.7352 473.673 82.9843 465.515 86.4215C463.032 87.4495 452.982 95.1698 452.649 90.0408C452.778 86.6143 449.135 77.1593 451.617 75.2961C452.381 75.0177 452.972 74.4931 452.929 73.6257C452.488 70.4562 448.447 72.4907 448.554 67.9934C449.457 62.5753 441.363 49.0728 448.683 47.5309ZM465.397 77.0415C465.096 73.6686 460.453 72.4907 461.001 77.0843C460.829 80.4894 465.397 80.3716 465.397 77.0415ZM473.286 66.762C470.599 66.7835 469.75 71.0345 472.889 70.8417C476.952 70.8953 477.177 66.7835 473.286 66.762ZM455.971 58.3671C456.046 56.2149 452.456 56.0971 452.531 58.2815C452.37 60.4873 456.153 60.755 455.971 58.3671Z" fill="#FBD600"/>
<path d="M646.723 54.5445C643.166 64.5991 640.855 75.1998 636.845 85.158C634.502 88.4774 626.011 83.2413 622.152 83.5626C614.671 82.5346 607.674 79.8363 600.451 77.941C599.613 77.7161 598.216 77.6947 598.248 76.6882C598.28 75.6067 599.677 75.7673 600.526 75.6174C612.07 74.1933 621.862 67.3189 632.159 62.4147C635.018 61.965 646.422 49.8545 646.723 54.5445Z" fill="#FBD600"/>
<path d="M571.828 367.811C567.84 367.726 550.234 368.036 555.093 361.301C555.802 360.391 556.78 360.337 557.887 360.808C570.828 366.451 588.606 362.2 598.85 352.67C614.564 340.153 612.468 316.403 603.654 300.374C602.762 298.254 600.645 297.172 598.989 295.705C596.872 293.906 596.936 291.518 599.118 289.805C600.451 288.809 603.504 292.728 605.084 293.317C616.036 306.445 619.54 331.865 610.264 346.631C606.223 353.035 601.376 359.716 593.744 362.093C586.736 364.599 579.47 368.539 571.828 367.811Z" fill="#FBD600"/>
<path d="M495.622 98.1573C495.116 92.1716 496.653 87.1175 498.954 81.9243C504.36 76.7096 512.679 71.5484 519.988 75.9279C538.239 82.6952 527.835 107.377 511.089 96.9259C506.649 93.8313 516.119 94.1526 513.679 89.7195C513.195 87.7172 512.368 87.2782 509.777 87.246C502.587 86.1753 499.34 93.2745 495.622 98.1573Z" fill="#FBD600"/>
<path d="M170.073 192.364C164.494 188.606 161.151 183.734 158.239 178.102C157.475 169.771 158.798 158.935 167.751 155.669C186.453 144.597 200.706 170.906 179.854 178.091C174.039 179.772 180.961 171.795 175.382 170.799C173.297 169.814 172.341 170.221 170.481 172.448C164.483 177.93 168.417 185.725 170.073 192.364Z" fill="#FBD600"/>
<path d="M307.363 375.403C309.845 375.146 323.786 376.549 321.217 380.843C318.971 383.969 315.994 392.054 311.877 391.979C287.736 387.214 301.193 402.729 282.2 386.85C280.588 385.618 280.739 385.543 282.2 384.119C288.983 377.63 298.28 375.874 307.363 375.403Z" fill="#FBD600"/>
<path d="M604.063 134.275C608.158 134.96 603.858 136.727 602.16 137.198C597.345 138.804 601.365 143.762 604.933 143.655C610.694 145.186 617.907 143.376 622.195 148.377C629.87 159.277 614.811 172.18 604.02 166.098C598.624 162.243 606.223 163.817 606.567 160.262C606.986 158.517 606.159 157.446 604.772 156.483C596.592 151.91 589.52 134.232 604.063 134.275Z" fill="#FBD600"/>
<path d="M427.842 126.244C431.346 132.262 431.615 124.466 431.346 121.532C431.034 113.03 441.256 116.393 443.201 122.068C449.049 130.216 450.435 142.616 460.893 146.385C482.68 151.985 494.192 120.708 478.188 107.355C468.89 101.155 475.887 112.163 470.47 114.819C467.955 116.5 465.762 115.847 463.419 114.23C451.349 104.079 419.179 103.436 427.842 126.244Z" fill="#FBD600"/>
<path d="M603.826 191.154C600.526 194.067 601.752 189.248 602.45 187.514C604.181 182.395 597.076 182.213 594.83 185.244C589.66 188.938 586.543 196.198 579.234 196.208C564.401 194.859 562.713 173.251 575.268 168.604C582.286 166.858 575.859 172.041 578.825 174.846C580.115 176.42 581.631 176.506 583.404 176.035C592.884 172.491 613.425 179.13 603.826 191.154Z" fill="#FBD600"/>
<path d="M76.6149 170.52C78.1842 158.849 79.7535 147.092 81.3227 135.388C82.935 132.925 89.986 131.748 90.0075 136.17C90.9426 146.342 90.3407 156.59 91.523 166.708C91.7702 169.964 92.3829 175.425 87.7933 175.36C82.5051 175.607 75.1746 179.065 76.6149 170.52Z" fill="#FBD600"/>
<path d="M500.265 384.119C513.539 382.535 513.335 397.964 521.418 394.624C524.675 393.125 527.501 390.458 531.392 390.672C538.615 390.919 524.32 399.11 523.019 400.909C517.849 404.935 509.444 406.466 501.737 401.905C495.482 398.875 494.74 388.135 486.088 392.814C479.187 392.086 497.524 382.267 500.265 384.119Z" fill="#FBD600"/>
<path d="M153.359 199.153C153.391 200.449 149.328 201.744 148.49 202.365C146.362 202.633 133.893 178.123 132.625 176.174C125.725 162.115 118.072 148.452 110.806 134.585C106.141 124.391 101.347 114.272 95.7686 104.528C95.328 103.64 94.4466 102.333 95.6397 101.659C96.3276 101.295 96.736 101.776 97.1337 102.269C101.412 107.302 105.582 112.334 108.011 118.502C118.856 139.96 145.201 176.517 153.359 199.153Z" fill="#FBD600"/>
<path d="M634.706 95.2662C634.577 96.9259 634.019 98.4785 633.062 99.7956C630.31 103.982 630.278 109.197 627.838 113.544C625.796 118.095 623.743 109.636 622.206 108.255C614.886 99.3565 605.514 92.3965 597.388 84.2479C596.442 83.4555 597.323 82.0849 598.43 82.7809C610.157 86.2609 621.841 89.6446 633.352 93.7029C634.137 93.9384 634.792 94.3025 634.706 95.2662Z" fill="#FBD600"/>
<path d="M632.084 312.024C623.034 310.3 621.722 305.706 621.432 297.086C622.711 289.323 626.366 282.085 634.502 279.611C645.036 276.72 643.09 272.351 648.636 265.884C649.195 265.541 649.335 264.92 649.324 264.31C649.604 262.779 648.26 260.155 649.894 259.309C652.259 259.609 651.839 265.798 651.13 267.554C649.346 277.952 649.324 283.37 637.587 287.117C625.409 288.756 624.904 304.507 636.673 307.43C640.253 308.844 634.352 312.72 632.084 312.024Z" fill="#FBD600"/>
<path d="M46.0678 123.545C48.0563 124.295 52.3342 125.73 50.7327 128.803C44.4878 140.453 37.9205 151.825 31.9766 163.625C31.2027 164.942 30.3214 165.402 29.1283 164.513C26.8926 162.35 19.0033 160.38 22.1525 156.429C29.3755 147.82 36.2115 138.975 41.4353 128.985C43.1658 127.325 43.327 123.599 46.0678 123.545Z" fill="#FBD600"/>
<path d="M410.128 231.341C412.622 236.256 417.545 238.076 421.511 240.999C425.348 242.016 430.078 240.474 433.173 243.869C442.954 251.353 443.341 271.827 427.186 268.957C423.102 268.229 414.202 261.355 420.769 258.228C423.521 256.954 428.551 256.75 428.422 252.767C428.229 250.722 426.853 249.597 424.897 249.448C418.082 248.816 409.677 237.851 410.128 231.341Z" fill="#FBD600"/>
<path d="M622.346 390.662C617.993 390.619 615.069 386.1 613.22 382.385C610.834 378.658 612.64 376.185 615.413 373.529C616.52 371.677 625.57 356.911 626.882 362.093C626.849 363.282 627.086 363.978 628.505 363.689C629.73 363.368 630.257 365.306 628.988 365.627C624.968 367.126 616.853 374.718 624.399 376.934C626.312 377.234 628.204 377.63 629.257 379.461C631.514 384.355 628.537 391.304 622.346 390.662Z" fill="#FBD600"/>
<path d="M192.032 31.7798C192.139 32.8398 191.344 32.9148 190.645 33.0004C177.102 35.838 163.796 43.7082 156.153 55.3369C155.605 56.1828 155.068 56.2042 154.294 55.6367C150.188 52.6278 150.639 53.206 153.241 49.6617C158.604 42.3698 165.634 36.7803 173.587 32.7863C178.628 30.2485 184.056 28.0534 189.742 26.897C192.139 26.4687 191.322 30.3128 192.032 31.7798Z" fill="#FBD600"/>
<path d="M262.477 33.8463C253.696 33.3002 244.871 33.1503 236.111 33.0754C235.455 33.2039 234.789 32.8291 234.649 32.0689C234.176 29.938 241.926 29.2527 243.302 27.6144C253.524 14.1762 279.965 30.0986 262.488 33.932C262.477 33.9106 262.477 33.8785 262.477 33.8463Z" fill="#FBD600"/>
<path d="M158.174 244.415C152.725 246.192 147.533 241.609 143.47 238.504C136.086 231.587 138.547 217.099 148.339 214.101C156.261 210.728 162.807 220.312 158.4 227.058C156.906 229.991 151.886 224.091 150.467 230.827C148.318 238.001 153.692 240.485 158.174 244.415Z" fill="#FBD600"/>
<path d="M327.462 53.5594C328.569 47.9485 335.126 45.6892 339.823 43.6654C349.486 40.6351 360.976 49.8438 358.815 59.8234C357.902 68.3575 346.304 69.3534 342.553 62.222C340.704 59.4915 348.336 58.0138 343.123 53.4844C337.888 48.1412 333.084 51.5891 327.462 53.5594Z" fill="#FBD600"/>
<path d="M492.075 73.6043C491.107 79.9648 454.326 111.414 453.617 96.7117C453.445 95.823 454.283 95.8872 454.799 95.6945C466.375 92.3108 476.532 85.1045 484.132 75.8316C487.12 72.4051 486.195 67.4367 491.44 72.2123C491.924 72.5443 492.257 72.9619 492.075 73.6043Z" fill="#FBD600"/>
<path d="M588.94 280.007C583.78 284.494 578.202 289.752 578.03 297.022C578.008 298.436 577.256 299.378 575.955 299.549C567.378 301.712 562.144 291.754 568.464 285.618C573.44 279.311 581.985 281.378 588.94 280.007Z" fill="#FBD600"/>
<path d="M432.302 43.7832C429.712 52.7991 427.208 63.0036 432.453 71.5163C433.485 73.1546 433.324 74.8143 431.959 75.9814C423.682 84.8582 410.171 77.245 412.891 65.4771C413.912 54.4909 425.316 50.5291 432.302 43.7832Z" fill="#FBD600"/>
<path d="M195.375 102.976C203.049 108.405 211.884 114.133 221.687 112.035C223.578 111.606 225.094 112.313 225.75 113.983C231.403 124.713 219.72 134.874 209.476 128.417C199.416 123.813 199.437 111.778 195.375 102.976Z" fill="#FBD600"/>
<path d="M464.193 264.503C462.194 271.548 471.996 281.817 458.926 274.14C448.393 266.666 451.811 246.503 465.924 246.246C473.329 245.743 462.086 254.855 464.193 264.503Z" fill="#FBD600"/>
<path d="M515.399 288.381C521.923 288.959 538.615 276.431 540.109 281.314C545.43 288.606 539.292 294.249 531.564 295.18C526.76 296.091 520.837 298.917 516.226 297.215C520.45 291.775 523.299 293.189 515.399 288.381Z" fill="#FBD600"/>
<path d="M446.458 293.264C448.339 306.188 435.366 286.079 438.289 281.903C440.471 270.124 456.1 268.325 460.033 279.975C460.474 281.528 459.356 281.046 458.679 280.896C451.51 279.108 446.007 286.154 446.458 293.264Z" fill="#FBD600"/>
<path d="M143.535 119.444C143.567 121.597 144.169 128.043 140.439 125.494C135.527 121.8 130.895 117.806 126.982 113.052C125.144 111.853 128.992 103.875 130.895 105.321C137.215 109.433 144.524 109.218 143.535 119.444Z" fill="#FBD600"/>
<path d="M465.042 294.099C465.386 289.495 466.3 285.447 470.019 282.567C470.449 281.999 470.857 282.438 470.997 283.016C472.921 291.936 480.402 297.022 486.593 302.911C487.636 303.565 486.926 304.271 486.217 304.732C477.951 311.317 466.515 303.147 465.042 294.099Z" fill="#FBD600"/>
<path d="M138.633 263.057C138.193 270.435 122.5 267.908 123.575 261.772C125.821 260.037 128.358 264.706 131.475 263.592C139.096 262.136 111.472 244.5 109.699 241.267C109.043 240.539 108.301 239.928 109.107 238.943C111.87 236.641 116.814 243.558 119.587 244.811C125.757 250.839 136.065 254.287 138.633 263.057Z" fill="#FBD600"/>
<path d="M389.19 265.07C389.47 260.573 390.76 252.927 387.417 248.548C386.17 247.616 387.331 245.85 388.707 246.085C411.246 252.306 401.368 265.413 411.031 278.53C416.707 284.119 389.405 282.749 389.19 265.07Z" fill="#FBD600"/>
<path d="M86.0736 183.862C89.986 183.091 94.3284 187.696 91.1361 191.004C86.1703 194.12 81.2797 197.29 76.8836 201.166C76.2817 201.594 75.712 202.033 74.9704 201.648C73.3796 198.511 76.142 191.004 76.5934 187.16C77.6038 183.027 82.9135 184.708 86.0736 183.862Z" fill="#FBD600"/>
<path d="M378.356 356.418C375.067 356.814 371.38 356.3 368.607 359.159C368.231 359.545 367.715 359.652 367.307 359.224C366.135 356.054 373.132 352.189 375.766 351.096C378.646 350.218 378.754 345.014 375.422 344.629C374.444 344.415 374.519 344.051 375.174 343.505C389.911 332.69 393.221 355.679 378.356 356.418Z" fill="#FBD600"/>
<path d="M463.172 283.884C468.439 284.162 457.024 291.979 460.055 299.549C460.711 303.522 461.742 307.441 462.613 311.381C463.226 312.516 462.312 313.576 461.151 312.752C455.487 310.568 452.123 306.113 450.435 300.674C448.124 292.686 455.551 285.169 463.172 283.884Z" fill="#FBD600"/>
<path d="M169.181 97.0008C168.514 98.275 170.191 102.655 167.364 101.723C156.755 97.8039 120.458 85.9718 109.441 83.2413C106.216 76.6025 129.938 84.5263 132.969 85.0509C135.979 86.4322 168.837 92.8034 169.181 97.0008Z" fill="#FBD600"/>
<path d="M229.415 88.6381C245.473 76.0992 248.73 101.552 260.596 104.218C261.811 104.057 261.789 105.214 261.015 105.867C246.666 115.707 238.669 93.8742 224.03 99.4422C221.536 99.8919 228.383 89.5375 229.415 88.6381Z" fill="#FBD600"/>
<path d="M193.268 287C200.319 272.587 211.433 289.527 220.784 287.353C221.59 286.818 221.977 287.653 221.654 288.381C214.883 300.288 201.652 287.546 193.182 296.519C191.57 297.686 192.849 288.006 193.268 287Z" fill="#FBD600"/>
<path d="M470.545 275.221C471.61 267.03 481.96 255.39 490.247 262.886C491.129 263.957 494.944 267.105 491.774 267.415C482.401 265.959 470.556 288.413 470.545 275.221Z" fill="#FBD600"/>
<path d="M473.555 373.069C482.519 372.972 482.981 389.794 472.512 386.721C464.387 385.211 464.569 372.64 473.555 373.069Z" fill="#FBD600"/>
<path d="M177.145 320.408C179.725 328.963 163.613 334.06 163.688 323.181C162.903 314.99 175.081 311.681 177.145 320.408Z" fill="#FBD600"/>
<path d="M495.428 52.8312C496.105 42.8516 512.045 47.0812 508.52 56.4291C505.37 61.0548 495.041 60.0911 495.428 52.8312Z" fill="#FBD600"/>
<path d="M309.48 257.318C310.007 249.629 322.281 252.895 319.562 260.091C317.133 263.657 309.179 262.918 309.48 257.318Z" fill="#FBD600"/>
<path d="M437.386 226.297C438.064 216.318 454.004 220.547 450.478 229.895C447.329 234.521 437 233.557 437.386 226.297Z" fill="#FBD600"/>
<path d="M127.563 66.4194C127.692 69.7817 125.015 67.3724 122.962 68.7537C118.383 69.9102 113.568 69.9316 109.097 71.6234C108.441 71.8697 107.914 71.7198 107.635 71.0345C105.679 66.7192 119.759 61.7508 123.156 60.3695C126.627 59.106 127.154 64.1922 127.563 66.4194Z" fill="#FBD600"/>
<path d="M89.0831 122.228C89.0186 123.224 89.1046 124.338 88.5027 125.205C88.0405 125.848 82.9887 126.362 82.4083 125.858C82.0214 119.498 82.4191 112.206 83.4509 105.631C83.5907 103.586 87.1376 102.419 87.4171 104.818C87.4816 110.675 88.4382 116.446 89.0509 122.228C89.0509 122.228 89.0724 122.228 89.0831 122.228Z" fill="#FBD600"/>
<path d="M52.8394 32.5828C57.8481 36.2663 59.8366 43.6011 64.136 48.3018C64.5444 48.8801 65.2968 49.5546 64.3832 50.2507C61.4166 52.949 53.5165 43.1942 50.8509 41.1276C46.4548 35.3561 46.7235 36.2663 52.8394 32.5828Z" fill="#FBD600"/>
<path d="M101.788 94.8807C101.831 92.6535 103.239 91.8075 105.077 92.8462C110.258 95.748 115.933 97.5576 121.146 100.384C123.951 101.723 119.899 104.089 119.361 105.813C118.706 106.948 118.082 107.013 117.029 106.306C112.171 102.483 105.517 99.6028 101.788 94.8807Z" fill="#FBD600"/>
<path d="M105.109 32.8826C105.453 34.9064 93.1998 49.8224 91.5768 47.8414C90.7814 47.124 90.0505 46.3852 90.7169 45.1966C93.1998 41.2775 94.6186 36.8766 96.5855 32.7113C97.9506 30.0344 98.5417 29.7667 101.412 30.6233C102.82 30.9231 105.195 31.1052 105.109 32.8826Z" fill="#FBD600"/>
<path d="M46.5408 85.3829C48.2283 85.2758 49.2601 88.1669 47.5511 88.788C43.5635 90.876 39.7478 93.221 36.104 95.8872C34.696 96.4869 31.1597 99.0567 30.3536 96.8081C29.9774 94.9021 27.6987 91.6684 30.1709 90.4905C35.1797 87.6958 40.9408 86.5607 46.5408 85.3829Z" fill="#FBD600"/>
<path d="M50.7757 116.5C53.3445 111.253 57.9449 106.541 60.8577 101.327C61.3736 100.577 61.6961 99.9776 62.7279 100.481C65.7052 103.029 59.4281 110.9 58.9015 114.465C56.7303 118.513 55.8274 123.556 51.2808 118.245C50.8724 117.881 50.5284 117.463 50.7757 116.5Z" fill="#FBD600"/>
<path d="M48.6797 67.3403C43.4022 66.1946 37.8238 64.3849 32.3636 63.7318C30.6008 63.5819 30.2246 63.0465 30.5363 61.2797C31.3425 56.6968 32.1271 56.2792 36.3082 58.4207C40.5646 60.6158 44.9178 62.5539 49.5073 63.9781C52.1407 64.7918 51.4206 67.5009 48.6797 67.3403Z" fill="#FBD600"/>
<path d="M498.932 296.283C507.348 292.932 506.488 294.27 500.028 288.831C500.448 288.145 500.91 288.413 501.275 288.477C503.93 288.991 506.574 289.131 509.24 288.606C512.948 287.867 514.904 290.812 517.43 292.525C518.612 293.51 513.561 297.408 512.443 297.354C507.971 296.765 502.93 298.5 498.932 296.283Z" fill="#FBD600"/>
<path d="M137.763 67.6936C133.646 68.2825 134.829 61.7508 133.12 59.1916C132.582 57.3713 132.711 57.1465 134.56 56.8788C135.893 56.686 136.935 55.8508 138.139 55.369C141.503 54.2447 140.837 61.5045 142.342 63.539C144.169 67.6508 140.88 67.3617 137.763 67.6936Z" fill="#FBD600"/>
<path d="M486.088 284.794C491.956 286.614 497.857 287.546 502.028 292.557C502.898 293.317 501.813 293.467 501.361 293.703C496.352 296.926 489.549 295.202 485.239 291.968C485.303 291.476 485.819 291.401 486.206 291.261C490.785 290.812 486.539 287.556 485.808 285.211C485.894 285.072 485.991 284.933 486.088 284.794Z" fill="#FBD600"/>
<path d="M73.5624 356.354C74.3148 354.427 76.8191 345.528 79.1301 346.267C80.8713 348.312 83.9561 348.227 85.3856 350.636C87.4279 353.677 77.5178 355.39 75.5723 357.468C74.6479 358.217 73.1324 357.917 73.5624 356.354Z" fill="#FBD600"/>
<path d="M593.626 74.5573C593.647 75.8637 593.045 76.5383 591.831 76.3241C590.305 75.7566 581.846 75.4996 585.285 72.8655C593.389 67.7044 592.465 57.6712 593.626 74.5573Z" fill="#FBD600"/>
<path d="M480.939 290.619C478.832 289.355 472.932 288.488 473.867 285.19C474.694 284.001 474.286 281.742 476.156 281.592C479.359 280.96 486.776 286.25 484.905 289.323C483.648 289.784 482.369 290.148 480.939 290.619Z" fill="#FBD600"/>
<path d="M439.773 85.8219C441.815 85.8112 443.889 88.2312 443.889 90.6404C443.889 92.3751 442.632 93.3602 440.407 93.3602C435.194 93.7135 433.635 85.5863 439.773 85.8219Z" fill="#FBD600"/>
<path d="M254.018 119.926C257.264 119.905 260.553 123.76 260.553 127.572C260.553 130.323 258.565 131.887 255.028 131.897C246.741 132.465 244.269 119.551 254.018 119.926Z" fill="#FBD600"/>
<path d="M349.486 376.003C351.528 375.992 353.602 378.412 353.602 380.821C353.602 382.556 352.345 383.541 350.12 383.541C344.907 383.894 343.348 375.767 349.486 376.003Z" fill="#FBD600"/>
<path d="M466.955 266.912C466.407 263.046 469.954 258.506 474.103 260.252C474.995 260.562 475.21 260.916 474.458 261.612C471.975 263.903 470.578 266.805 469.686 269.996C468.31 274.45 466.397 269.096 466.955 266.912Z" fill="#FBD600"/>
<path d="M157.282 130.987C152.864 129.413 153.348 121.307 158.755 122.657C159.249 122.807 159.862 123.267 160.227 122.657C160.206 120.943 157.701 119.273 159.819 117.517C162.538 114.733 168.149 113.983 169.535 118.598C170.32 120.943 173.749 117.549 176.092 118.845C180.477 119.487 175.533 126.447 179.778 124.381C193.504 121.158 188.066 146.417 174.533 140.86C171.008 141.32 174.039 147.895 164.29 147.649C160.431 147.156 160.27 140.699 158.744 141.824C143.685 146.021 148.264 129.617 157.282 130.987ZM173.491 130.762C173.491 125.869 165.569 126.586 165.494 131.105C166.644 136.427 172.631 136.127 173.491 130.762Z" fill="#FBD600"/>
<path d="M360.342 329.477C364.157 296.862 353.108 304.732 381.57 286.464C382.989 285.511 385.794 282.952 386.837 285.34C389.072 295.288 389.674 308.415 386.331 317.838C381.817 321.382 358.364 346.032 360.449 329.488C360.417 329.477 360.385 329.477 360.342 329.477ZM374.057 306.252C374.422 303.222 371.327 300.299 369.091 303.554C365.63 308.993 372.294 312.977 374.057 306.252ZM374.841 309.689C374.551 318.149 382.774 308.437 378.034 306.466C375.841 306.499 374.917 307.43 374.841 309.689ZM384.73 312.73C384.096 305.599 378.249 311.189 380.742 315.011C382.473 315.975 384.956 315.011 384.73 312.73Z" fill="#FBD600"/>
<path d="M359.557 300.384C359.063 311.542 359.192 322.871 357.128 333.878C354.795 336.202 350.045 331.116 347.443 329.981C342.016 325.698 332.245 323.042 331.17 315.429C331.89 311.874 329.042 280.393 334.449 284.783C341.596 291.347 354.237 293.039 359.557 300.384ZM347.486 304.721C346.766 308.362 353.463 311.167 354.054 306.466C355.827 301.198 346.809 297.825 347.486 304.721ZM338.974 296.187C334.696 295.48 335.706 304.132 339.049 303.682C344.122 303.65 343.058 296.048 338.974 296.187ZM340.264 313.812C340.328 311.885 338.769 309.775 336.749 309.872C329.429 311.874 339.694 322.989 340.264 313.812ZM352.947 320.087C353.516 315.45 346.895 313.887 346.895 318.78C346.293 322.442 353.043 324.22 352.947 320.087Z" fill="#FBD600"/>
<path d="M203.726 351.889C204.779 348.43 205.779 345.304 208.961 343.365C209.67 342.905 209.67 342.573 209.24 341.92C207.198 339.457 197.126 319.701 197.202 330.912C197.406 331.833 196.406 332.411 195.751 331.694C193.526 329.552 194.235 323.888 198.244 323.909C205.177 326.062 207.531 341.331 215.313 342.102C238.379 346.546 216.527 382.492 204.693 359.952C204.339 358.86 204.081 357.703 202.802 357.178C201.695 354.212 200.254 350.593 196.535 353.516C191.623 356.108 196.041 362.789 190.667 365.52C183.487 371.666 167.977 367.779 170.266 356.782C167.525 348.591 161.807 336.609 153.832 332.85C151.274 334.521 155.971 338.686 153.165 340.025C151.467 340.282 151.521 337.883 150.93 336.791C151.596 318.159 168.278 345.378 170.804 351.075C171.147 351.921 171.491 351.696 171.932 351.086C176.683 343.387 187.324 343.569 191.795 351.225C192.333 352.606 192.881 353.056 194.224 351.921C196.729 349.801 201.673 348.055 203.726 351.889Z" fill="#FBD600"/>
<path d="M359.073 267.683C367.081 270.595 375.357 275.735 382.408 280.811C384.343 286.015 365.877 293.917 361.105 295.33C351.947 293.853 344.488 287.139 336.297 283.102C331.106 280.821 356.096 267.565 359.073 267.683ZM363.663 281.346C363.921 276.131 354.441 276.324 354.978 281.956C355.129 287.482 363.867 286.55 363.663 281.346Z" fill="#FBD600"/>
<path d="M587.886 201.027C604.922 238.226 577.998 217.024 576.203 233.407C575.687 237.337 580.104 250.4 572.333 243.108C567.292 238.172 562.853 232.658 557.597 227.925C548.515 218.202 569.012 212.923 576.095 214.936C588.563 216.703 587.134 210.364 587.886 201.027Z" fill="#FBD600"/>
<path d="M547.956 224.327C551.771 224.991 604.987 279.301 583.533 263.56C571.387 252.124 560.359 239.586 548.235 228.171C547.332 227.229 546.161 224.852 547.956 224.327Z" fill="#FBD600"/>
<path d="M386.353 74.0541C386.654 66.8049 391.125 47.2739 400.702 56.4398C406.119 63.7853 391.706 86.004 386.353 74.0541Z" fill="#FBD600"/>
<path d="M383.58 76.3562C370.854 74.0755 372.939 45.6142 387.954 52.9811C390.523 57.8639 383.655 65.37 384.676 71.6341C384.085 73.176 386.084 76.8488 383.58 76.3562Z" fill="#FBD600"/>
<path d="M183.884 193.574C183.261 185.651 215.248 213.512 218.774 216.253C225.051 222.603 260.768 258.463 255.329 263.646C251.707 261.761 246.72 264.663 248.988 268.572C249.256 269.3 250.439 269.824 249.783 270.735C217.441 260.444 193.655 225.334 183.884 193.574Z" fill="#FBD600"/>
<path d="M223.299 271.998C220.064 269.353 220.838 262.061 218.559 258.035C217.076 254.598 221.45 255.69 222.869 257.254C224.965 259.813 233.327 261.933 231.274 265.552C228.34 267.051 227.072 272.169 223.299 271.998Z" fill="#FBD600"/>
<path d="M541.26 214.058C548.257 212.538 550.374 222.892 544.162 224.702C537.455 226.758 534.23 215.043 541.26 214.058Z" fill="#FBD600"/>
<path d="M368.833 73.6472C369.456 68.2183 372.477 72.3729 371.982 75.5103C372.186 76.8916 372.756 77.5876 374.315 77.6519C380.764 77.2985 382.118 87.0961 377.442 89.2698C371.982 92.7177 364.953 86.2931 368.252 80.7786C369.22 79.1403 368.94 78.0802 367.651 76.8595C363.168 73.7114 363.459 67.5973 368.833 73.6472Z" fill="#FBD600"/>
<path d="M395.489 86.6999C395.468 93.8206 385.708 94.6237 382.44 89.8052C382.129 86.5072 382.645 83.0164 381.043 79.7934C385.031 74.3431 395.94 80.3288 395.489 86.6999Z" fill="#FBD600"/>
<path d="M414.417 193.831C403.787 184.933 398.864 187.417 408.957 174.236C415.384 164.749 421.973 148.163 430.336 166.901C432.012 170.713 436.086 175.007 440.547 174.043C441.363 173.765 441.664 174.118 441.654 174.911C438.537 183.712 434.022 192.728 427.928 199.988C424.209 204.807 418.072 195.876 414.417 193.831ZM412.579 180.586C407.431 186.336 420.544 185.704 416.341 180.115C415.309 178.958 414.138 179.097 412.579 180.586Z" fill="#FBD600"/>
<path d="M393.361 194.035C386.6 187.032 414.009 156.622 418.029 147.809C426.283 143.194 416.341 158.656 414.234 160.659C397.854 192.343 390.405 177.909 415.524 197.408C419.286 199.153 423.962 205.985 427.595 204.828C434.388 193.285 443.029 182.931 448.576 170.649C462.011 163.089 430.174 207.837 428.089 211.692C422.328 223.256 401.97 196.926 393.361 194.035Z" fill="#FBD600"/>
<path d="M447.415 158.153C444.223 158.838 440.837 167.608 439.042 164.695C430.561 151.428 454.487 144.404 447.415 158.153Z" fill="#FBD600"/>
<path d="M450.51 161.044C458.357 154.502 464.86 167.908 454.82 165.691C453.402 163.882 446.953 163.989 450.51 161.044Z" fill="#FBD600"/>
<path d="M396.661 86.9998C395.575 77.1593 404.98 92.3644 395.296 94.2168C390.502 94.2168 397.499 89.6874 396.661 86.9998Z" fill="#FBD600"/>
<path d="M335.599 133.461C337.77 140.978 329.15 145.089 323.904 148.612C294.55 164.877 322.12 87.3424 335.599 133.461ZM330.192 132.39C329.107 125.666 318.788 127.443 320.099 133.857C321.314 142.348 331.461 138.868 330.192 132.39Z" fill="#FBD600"/>
<path d="M287.209 159.288C272.022 167.351 264.304 138.611 275.096 137.573C290.788 135.474 316.617 157.007 287.209 159.288ZM286.65 148.334C286.07 141.824 275.397 141.352 277.03 148.923C277.901 155.722 288.22 156.322 286.65 148.334Z" fill="#FBD600"/>
<path d="M327.398 150.411C337.834 148.205 336.835 158.72 333.728 165.295C328.462 174.761 318.466 163.496 315.875 157.371C314.166 152.082 324.205 152.499 327.398 150.411ZM325.022 158.057C322.894 162.822 330.869 165.316 331.364 159.877C331.783 155.187 326.591 153.902 325.011 158.078L325.022 158.057Z" fill="#FBD600"/>
<path d="M295.034 177.513C289.165 178.144 284.587 172.534 282.996 167.415C282.663 160.048 292.884 160.905 297.775 158.646C307.244 157.5 300.72 176.174 295.034 177.513ZM289.714 169.161C290.359 175.446 296.99 172.094 296.571 168.325C295.808 163.667 287.951 163.4 289.714 169.161Z" fill="#FBD600"/>
<path d="M304.912 158.003C305.568 153.591 300.999 146.192 305.159 143.494C310.06 143.751 315.123 159.738 313.145 164.16C309.501 169.664 304.998 161.858 304.912 158.003Z" fill="#FBD600"/>
<path d="M304.138 142.091C297.495 141.128 302.397 134.596 291.003 130.944C293.454 128.696 298.592 132.24 300.226 134.778C300.559 135.367 300.806 136.181 301.827 135.827C304.278 132.594 301.139 123.717 306.524 122.357C301.816 135.538 309.448 139.907 304.138 142.091Z" fill="#FBD600"/>
<path d="M321.325 134.232C319.648 128.525 328.311 127.165 329.021 132.968C330.697 138.344 321.744 140.56 321.325 134.232Z" fill="#FBD600"/>
<path d="M285.188 147.617C286.317 151.964 282.501 154.18 279.481 151.428C275.622 146.803 283.641 140.314 285.188 147.617Z" fill="#FBD600"/>
<path d="M325.011 158.078C327.591 154.437 331.923 157.564 330.149 160.787C327.957 163.55 324.711 161.044 325.022 158.057L325.011 158.078Z" fill="#FBD600"/>
<path d="M295.324 168.1C296.13 171.484 291.175 172.266 290.498 169.053C289.617 165.509 294.765 164.074 295.324 168.1Z" fill="#FBD600"/>
</svg>
