<svg width="19" height="19" viewBox="0 0 19 19" fill="none" xmlns="http://www.w3.org/2000/svg">
<g clip-path="url(#clip0)">
<path d="M0.791667 3.76062H2.95767C3.12759 4.38583 3.49851 4.93775 4.01322 5.33123C4.52792 5.72472 5.1578 5.93791 5.80569 5.93791C6.45357 5.93791 7.08345 5.72472 7.59816 5.33123C8.11286 4.93775 8.48379 4.38583 8.65371 3.76062H18.2083C18.4183 3.76062 18.6197 3.67721 18.7681 3.52875C18.9166 3.38028 19 3.17892 19 2.96896C19 2.75899 18.9166 2.55763 18.7681 2.40916C18.6197 2.2607 18.4183 2.17729 18.2083 2.17729H8.65371C8.48379 1.55208 8.11286 1.00016 7.59816 0.606676C7.08345 0.213189 6.45357 0 5.80569 0C5.1578 0 4.52792 0.213189 4.01322 0.606676C3.49851 1.00016 3.12759 1.55208 2.95767 2.17729H0.791667C0.581704 2.17729 0.38034 2.2607 0.231874 2.40916C0.0834075 2.55763 0 2.75899 0 2.96896C0 3.17892 0.0834075 3.38028 0.231874 3.52875C0.38034 3.67721 0.581704 3.76062 0.791667 3.76062ZM5.80529 1.58354C6.0793 1.58354 6.34716 1.66479 6.57499 1.81702C6.80282 1.96925 6.98039 2.18563 7.08525 2.43878C7.19011 2.69193 7.21755 2.97049 7.16409 3.23924C7.11063 3.50798 6.97868 3.75484 6.78493 3.94859C6.59118 4.14235 6.34432 4.27429 6.07557 4.32775C5.80683 4.38121 5.52827 4.35377 5.27512 4.24891C5.02196 4.14405 4.80559 3.96648 4.65336 3.73865C4.50113 3.51082 4.41988 3.24296 4.41988 2.96896C4.42029 2.60165 4.56639 2.24951 4.82612 1.98978C5.08584 1.73006 5.43799 1.58396 5.80529 1.58354Z" fill="#383A3E"/>
<path d="M18.2083 8.70931H16.0423C15.8727 8.08396 15.5019 7.53184 14.9873 7.13819C14.4726 6.74454 13.8427 6.53125 13.1947 6.53125C12.5468 6.53125 11.9168 6.74454 11.4022 7.13819C10.8875 7.53184 10.5167 8.08396 10.3471 8.70931H0.791667C0.581704 8.70931 0.38034 8.79272 0.231874 8.94118C0.0834075 9.08965 0 9.29101 0 9.50098C0 9.71094 0.0834075 9.9123 0.231874 10.0608C0.38034 10.2092 0.581704 10.2926 0.791667 10.2926H10.3471C10.5167 10.918 10.8875 11.4701 11.4022 11.8638C11.9168 12.2574 12.5468 12.4707 13.1947 12.4707C13.8427 12.4707 14.4726 12.2574 14.9873 11.8638C15.5019 11.4701 15.8727 10.918 16.0423 10.2926H18.2083C18.4183 10.2926 18.6197 10.2092 18.7681 10.0608C18.9166 9.9123 19 9.71094 19 9.50098C19 9.29101 18.9166 9.08965 18.7681 8.94118C18.6197 8.79272 18.4183 8.70931 18.2083 8.70931ZM13.1947 10.8864C12.9207 10.8864 12.6528 10.8051 12.425 10.6529C12.1972 10.5007 12.0196 10.2843 11.9148 10.0312C11.8099 9.778 11.7825 9.49944 11.8359 9.2307C11.8894 8.96195 12.0213 8.71509 12.2151 8.52134C12.4088 8.32758 12.6557 8.19564 12.9244 8.14218C13.1932 8.08872 13.4717 8.11616 13.7249 8.22102C13.978 8.32588 14.1944 8.50345 14.3466 8.73128C14.4989 8.95911 14.5801 9.22697 14.5801 9.50098C14.5797 9.86828 14.4336 10.2204 14.1739 10.4802C13.9142 10.7399 13.562 10.886 13.1947 10.8864Z" fill="#383A3E"/>
<path d="M18.2083 15.2398H8.65371C8.48379 14.6146 8.11286 14.0627 7.59816 13.6692C7.08345 13.2757 6.45357 13.0625 5.80569 13.0625C5.1578 13.0625 4.52792 13.2757 4.01322 13.6692C3.49851 14.0627 3.12759 14.6146 2.95767 15.2398H0.791667C0.581704 15.2398 0.38034 15.3232 0.231874 15.4717C0.0834075 15.6201 0 15.8215 0 16.0315C0 16.2414 0.0834075 16.4428 0.231874 16.5912C0.38034 16.7397 0.581704 16.8231 0.791667 16.8231H2.95767C3.12759 17.4483 3.49851 18.0002 4.01322 18.3937C4.52792 18.7872 5.1578 19.0004 5.80569 19.0004C6.45357 19.0004 7.08345 18.7872 7.59816 18.3937C8.11286 18.0002 8.48379 17.4483 8.65371 16.8231H18.2083C18.4183 16.8231 18.6197 16.7397 18.7681 16.5912C18.9166 16.4428 19 16.2414 19 16.0315C19 15.8215 18.9166 15.6201 18.7681 15.4717C18.6197 15.3232 18.4183 15.2398 18.2083 15.2398ZM5.80529 17.4169C5.53128 17.4169 5.26343 17.3356 5.0356 17.1834C4.80777 17.0312 4.63019 16.8148 4.52533 16.5616C4.42048 16.3085 4.39304 16.0299 4.4465 15.7612C4.49995 15.4924 4.6319 15.2456 4.82565 15.0518C5.01941 14.8581 5.26627 14.7261 5.53501 14.6727C5.80375 14.6192 6.08232 14.6466 6.33547 14.7515C6.58862 14.8564 6.80499 15.0339 6.95722 15.2618C7.10946 15.4896 7.19071 15.7574 7.19071 16.0315C7.19008 16.3987 7.04392 16.7507 6.78424 17.0104C6.52456 17.2701 6.17253 17.4162 5.80529 17.4169Z" fill="#383A3E"/>
</g>
<defs>
<clipPath id="clip0">
<rect width="19" height="19" fill="white"/>
</clipPath>
</defs>
</svg>
