<svg width="18" height="18" viewBox="0 0 18 18" fill="none" xmlns="http://www.w3.org/2000/svg">
<path d="M15 6C16.6569 6 18 4.65685 18 3C18 1.34315 16.6569 0 15 0C13.3431 0 12 1.34315 12 3C12 3.12549 12.0077 3.24919 12.0227 3.37063L5.08261 6.84066C4.54305 6.32015 3.80891 6 3 6C1.34315 6 0 7.34315 0 9C0 10.6569 1.34315 12 3 12C3.80891 12 4.54305 11.6798 5.08261 11.1593L12.0227 14.6294C12.0077 14.7508 12 14.8745 12 15C12 16.6569 13.3431 18 15 18C16.6569 18 18 16.6569 18 15C18 13.3431 16.6569 12 15 12C14.1911 12 13.457 12.3202 12.9174 12.8407L5.97733 9.37063C5.99229 9.24919 6 9.12549 6 9C6 8.87451 5.99229 8.75081 5.97733 8.62937L12.9174 5.15934C13.457 5.67985 14.1911 6 15 6Z" fill="#383A3E"/>
</svg>
