<svg width="18" height="18" viewBox="0 0 18 18" fill="none" xmlns="http://www.w3.org/2000/svg">
<path d="M8.54131 1.05792C8.71539 0.656476 9.28469 0.656476 9.45877 1.05792L11.5982 5.99157C11.6706 6.15864 11.8282 6.27312 12.0095 6.29039L17.3628 6.8005C17.7983 6.84201 17.9743 7.38344 17.6463 7.67305L13.6152 11.2323C13.4787 11.3529 13.4185 11.5381 13.4581 11.7158L14.6272 16.9648C14.7223 17.3918 14.2618 17.7265 13.885 17.504L9.25424 14.7701C9.09742 14.6775 8.90266 14.6775 8.74584 14.7701L4.1151 17.504C3.73831 17.7265 3.27774 17.3918 3.37287 16.9648L4.54198 11.7158C4.58157 11.5381 4.52139 11.3529 4.38488 11.2323L0.35381 7.67305C0.0258114 7.38344 0.201734 6.84201 0.637319 6.8005L5.99061 6.29039C6.1719 6.27312 6.32946 6.15864 6.40191 5.99157L8.54131 1.05792Z" fill="#F15B3D"/>
</svg>
