<svg width="18" height="18" viewBox="0 0 18 18" fill="none" xmlns="http://www.w3.org/2000/svg">
<path fill-rule="evenodd" clip-rule="evenodd" d="M6.40142 5.99157C6.32897 6.15864 6.17141 6.27312 5.99012 6.29039L0.636831 6.8005C0.201246 6.84201 0.0253232 7.38344 0.353322 7.67305L4.38439 11.2323C4.5209 11.3529 4.58108 11.5381 4.54149 11.7158L3.37238 16.9648C3.27725 17.3918 3.73782 17.7265 4.11461 17.504L8.74535 14.7701C8.90217 14.6775 9.09693 14.6775 9.25375 14.7701L13.8845 17.504C14.2613 17.7265 14.7219 17.3918 14.6267 16.9648L13.4576 11.7158C13.418 11.5381 13.4782 11.3529 13.6147 11.2323L17.6458 7.67305C17.9738 7.38344 17.7979 6.84201 17.3623 6.8005L12.009 6.29039C11.8277 6.27312 11.6701 6.15864 11.5977 5.99157L9.45828 1.05792C9.2842 0.656476 8.7149 0.656476 8.54082 1.05792L6.40142 5.99157ZM8.99955 5.02719L8.23633 6.78725C7.87408 7.62263 7.08628 8.195 6.17984 8.28137L4.27009 8.46335L5.70815 9.7331C6.3907 10.3358 6.69161 11.2619 6.49366 12.1507L6.07658 14.0232L7.72857 13.0479C8.51267 12.585 9.48644 12.585 10.2705 13.0479L11.9225 14.0232L11.5054 12.1507C11.3075 11.2619 11.6084 10.3358 12.291 9.7331L13.729 8.46335L11.8193 8.28137C10.9128 8.195 10.125 7.62263 9.76277 6.78725L8.99955 5.02719Z" fill="#B07440"/>
</svg>
