<svg width="20" height="20" viewBox="0 0 20 20" fill="none" xmlns="http://www.w3.org/2000/svg">
<g clip-path="url(#clip0)">
<path d="M9.99996 5C9.77895 5 9.56698 5.0878 9.4107 5.24408C9.25442 5.40036 9.16663 5.61232 9.16663 5.83333V10C9.16667 10.221 9.2545 10.4329 9.41079 10.5892L11.9108 13.0892C12.068 13.241 12.2785 13.325 12.497 13.3231C12.7155 13.3212 12.9245 13.2335 13.079 13.079C13.2335 12.9245 13.3211 12.7155 13.323 12.497C13.3249 12.2785 13.2409 12.068 13.0891 11.9108L10.8333 9.655V5.83333C10.8333 5.61232 10.7455 5.40036 10.5892 5.24408C10.4329 5.0878 10.221 5 9.99996 5Z" fill="#383A3E"/>
<path d="M19.8431 8.44333C19.5571 6.63153 18.7782 4.93331 17.5917 3.53447C16.4053 2.13563 14.8569 1.09006 13.1161 0.512166C11.3753 -0.0657305 9.50902 -0.153693 7.72155 0.257902C5.93408 0.669496 4.29425 1.56479 2.98147 2.84583V0.833333C2.98147 0.61232 2.89367 0.400358 2.73739 0.244078C2.58111 0.0877974 2.36915 0 2.14814 0C1.92712 0 1.71516 0.0877974 1.55888 0.244078C1.4026 0.400358 1.3148 0.61232 1.3148 0.833333V4.16667C1.3148 4.60869 1.4904 5.03262 1.80296 5.34518C2.11552 5.65774 2.53944 5.83333 2.98147 5.83333H6.3148C6.53582 5.83333 6.74778 5.74554 6.90406 5.58926C7.06034 5.43298 7.14813 5.22101 7.14813 5C7.14813 4.77899 7.06034 4.56703 6.90406 4.41074C6.74778 4.25446 6.53582 4.16667 6.3148 4.16667H4.0223C5.35397 2.81469 7.10757 1.95825 8.99256 1.73924C10.8776 1.52024 12.7808 1.9518 14.387 2.96245C15.9931 3.97309 17.2058 5.50214 17.8241 7.29628C18.4424 9.09041 18.4291 11.0419 17.7866 12.8275C17.144 14.6131 15.9107 16.1255 14.291 17.1143C12.6712 18.1031 10.7623 18.5088 8.88045 18.2642C6.9986 18.0196 5.25678 17.1395 3.94358 15.7696C2.63038 14.3996 1.82462 12.6222 1.6598 10.7317C1.63819 10.5285 1.54139 10.3408 1.38843 10.2054C1.23546 10.0701 1.03739 9.99677 0.833136 10C0.71659 10.0003 0.601387 10.0249 0.494868 10.0722C0.388348 10.1195 0.292847 10.1884 0.214449 10.2747C0.136052 10.3609 0.0764776 10.4625 0.0395216 10.5731C0.00256568 10.6836 -0.0109613 10.8006 -0.000197461 10.9167C0.131582 12.2445 0.527783 13.5326 1.16506 14.7049C1.80234 15.8773 2.66781 16.9103 3.71049 17.743C4.75316 18.5757 5.95194 19.1913 7.23621 19.5536C8.52048 19.9158 9.86427 20.0174 11.1884 19.8522C12.5125 19.6871 13.7902 19.2586 14.9462 18.5921C16.1021 17.9255 17.113 17.0344 17.9193 15.9711C18.7255 14.9078 19.3108 13.6939 19.6406 12.4009C19.9704 11.108 20.0382 9.76205 19.8398 8.4425L19.8431 8.44333Z" fill="#383A3E"/>
</g>
<defs>
<clipPath id="clip0">
<rect width="20" height="20" fill="white"/>
</clipPath>
</defs>
</svg>
